SplineFontDB: 3.0
FontName: Laksaman-BoldItalic
FullName: Laksaman Bold Italic
FamilyName: Laksaman
Weight: Bold
Copyright: Laksaman, based on TH Sarabun New.\n\nCopyright (c) 2014 Theppitak Karoonboonyanan.\n\nTH Sarabun New:\n\nCopyright (c) 2010-2011 by Software Industry Promotion Agency (Public Organization) (SIPA). All rights reserved.\nCreated by : Suppakit CHALERMLARP.
Version: 3.0: 2014-04-30
ItalicAngle: -12
UnderlinePosition: -20
UnderlineWidth: 30
Ascent: 800
Descent: 200
LayerCount: 2
Layer: 0 1 "Back"  1
Layer: 1 1 "Fore"  0
XUID: [1021 373 914837695 15431195]
FSType: 0
OS2Version: 3
OS2_WeightWidthSlopeOnly: 0
OS2_UseTypoMetrics: 1
CreationTime: 1308745585
ModificationTime: 1398865752
PfmFamily: 17
TTFWeight: 700
TTFWidth: 5
LineGap: 30
VLineGap: 0
Panose: 2 11 5 0 4 2 0 2 0 3
OS2TypoAscent: 850
OS2TypoAOffset: 0
OS2TypoDescent: -250
OS2TypoDOffset: 0
OS2TypoLinegap: 60
OS2WinAscent: 844
OS2WinAOffset: 0
OS2WinDescent: 457
OS2WinDOffset: 0
HheadAscent: 844
HheadAOffset: 0
HheadDescent: -457
HheadDOffset: 0
OS2SubXSize: 700
OS2SubYSize: 650
OS2SubXOff: 0
OS2SubYOff: 140
OS2SupXSize: 700
OS2SupYSize: 650
OS2SupXOff: 0
OS2SupYOff: 477
OS2StrikeYSize: 30
OS2StrikeYPos: 250
OS2FamilyClass: 2053
OS2Vendor: 'psk '
OS2CodePages: 60010183.80000000
OS2UnicodeRanges: a100006f.5000205a.00000000.00000000
Lookup: 4 0 0 "'frac' Diagonal Fractions in Latin lookup 0"  {"'frac' Diagonal Fractions in Latin lookup 0 subtable"  } ['frac' ('latn' <'dflt' > ) ]
Lookup: 4 0 1 "'rlig' Required Ligatures in Latin lookup 1"  {"'rlig' Required Ligatures in Latin lookup 1 subtable"  } ['rlig' ('latn' <'dflt' > ) ]
Lookup: 4 0 1 "'rlig' Required Ligatures in Latin lookup 2"  {"'rlig' Required Ligatures in Latin lookup 2 subtable"  } ['rlig' ('latn' <'dflt' > ) ]
Lookup: 6 0 0 "'rlig' Required Ligatures in Latin lookup 3"  {"'rlig' Required Ligatures in Latin lookup 3 subtable"  } ['rlig' ('latn' <'dflt' > ) ]

StartChar: .notdef
Encoding: 65536 -1 0
Width: 698
Flags: W
LayerCount: 2
Fore
SplineSet
645 0 m 1,0,-1
 53 0 l 1,1,-1
 53 809 l 1,2,-1
 645 809 l 1,3,-1
 645 0 l 1,0,-1
609 31 m 1,4,-1
 609 778 l 1,5,-1
 89 778 l 1,6,-1
 89 31 l 1,7,-1
 609 31 l 1,4,-1
EndSplineSet
EndChar

StartChar: exclam
Encoding: 33 33 2
Width: 168
Flags: W
LayerCount: 2
Fore
SplineSet
96 139 m 1,0,-1
 40 139 l 1,1,-1
 105 476 l 1,2,-1
 177 476 l 1,3,-1
 96 139 l 1,0,-1
96 39 m 256,4,5
 92 19 92 19 75 5 c 128,-1,6
 58 -9 58 -9 38 -9 c 256,7,8
 18 -9 18 -9 7.5 5 c 128,-1,9
 -3 19 -3 19 0 39 c 0,10,11
 4 59 4 59 21 73 c 128,-1,12
 38 87 38 87 58 87 c 256,13,14
 78 87 78 87 89 73 c 128,-1,15
 100 59 100 59 96 39 c 256,4,5
EndSplineSet
EndChar

StartChar: quotedbl
Encoding: 34 34 3
Width: 291
Flags: W
LayerCount: 2
Fore
SplineSet
255 333 m 1,0,-1
 209 333 l 1,1,-1
 237 526 l 1,2,-1
 308 526 l 1,3,-1
 255 333 l 1,0,-1
133 333 m 1,4,-1
 88 333 l 1,5,-1
 116 526 l 1,6,-1
 187 526 l 1,7,-1
 133 333 l 1,4,-1
EndSplineSet
EndChar

StartChar: numbersign
Encoding: 35 35 4
Width: 462
Flags: W
LayerCount: 2
Fore
SplineSet
278 0 m 1,0,-1
 219 0 l 1,1,-1
 269 142 l 1,2,-1
 140 142 l 1,3,-1
 93 0 l 1,4,-1
 34 0 l 1,5,-1
 81 142 l 1,6,-1
 19 142 l 1,7,-1
 30 195 l 1,8,-1
 99 195 l 1,9,-1
 130 284 l 1,10,-1
 62 284 l 1,11,-1
 73 338 l 1,12,-1
 147 338 l 1,13,-1
 195 475 l 1,14,-1
 252 475 l 1,15,-1
 206 338 l 1,16,-1
 333 338 l 1,17,-1
 379 475 l 1,18,-1
 438 475 l 1,19,-1
 392 338 l 1,20,-1
 455 338 l 1,21,-1
 444 284 l 1,22,-1
 373 284 l 1,23,-1
 343 195 l 1,24,-1
 410 195 l 1,25,-1
 399 142 l 1,26,-1
 327 142 l 1,27,-1
 278 0 l 1,0,-1
285 195 m 1,28,-1
 316 284 l 1,29,-1
 188 284 l 1,30,-1
 158 195 l 1,31,-1
 285 195 l 1,28,-1
EndSplineSet
EndChar

StartChar: dollar
Encoding: 36 36 5
Width: 367
Flags: W
LayerCount: 2
Fore
SplineSet
309 138 m 0,0,1
 300 96 300 96 262.5 62 c 128,-1,2
 225 28 225 28 172 17 c 1,3,-1
 157 -55 l 1,4,-1
 98 -55 l 1,5,-1
 113 15 l 1,6,7
 48 21 48 21 10 56 c 1,8,-1
 48 104 l 1,9,10
 84 69 84 69 145 69 c 0,11,12
 185 69 185 69 213 87.5 c 128,-1,13
 241 106 241 106 247 136 c 0,14,15
 257 183 257 183 184 217 c 0,16,17
 68 271 68 271 84 344 c 0,18,19
 93 387 93 387 128 418 c 128,-1,20
 163 449 163 449 215 459 c 1,21,-1
 231 533 l 1,22,-1
 289 533 l 1,23,-1
 273 460 l 1,24,25
 319 454 319 454 362 427 c 1,26,-1
 322 378 l 1,27,28
 294 407 294 407 235 407 c 0,29,30
 202 407 202 407 176.5 391.5 c 128,-1,31
 151 376 151 376 146 349 c 0,32,33
 138 311 138 311 217 272 c 0,34,35
 277 243 277 243 297.5 213 c 128,-1,36
 318 183 318 183 309 138 c 0,0,1
EndSplineSet
EndChar

StartChar: percent
Encoding: 37 37 6
Width: 688
Flags: W
LayerCount: 2
Fore
SplineSet
171 -9 m 1,0,-1
 110 -9 l 1,1,-1
 518 476 l 1,2,-1
 579 476 l 1,3,-1
 171 -9 l 1,0,-1
303 338 m 0,4,5
 272 192 272 192 153 192 c 0,6,7
 35 192 35 192 66 338 c 0,8,9
 98 485 98 485 216 485 c 0,10,11
 335 485 335 485 303 338 c 0,4,5
244 338 m 0,12,13
 264 432 264 432 204 432 c 0,14,15
 146 432 146 432 126 338 c 0,16,17
 107 246 107 246 165 246 c 0,18,19
 225 246 225 246 244 338 c 0,12,13
634 139 m 0,20,21
 603 -8 603 -8 483 -8 c 0,22,23
 364 -8 364 -8 395 139 c 0,24,25
 426 285 426 285 545 285 c 0,26,27
 665 285 665 285 634 139 c 0,20,21
574 139 m 0,28,29
 594 233 594 233 534 233 c 0,30,31
 475 233 475 233 455 139 c 0,32,33
 435 46 435 46 494 46 c 0,34,35
 554 46 554 46 574 139 c 0,28,29
EndSplineSet
EndChar

StartChar: ampersand
Encoding: 38 38 7
Width: 486
Flags: W
LayerCount: 2
Fore
SplineSet
373 -14 m 1,0,-1
 318 48 l 1,1,2
 227 -9 227 -9 146 -9 c 0,3,4
 78 -9 78 -9 42 33 c 128,-1,5
 6 75 6 75 19 134 c 0,6,7
 38 223 38 223 144 275 c 1,8,9
 117 323 117 323 127 368 c 0,10,11
 138 420 138 420 182 456 c 128,-1,12
 226 492 226 492 283 492 c 0,13,14
 332 492 332 492 357.5 462.5 c 128,-1,15
 383 433 383 433 373 387 c 0,16,17
 356 308 356 308 231 255 c 1,18,19
 265 205 265 205 330 126 c 1,20,21
 393 190 393 190 416 266 c 1,22,-1
 469 266 l 1,23,24
 432 158 432 158 364 89 c 1,25,26
 402 46 402 46 432 14 c 1,27,-1
 373 -14 l 1,0,-1
314 384 m 0,28,29
 326 441 326 441 269 441 c 0,30,31
 239 441 239 441 217 421 c 128,-1,32
 195 401 195 401 189 372 c 0,33,34
 182 343 182 343 210 298 c 1,35,36
 305 341 305 341 314 384 c 0,28,29
286 85 m 1,37,38
 286 85 286 85 172 233 c 1,39,40
 95 194 95 194 83 138 c 0,41,42
 74 97 74 97 97.5 71 c 128,-1,43
 121 45 121 45 165 45 c 0,44,45
 231 45 231 45 286 85 c 1,37,38
EndSplineSet
EndChar

StartChar: quotesingle
Encoding: 39 39 8
Width: 169
Flags: W
LayerCount: 2
Fore
SplineSet
133 333 m 1,0,-1
 88 333 l 1,1,-1
 116 526 l 1,2,-1
 187 526 l 1,3,-1
 133 333 l 1,0,-1
EndSplineSet
EndChar

StartChar: parenleft
Encoding: 40 40 9
Width: 244
Flags: W
LayerCount: 2
Fore
SplineSet
106 -55 m 1,0,1
 14 67 14 67 49 235 c 1,2,3
 83 392 83 392 227 530 c 1,4,-1
 301 530 l 1,5,6
 145 391 145 391 111 235 c 1,7,8
 80 87 80 87 176 -55 c 1,9,-1
 106 -55 l 1,0,1
EndSplineSet
EndChar

StartChar: parenright
Encoding: 41 41 10
Width: 244
Flags: W
LayerCount: 2
Fore
SplineSet
205 238 m 0,0,1
 170 74 170 74 25 -55 c 1,2,-1
 -43 -55 l 1,3,4
 112 94 112 94 143 238 c 0,5,6
 174 383 174 383 79 530 c 1,7,-1
 148 530 l 1,8,9
 240 403 240 403 205 238 c 0,0,1
EndSplineSet
EndChar

StartChar: asterisk
Encoding: 42 42 11
Width: 343
Flags: W
LayerCount: 2
Fore
SplineSet
280 277 m 1,0,-1
 223 247 l 1,1,-1
 197 333 l 1,2,-1
 135 247 l 1,3,-1
 90 277 l 1,4,-1
 169 354 l 1,5,-1
 68 345 l 1,6,-1
 79 397 l 1,7,-1
 176 389 l 1,8,-1
 131 466 l 1,9,-1
 188 496 l 1,10,-1
 214 410 l 1,11,-1
 276 496 l 1,12,-1
 321 466 l 1,13,-1
 242 389 l 1,14,-1
 343 397 l 1,15,-1
 332 346 l 1,16,-1
 235 354 l 1,17,-1
 280 277 l 1,0,-1
EndSplineSet
EndChar

StartChar: plus
Encoding: 43 43 12
Width: 417
Flags: W
LayerCount: 2
Fore
SplineSet
196 0 m 1,0,-1
 133 0 l 1,1,-1
 166 157 l 1,2,-1
 18 157 l 1,3,-1
 30 212 l 1,4,-1
 178 212 l 1,5,-1
 210 363 l 1,6,-1
 273 363 l 1,7,-1
 241 212 l 1,8,-1
 389 212 l 1,9,-1
 377 157 l 1,10,-1
 229 157 l 1,11,-1
 196 0 l 1,0,-1
EndSplineSet
EndChar

StartChar: comma
Encoding: 44 44 13
Width: 172
Flags: W
LayerCount: 2
Fore
SplineSet
100 37 m 0,0,1
 79 -62 79 -62 -20 -107 c 1,2,-1
 -35 -78 l 1,3,4
 24 -46 24 -46 40 -8 c 1,5,6
 -7 -5 -7 -5 2 42 c 0,7,8
 7 63 7 63 24.5 77.5 c 128,-1,9
 42 92 42 92 62 92 c 0,10,11
 83 92 83 92 94 76.5 c 128,-1,12
 105 61 105 61 100 37 c 0,0,1
EndSplineSet
EndChar

StartChar: hyphen
Encoding: 45 45 14
AltUni2: 0000ad.ffffffff.0
Width: 226
Flags: W
LayerCount: 2
Fore
SplineSet
191 157 m 1,0,-1
 -7 157 l 1,1,-1
 14 211 l 1,2,-1
 213 211 l 1,3,-1
 191 157 l 1,0,-1
EndSplineSet
EndChar

StartChar: period
Encoding: 46 46 15
Width: 172
Flags: W
LayerCount: 2
Fore
SplineSet
98 39 m 256,0,1
 94 19 94 19 77 5 c 128,-1,2
 60 -9 60 -9 40 -9 c 256,3,4
 20 -9 20 -9 9.5 5 c 128,-1,5
 -1 19 -1 19 2 39 c 0,6,7
 6 59 6 59 23 73 c 128,-1,8
 40 87 40 87 60 87 c 256,9,10
 80 87 80 87 91 73 c 128,-1,11
 102 59 102 59 98 39 c 256,0,1
EndSplineSet
EndChar

StartChar: slash
Encoding: 47 47 16
Width: 276
Flags: W
LayerCount: 2
Fore
SplineSet
-15 -28 m 1,0,-1
 -79 -28 l 1,1,-1
 297 492 l 1,2,-1
 361 492 l 1,3,-1
 -15 -28 l 1,0,-1
EndSplineSet
EndChar

StartChar: zero
Encoding: 48 48 17
Width: 378
Flags: W
LayerCount: 2
Fore
SplineSet
354 235 m 0,0,1
 333 134 333 134 276 62.5 c 128,-1,2
 219 -9 219 -9 141 -9 c 0,3,4
 66 -9 66 -9 39 62.5 c 128,-1,5
 12 134 12 134 33 235 c 0,6,7
 55 336 55 336 112 407.5 c 128,-1,8
 169 479 169 479 244 479 c 0,9,10
 322 479 322 479 349 407.5 c 128,-1,11
 376 336 376 336 354 235 c 0,0,1
290 235 m 0,12,13
 308 319 308 319 295.5 371.5 c 128,-1,14
 283 424 283 424 235 424 c 0,15,16
 186 424 186 424 150.5 371.5 c 128,-1,17
 115 319 115 319 97 235 c 0,18,19
 80 151 80 151 92.5 98.5 c 128,-1,20
 105 46 105 46 153 46 c 0,21,22
 202 46 202 46 237.5 98.5 c 128,-1,23
 273 151 273 151 290 235 c 0,12,13
EndSplineSet
EndChar

StartChar: one
Encoding: 49 49 18
Width: 378
Flags: W
LayerCount: 2
Fore
SplineSet
263 0 m 1,0,-1
 52 0 l 1,1,-1
 62 51 l 1,2,-1
 136 51 l 1,3,-1
 207 383 l 1,4,-1
 133 330 l 1,5,-1
 104 371 l 1,6,-1
 254 478 l 1,7,8
 291 478 291 478 281 430 c 2,9,-1
 200 51 l 1,10,-1
 273 51 l 1,11,-1
 263 0 l 1,0,-1
EndSplineSet
EndChar

StartChar: two
Encoding: 50 50 19
Width: 378
Flags: W
LayerCount: 2
Fore
SplineSet
304 0 m 1,0,-1
 -20 0 l 1,1,2
 -2 44 -2 44 12 72 c 1,3,4
 45 104 45 104 204 228 c 0,5,6
 302 305 302 305 313 354 c 0,7,8
 327 420 327 420 249 420 c 0,9,10
 172 420 172 420 138 331 c 1,11,-1
 82 346 l 1,12,13
 103 410 103 410 153 445 c 0,14,15
 200 478 200 478 262 478 c 0,16,17
 323 478 323 478 355.5 442 c 128,-1,18
 388 406 388 406 376 351 c 0,19,20
 366 302 366 302 301 240 c 0,21,22
 261 203 261 203 172 137 c 0,23,24
 92 78 92 78 72 56 c 1,25,-1
 327 56 l 1,26,-1
 304 0 l 1,0,-1
EndSplineSet
EndChar

StartChar: three
Encoding: 51 51 20
Width: 378
Flags: W
LayerCount: 2
Fore
SplineSet
336 165 m 0,0,1
 319 87 319 87 253.5 39.5 c 128,-1,2
 188 -8 188 -8 98 -8 c 0,3,4
 30 -8 30 -8 -10 34 c 1,5,-1
 28 85 l 1,6,7
 66 53 66 53 121 53 c 0,8,9
 173 53 173 53 218 86 c 128,-1,10
 263 119 263 119 272 163 c 0,11,12
 279 195 279 195 263 217 c 128,-1,13
 247 239 247 239 216 239 c 0,14,15
 179 239 179 239 139 210 c 1,16,-1
 121 254 l 1,17,18
 176 282 176 282 222 317 c 0,19,20
 276 359 276 359 281 385 c 0,21,22
 290 424 290 424 235 424 c 0,23,24
 199 424 199 424 163.5 401 c 128,-1,25
 128 378 128 378 108 347 c 1,26,-1
 68 370 l 1,27,28
 98 420 98 420 146.5 449 c 128,-1,29
 195 478 195 478 249 478 c 0,30,31
 297 478 297 478 323.5 453 c 128,-1,32
 350 428 350 428 342 386 c 1,33,34
 333 345 333 345 260 292 c 1,35,36
 305 283 305 283 325.5 249 c 128,-1,37
 346 215 346 215 336 165 c 0,0,1
EndSplineSet
EndChar

StartChar: four
Encoding: 52 52 21
Width: 378
Flags: W
LayerCount: 2
Fore
SplineSet
219 160 m 1,0,-1
 270 404 l 1,1,2
 216 373 216 373 162.5 303 c 128,-1,3
 109 233 109 233 81 160 c 1,4,-1
 219 160 l 1,0,-1
249 0 m 1,5,-1
 185 0 l 1,6,-1
 207 106 l 1,7,-1
 6 106 l 1,8,9
 33 231 33 231 138.5 355.5 c 128,-1,10
 244 480 244 480 352 489 c 1,11,-1
 283 160 l 1,12,-1
 347 160 l 1,13,-1
 328 106 l 1,14,-1
 271 106 l 1,15,-1
 249 0 l 1,5,-1
EndSplineSet
EndChar

StartChar: five
Encoding: 53 53 22
Width: 378
Flags: W
LayerCount: 2
Fore
SplineSet
337 168 m 0,0,1
 321 90 321 90 255.5 41 c 128,-1,2
 190 -8 190 -8 103 -8 c 0,3,4
 29 -8 29 -8 -10 35 c 1,5,-1
 26 81 l 1,6,7
 74 46 74 46 121 46 c 0,8,9
 173 46 173 46 217.5 80.5 c 128,-1,10
 262 115 262 115 273 167 c 0,11,12
 282 210 282 210 259 233.5 c 128,-1,13
 236 257 236 257 189 257 c 256,14,15
 142 257 142 257 121 224 c 1,16,-1
 81 222 l 1,17,-1
 152 476 l 1,18,-1
 390 476 l 1,19,-1
 367 422 l 1,20,-1
 201 422 l 1,21,-1
 170 306 l 1,22,23
 189 314 189 314 214 314 c 0,24,25
 280 314 280 314 315.5 273 c 128,-1,26
 351 232 351 232 337 168 c 0,0,1
EndSplineSet
EndChar

StartChar: six
Encoding: 54 54 23
Width: 378
Flags: W
LayerCount: 2
Fore
SplineSet
328 150 m 0,0,1
 314 83 314 83 264 37.5 c 128,-1,2
 214 -8 214 -8 151 -8 c 0,3,4
 81 -8 81 -8 46 41 c 128,-1,5
 11 90 11 90 28 171 c 0,6,7
 52 286 52 286 147 374 c 128,-1,8
 242 462 242 462 369 486 c 1,9,-1
 364 436 l 1,10,11
 298 419 298 419 231.5 374.5 c 128,-1,12
 165 330 165 330 128 275 c 1,13,14
 166 306 166 306 220 306 c 0,15,16
 280 306 280 306 311 261 c 128,-1,17
 342 216 342 216 328 150 c 0,0,1
270 150 m 0,18,19
 279 190 279 190 259.5 221 c 128,-1,20
 240 252 240 252 204 252 c 0,21,22
 166 252 166 252 133.5 222.5 c 128,-1,23
 101 193 101 193 91 150 c 0,24,25
 82 108 82 108 102.5 78 c 128,-1,26
 123 48 123 48 161 48 c 0,27,28
 197 48 197 48 229.5 79 c 128,-1,29
 262 110 262 110 270 150 c 0,18,19
EndSplineSet
EndChar

StartChar: seven
Encoding: 55 55 24
Width: 378
Flags: W
LayerCount: 2
Fore
SplineSet
153 0 m 1,0,-1
 88 0 l 1,1,2
 155 279 155 279 318 422 c 1,3,-1
 73 422 l 1,4,-1
 100 476 l 1,5,-1
 411 476 l 1,6,-1
 390 422 l 1,7,8
 293 326 293 326 241 238 c 0,9,10
 182 137 182 137 153 0 c 1,0,-1
EndSplineSet
EndChar

StartChar: eight
Encoding: 56 56 25
Width: 378
Flags: W
LayerCount: 2
Fore
SplineSet
269 131 m 0,0,1
 277 168 277 168 258.5 198 c 128,-1,2
 240 228 240 228 194 231 c 1,3,4
 146 228 146 228 114.5 198 c 128,-1,5
 83 168 83 168 75 131 c 0,6,7
 67 92 67 92 89 69 c 128,-1,8
 111 46 111 46 154 46 c 256,9,10
 197 46 197 46 229 69 c 128,-1,11
 261 92 261 92 269 131 c 0,0,1
303 355 m 0,12,13
 309 385 309 385 290.5 405 c 128,-1,14
 272 425 272 425 235 425 c 256,15,16
 198 425 198 425 170.5 405 c 128,-1,17
 143 385 143 385 137 355 c 0,18,19
 127 306 127 306 204 283 c 1,20,21
 293 306 293 306 303 355 c 0,12,13
331 134 m 0,22,23
 317 68 317 68 266 30 c 128,-1,24
 215 -8 215 -8 142 -8 c 0,25,26
 70 -8 70 -8 35.5 30 c 128,-1,27
 1 68 1 68 15 134 c 0,28,29
 23 174 23 174 53 208 c 128,-1,30
 83 242 83 242 121 258 c 1,31,32
 64 293 64 293 76 352 c 0,33,34
 88 407 88 407 136 443 c 128,-1,35
 184 479 184 479 246 479 c 256,36,37
 308 479 308 479 341 443 c 128,-1,38
 374 407 374 407 362 352 c 0,39,40
 350 293 350 293 277 258 c 1,41,42
 309 242 309 242 324 208 c 128,-1,43
 339 174 339 174 331 134 c 0,22,23
EndSplineSet
EndChar

StartChar: nine
Encoding: 57 57 26
Width: 378
Flags: W
LayerCount: 2
Fore
SplineSet
360 299 m 0,0,1
 336 184 336 184 241 96 c 128,-1,2
 146 8 146 8 19 -16 c 1,3,-1
 24 34 l 1,4,5
 88 50 88 50 159 98 c 128,-1,6
 230 146 230 146 264 196 c 1,7,8
 228 164 228 164 168 164 c 256,9,10
 108 164 108 164 76.5 209 c 128,-1,11
 45 254 45 254 60 320 c 1,12,13
 74 387 74 387 124 432.5 c 128,-1,14
 174 478 174 478 237 478 c 0,15,16
 307 478 307 478 342 429 c 128,-1,17
 377 380 377 380 360 299 c 0,0,1
297 320 m 1,18,19
 305 362 305 362 285 392 c 128,-1,20
 265 422 265 422 227 422 c 0,21,22
 191 422 191 422 158.5 391 c 128,-1,23
 126 360 126 360 118 320 c 0,24,25
 109 280 109 280 128.5 249 c 128,-1,26
 148 218 148 218 184 218 c 0,27,28
 222 218 222 218 254.5 247.5 c 128,-1,29
 287 277 287 277 297 320 c 1,18,19
EndSplineSet
EndChar

StartChar: colon
Encoding: 58 58 27
Width: 172
Flags: W
LayerCount: 2
Fore
SplineSet
98 39 m 256,0,1
 94 19 94 19 77 5 c 128,-1,2
 60 -9 60 -9 40 -9 c 256,3,4
 20 -9 20 -9 9.5 5 c 128,-1,5
 -1 19 -1 19 2 39 c 0,6,7
 6 59 6 59 23 73 c 128,-1,8
 40 87 40 87 60 87 c 256,9,10
 80 87 80 87 91 73 c 128,-1,11
 102 59 102 59 98 39 c 256,0,1
150 285 m 256,12,13
 146 265 146 265 129 251 c 128,-1,14
 112 237 112 237 92 237 c 256,15,16
 72 237 72 237 61 251 c 128,-1,17
 50 265 50 265 54 285 c 256,18,19
 58 305 58 305 75 319 c 128,-1,20
 92 333 92 333 112 333 c 256,21,22
 132 333 132 333 143 319 c 128,-1,23
 154 305 154 305 150 285 c 256,12,13
EndSplineSet
EndChar

StartChar: semicolon
Encoding: 59 59 28
Width: 172
Flags: W
LayerCount: 2
Fore
SplineSet
150 285 m 256,0,1
 146 265 146 265 129 251 c 128,-1,2
 112 237 112 237 92 237 c 256,3,4
 72 237 72 237 61 251 c 128,-1,5
 50 265 50 265 54 285 c 256,6,7
 58 305 58 305 75 319 c 128,-1,8
 92 333 92 333 112 333 c 256,9,10
 132 333 132 333 143 319 c 128,-1,11
 154 305 154 305 150 285 c 256,0,1
100 37 m 0,12,13
 79 -62 79 -62 -20 -107 c 1,14,-1
 -35 -78 l 1,15,16
 24 -46 24 -46 40 -8 c 1,17,18
 -7 -5 -7 -5 2 42 c 0,19,20
 7 63 7 63 24.5 77.5 c 128,-1,21
 42 92 42 92 62 92 c 0,22,23
 83 92 83 92 94 76.5 c 128,-1,24
 105 61 105 61 100 37 c 0,12,13
EndSplineSet
EndChar

StartChar: less
Encoding: 60 60 29
Width: 417
Flags: W
LayerCount: 2
Fore
SplineSet
334 -10 m 1,0,-1
 28 170 l 1,1,-1
 36 211 l 1,2,-1
 419 390 l 1,3,-1
 406 327 l 1,4,-1
 112 190 l 1,5,-1
 348 53 l 1,6,-1
 334 -10 l 1,0,-1
EndSplineSet
EndChar

StartChar: equal
Encoding: 61 61 30
Width: 417
Flags: W
LayerCount: 2
Fore
SplineSet
374 223 m 1,0,-1
 49 223 l 1,1,-1
 60 275 l 1,2,-1
 385 275 l 1,3,-1
 374 223 l 1,0,-1
347 97 m 1,4,-1
 22 97 l 1,5,-1
 33 150 l 1,6,-1
 358 150 l 1,7,-1
 347 97 l 1,4,-1
EndSplineSet
EndChar

StartChar: greater
Encoding: 62 62 31
Width: 417
Flags: W
LayerCount: 2
Fore
SplineSet
373 170 m 1,0,-1
 -10 -10 l 1,1,-1
 3 53 l 1,2,-1
 298 191 l 1,3,-1
 61 327 l 1,4,-1
 74 390 l 1,5,-1
 381 211 l 1,6,-1
 373 170 l 1,0,-1
EndSplineSet
EndChar

StartChar: question
Encoding: 63 63 32
Width: 289
Flags: W
LayerCount: 2
Fore
SplineSet
299 371 m 0,0,1
 288 317 288 317 208 250 c 0,2,3
 153 205 153 205 142 159 c 0,4,5
 139 144 139 144 140 117 c 1,6,-1
 83 117 l 1,7,8
 80 147 80 147 83 162 c 0,9,10
 93 211 93 211 161 274 c 128,-1,11
 229 337 229 337 236 369 c 0,12,13
 248 426 248 426 178 426 c 0,14,15
 135 426 135 426 89 397 c 1,16,-1
 74 446 l 1,17,18
 141 483 141 483 197 483 c 0,19,20
 254 483 254 483 282 452.5 c 128,-1,21
 310 422 310 422 299 371 c 0,0,1
147 39 m 256,22,23
 143 19 143 19 126 5 c 128,-1,24
 109 -9 109 -9 89 -9 c 256,25,26
 69 -9 69 -9 58 5 c 128,-1,27
 47 19 47 19 51 39 c 256,28,29
 55 59 55 59 72 73 c 128,-1,30
 89 87 89 87 109 87 c 256,31,32
 129 87 129 87 140 73 c 128,-1,33
 151 59 151 59 147 39 c 256,22,23
EndSplineSet
EndChar

StartChar: at
Encoding: 64 64 33
Width: 572
Flags: W
LayerCount: 2
Fore
SplineSet
533 177 m 0,0,1
 516 97 516 97 448 49 c 0,2,3
 388 7 388 7 318 7 c 1,4,-1
 320 43 l 1,5,6
 264 1 264 1 204 1 c 0,7,8
 161 1 161 1 135.5 25.5 c 128,-1,9
 110 50 110 50 118 87 c 0,10,11
 141 196 141 196 341 201 c 1,12,13
 357 277 357 277 285 277 c 0,14,15
 246 277 246 277 209 256 c 1,16,-1
 199 291 l 1,17,18
 253 319 253 319 310 319 c 0,19,20
 363 319 363 319 384 284 c 128,-1,21
 405 249 405 249 393 189 c 2,22,-1
 371 85 l 2,23,24
 366 62 366 62 365 53 c 1,25,-1
 377 53 l 1,26,27
 414 63 414 63 445.5 98.5 c 128,-1,28
 477 134 477 134 486 175 c 0,29,30
 502 252 502 252 461 303.5 c 128,-1,31
 420 355 420 355 333 355 c 0,32,33
 235 355 235 355 160 292.5 c 128,-1,34
 85 230 85 230 65 136 c 0,35,36
 48 54 48 54 91 0 c 128,-1,37
 134 -54 134 -54 214 -54 c 0,38,39
 275 -54 275 -54 343 -22 c 1,40,-1
 353 -62 l 1,41,42
 276 -95 276 -95 202 -95 c 0,43,44
 104 -95 104 -95 50 -31 c 0,45,46
 -6 34 -6 34 14 133 c 1,47,48
 38 246 38 246 133 321 c 128,-1,49
 228 396 228 396 347 396 c 0,50,51
 449 396 449 396 501.5 334.5 c 128,-1,52
 554 273 554 273 533 177 c 0,0,1
324 107 m 2,53,-1
 336 163 l 1,54,55
 183 157 183 157 169 92 c 0,56,57
 159 45 159 45 214 45 c 0,58,59
 251 45 251 45 282 61 c 0,60,61
 318 79 318 79 324 107 c 2,53,-1
EndSplineSet
EndChar

StartChar: A
Encoding: 65 65 34
Width: 451
Flags: W
LayerCount: 2
Fore
SplineSet
408 0 m 1,0,-1
 339 0 l 1,1,-1
 309 159 l 1,2,-1
 118 159 l 1,3,-1
 23 0 l 1,4,-1
 -45 0 l 1,5,-1
 257 483 l 1,6,-1
 311 483 l 1,7,-1
 408 0 l 1,0,-1
297 213 m 1,8,-1
 269 411 l 1,9,-1
 153 213 l 1,10,-1
 297 213 l 1,8,-1
EndSplineSet
EndChar

StartChar: B
Encoding: 66 66 35
Width: 396
Flags: W
LayerCount: 2
Fore
SplineSet
351 138 m 0,0,1
 320 -6 320 -6 108 -6 c 0,2,3
 63 -6 63 -6 7 7 c 1,4,-1
 105 467 l 1,5,6
 170 482 170 482 222 482 c 0,7,8
 405 482 405 482 378 356 c 0,9,10
 365 292 365 292 297 255 c 1,11,12
 368 218 368 218 351 138 c 0,0,1
315 355 m 0,13,14
 330 427 330 427 210 427 c 0,15,16
 189 427 189 427 159 424 c 1,17,-1
 128 278 l 1,18,-1
 199 278 l 2,19,20
 243 278 243 278 275 298.5 c 128,-1,21
 307 319 307 319 315 355 c 0,13,14
289 137 m 1,22,23
 299 185 299 185 258 208 c 0,24,25
 226 225 226 225 174 225 c 2,26,-1
 116 225 l 1,27,-1
 79 51 l 1,28,29
 96 48 96 48 129 48 c 0,30,31
 194 48 194 48 236.5 71 c 128,-1,32
 279 94 279 94 289 137 c 1,22,23
EndSplineSet
EndChar

StartChar: C
Encoding: 67 67 36
Width: 432
Flags: W
LayerCount: 2
Fore
SplineSet
371 25 m 1,0,1
 291 -7 291 -7 190 -7 c 0,2,3
 95 -7 95 -7 52 60.5 c 128,-1,4
 9 128 9 128 32 237 c 0,5,6
 55 345 55 345 125 411 c 0,7,8
 202 483 202 483 313 483 c 0,9,10
 398 483 398 483 462 454 c 1,11,-1
 431 404 l 1,12,13
 377 429 377 429 304 429 c 0,14,15
 212 429 212 429 154 361 c 0,16,17
 112 311 112 311 95 235 c 1,18,19
 81 165 81 165 105 113 c 1,20,21
 134 47 134 47 214 47 c 0,22,23
 297 47 297 47 365 77 c 1,24,-1
 371 25 l 1,0,1
EndSplineSet
EndChar

StartChar: D
Encoding: 68 68 37
Width: 459
Flags: W
LayerCount: 2
Fore
SplineSet
441 248 m 0,0,1
 418 140 418 140 352 75 c 0,2,3
 272 -4 272 -4 139 -4 c 0,4,5
 98 -4 98 -4 7 6 c 1,6,-1
 105 468 l 1,7,8
 222 481 222 481 262 481 c 0,9,10
 384 481 384 481 427 408 c 1,11,12
 463 349 463 349 441 248 c 0,0,1
377 248 m 0,13,14
 415 427 415 427 247 427 c 0,15,16
 219 427 219 427 158 421 c 1,17,-1
 80 53 l 1,18,19
 112 50 112 50 162 50 c 0,20,21
 259 50 259 50 318 119 c 0,22,23
 361 170 361 170 377 248 c 0,13,14
EndSplineSet
EndChar

StartChar: E
Encoding: 69 69 38
Width: 358
Flags: W
LayerCount: 2
Fore
SplineSet
289 0 m 1,0,-1
 6 0 l 1,1,-1
 107 476 l 1,2,-1
 390 476 l 1,3,-1
 378 422 l 1,4,-1
 158 422 l 1,5,-1
 128 278 l 1,6,-1
 324 278 l 1,7,-1
 312 224 l 1,8,-1
 116 224 l 1,9,-1
 80 54 l 1,10,-1
 300 54 l 1,11,-1
 289 0 l 1,0,-1
EndSplineSet
EndChar

StartChar: F
Encoding: 70 70 39
Width: 358
Flags: W
LayerCount: 2
Fore
SplineSet
69 0 m 1,0,-1
 6 0 l 1,1,-1
 107 476 l 1,2,-1
 400 476 l 1,3,-1
 388 422 l 1,4,-1
 158 422 l 1,5,-1
 126 272 l 1,6,-1
 342 272 l 1,7,-1
 331 219 l 1,8,-1
 115 219 l 1,9,-1
 69 0 l 1,0,-1
EndSplineSet
EndChar

StartChar: G
Encoding: 71 71 40
Width: 454
Flags: W
LayerCount: 2
Fore
SplineSet
372 11 m 1,0,-1
 342 19 l 1,1,2
 278 -7 278 -7 190 -7 c 0,3,4
 95 -7 95 -7 52 60.5 c 128,-1,5
 9 128 9 128 32 237 c 0,6,7
 55 345 55 345 125 411 c 0,8,9
 202 483 202 483 313 483 c 0,10,11
 398 483 398 483 462 454 c 1,12,-1
 431 404 l 1,13,14
 377 429 377 429 304 429 c 0,15,16
 212 429 212 429 154 361 c 0,17,18
 112 311 112 311 95 235 c 1,19,20
 81 165 81 165 105 113 c 1,21,22
 134 47 134 47 214 47 c 0,23,24
 273 47 273 47 320 63 c 1,25,-1
 349 198 l 1,26,-1
 229 198 l 1,27,-1
 240 251 l 1,28,-1
 423 251 l 1,29,-1
 372 11 l 1,0,-1
EndSplineSet
EndChar

StartChar: H
Encoding: 72 72 41
Width: 472
Flags: W
LayerCount: 2
Fore
SplineSet
378 0 m 1,0,-1
 315 0 l 1,1,-1
 363 226 l 1,2,-1
 117 226 l 1,3,-1
 69 0 l 1,4,-1
 6 0 l 1,5,-1
 107 476 l 1,6,-1
 170 476 l 1,7,-1
 128 280 l 1,8,-1
 374 280 l 1,9,-1
 416 476 l 1,10,-1
 479 476 l 1,11,-1
 378 0 l 1,0,-1
EndSplineSet
EndChar

StartChar: I
Encoding: 73 73 42
Width: 163
Flags: W
LayerCount: 2
Fore
SplineSet
69 0 m 1,0,-1
 6 0 l 1,1,-1
 107 476 l 1,2,-1
 170 476 l 1,3,-1
 69 0 l 1,0,-1
EndSplineSet
EndChar

StartChar: J
Encoding: 74 74 43
Width: 282
Flags: W
LayerCount: 2
Fore
SplineSet
222 160 m 2,0,1
 186 -9 186 -9 33 -9 c 0,2,3
 -5 -9 -5 -9 -47 10 c 1,4,-1
 -19 62 l 1,5,6
 5 45 5 45 44 45 c 0,7,8
 91 45 91 45 118.5 73 c 128,-1,9
 146 101 146 101 161 170 c 2,10,-1
 226 476 l 1,11,-1
 289 476 l 1,12,-1
 222 160 l 2,0,1
EndSplineSet
EndChar

StartChar: K
Encoding: 75 75 44
Width: 411
Flags: W
LayerCount: 2
Fore
SplineSet
377 15 m 1,0,-1
 312 -7 l 1,1,-1
 156 229 l 1,2,-1
 109 191 l 1,3,-1
 69 0 l 1,4,-1
 6 0 l 1,5,-1
 107 476 l 1,6,-1
 170 476 l 1,7,-1
 125 266 l 1,8,-1
 398 484 l 1,9,-1
 456 468 l 1,10,-1
 208 271 l 1,11,-1
 377 15 l 1,0,-1
EndSplineSet
EndChar

StartChar: L
Encoding: 76 76 45
Width: 359
Flags: W
LayerCount: 2
Fore
SplineSet
302 0 m 1,0,-1
 6 0 l 1,1,-1
 107 476 l 1,2,-1
 170 476 l 1,3,-1
 80 54 l 1,4,-1
 313 54 l 1,5,-1
 302 0 l 1,0,-1
EndSplineSet
EndChar

StartChar: M
Encoding: 77 77 46
Width: 574
Flags: W
LayerCount: 2
Fore
SplineSet
501 0 m 1,0,-1
 440 0 l 1,1,-1
 492 369 l 1,2,-1
 264 0 l 1,3,-1
 222 0 l 1,4,-1
 150 369 l 1,5,-1
 46 0 l 1,6,-1
 -15 0 l 1,7,-1
 120 476 l 1,8,-1
 186 476 l 1,9,-1
 260 80 l 1,10,-1
 502 476 l 1,11,-1
 568 476 l 1,12,-1
 501 0 l 1,0,-1
EndSplineSet
EndChar

StartChar: N
Encoding: 78 78 47
Width: 472
Flags: W
LayerCount: 2
Fore
SplineSet
378 0 m 1,0,-1
 318 0 l 1,1,-1
 151 386 l 1,2,-1
 69 0 l 1,3,-1
 6 0 l 1,4,-1
 107 476 l 1,5,-1
 170 476 l 1,6,-1
 336 100 l 1,7,-1
 416 476 l 1,8,-1
 479 476 l 1,9,-1
 378 0 l 1,0,-1
EndSplineSet
EndChar

StartChar: O
Encoding: 79 79 48
Width: 518
Flags: W
LayerCount: 2
Fore
SplineSet
436 238 m 0,0,1
 454 320 454 320 418.5 375.5 c 128,-1,2
 383 431 383 431 306 431 c 256,3,4
 229 431 229 431 170.5 375.5 c 128,-1,5
 112 320 112 320 94 238 c 0,6,7
 77 156 77 156 112 100.5 c 128,-1,8
 147 45 147 45 224 45 c 256,9,10
 301 45 301 45 360 100.5 c 128,-1,11
 419 156 419 156 436 238 c 0,0,1
498 237 m 256,12,13
 476 132 476 132 395.5 61 c 128,-1,14
 315 -10 315 -10 212 -10 c 256,15,16
 109 -10 109 -10 59.5 61 c 128,-1,17
 10 132 10 132 32 237 c 256,18,19
 54 342 54 342 134.5 413.5 c 128,-1,20
 215 485 215 485 318 485 c 256,21,22
 421 485 421 485 470.5 413.5 c 128,-1,23
 520 342 520 342 498 237 c 256,12,13
EndSplineSet
EndChar

StartChar: P
Encoding: 80 80 49
Width: 390
Flags: W
LayerCount: 2
Fore
SplineSet
393 339 m 0,0,1
 378 270 378 270 313.5 227.5 c 128,-1,2
 249 185 249 185 158 185 c 0,3,4
 135 185 135 185 108 188 c 1,5,-1
 69 0 l 1,6,-1
 6 0 l 1,7,-1
 105 469 l 1,8,9
 180 481 180 481 235 481 c 0,10,11
 323 481 323 481 364.5 441.5 c 128,-1,12
 406 402 406 402 393 339 c 0,0,1
329 336 m 0,13,14
 348 427 348 427 222 427 c 0,15,16
 188 427 188 427 159 424 c 1,17,-1
 121 245 l 1,18,19
 153 239 153 239 176 239 c 0,20,21
 308 239 308 239 329 336 c 0,13,14
EndSplineSet
EndChar

StartChar: Q
Encoding: 81 81 50
Width: 518
Flags: W
LayerCount: 2
Fore
SplineSet
436 238 m 0,0,1
 454 320 454 320 418.5 375.5 c 128,-1,2
 383 431 383 431 306 431 c 256,3,4
 229 431 229 431 170.5 375.5 c 128,-1,5
 112 320 112 320 94 238 c 0,6,7
 77 156 77 156 112 100.5 c 128,-1,8
 147 45 147 45 224 45 c 256,9,10
 301 45 301 45 360 100.5 c 128,-1,11
 419 156 419 156 436 238 c 0,0,1
498 237 m 0,12,13
 481 157 481 157 431 98.5 c 128,-1,14
 381 40 381 40 310 17 c 1,15,-1
 309 13 l 1,16,17
 385 -7 385 -7 448 -17 c 1,18,-1
 416 -71 l 1,19,20
 345 -51 345 -51 238 -14 c 0,21,22
 233 -12 233 -12 212 -10 c 1,23,24
 109 -10 109 -10 59.5 61 c 128,-1,25
 10 132 10 132 32 237 c 256,26,27
 54 342 54 342 134.5 413.5 c 128,-1,28
 215 485 215 485 318 485 c 256,29,30
 421 485 421 485 470.5 413.5 c 128,-1,31
 520 342 520 342 498 237 c 0,12,13
EndSplineSet
EndChar

StartChar: R
Encoding: 82 82 51
Width: 395
Flags: W
LayerCount: 2
Fore
SplineSet
336 0 m 1,0,-1
 273 0 l 1,1,2
 289 207 289 207 192 207 c 2,3,-1
 112 207 l 1,4,-1
 69 0 l 1,5,-1
 6 0 l 1,6,-1
 105 468 l 1,7,8
 180 481 180 481 237 481 c 0,9,10
 322 481 322 481 364 445 c 128,-1,11
 406 409 406 409 393 347 c 0,12,13
 376 265 376 265 290 229 c 1,14,15
 322 204 322 204 332 156 c 128,-1,16
 342 108 342 108 336 0 c 1,0,-1
331 343 m 1,17,18
 349 426 349 426 225 426 c 0,19,20
 185 426 185 426 158 423 c 1,21,-1
 124 259 l 1,22,-1
 201 259 l 2,23,24
 314 259 314 259 331 343 c 1,17,18
EndSplineSet
EndChar

StartChar: S
Encoding: 83 83 52
Width: 365
Flags: W
LayerCount: 2
Fore
SplineSet
322 130 m 0,0,1
 309 68 309 68 251.5 29.5 c 128,-1,2
 194 -9 194 -9 120 -9 c 0,3,4
 41 -9 41 -9 -17 34 c 1,5,-1
 21 91 l 1,6,7
 69 48 69 48 136 48 c 0,8,9
 185 48 185 48 217.5 69.5 c 128,-1,10
 250 91 250 91 257 127 c 0,11,12
 270 187 270 187 181 218 c 0,13,14
 49 263 49 263 69 356 c 0,15,16
 81 412 81 412 133.5 448.5 c 128,-1,17
 186 485 186 485 257 485 c 256,18,19
 328 485 328 485 373 453 c 1,20,-1
 335 403 l 1,21,22
 290 428 290 428 243 428 c 0,23,24
 200 428 200 428 169.5 408.5 c 128,-1,25
 139 389 139 389 133 361 c 0,26,27
 122 306 122 306 211 275 c 0,28,29
 284 250 284 250 309 217 c 128,-1,30
 334 184 334 184 322 130 c 0,0,1
EndSplineSet
EndChar

StartChar: T
Encoding: 84 84 53
Width: 421
Flags: W
LayerCount: 2
Fore
SplineSet
199 0 m 1,0,-1
 136 0 l 1,1,-1
 225 422 l 1,2,-1
 49 422 l 1,3,-1
 61 476 l 1,4,-1
 474 476 l 1,5,-1
 462 422 l 1,6,-1
 288 422 l 1,7,-1
 199 0 l 1,0,-1
EndSplineSet
EndChar

StartChar: U
Encoding: 85 85 54
Width: 482
Flags: W
LayerCount: 2
Fore
SplineSet
431 203 m 2,0,1
 386 -9 386 -9 195 -9 c 256,2,3
 4 -9 4 -9 49 203 c 2,4,-1
 107 476 l 1,5,-1
 171 476 l 1,6,-1
 113 203 l 2,7,8
 79 45 79 45 206 45 c 256,9,10
 333 45 333 45 367 203 c 2,11,-1
 425 476 l 1,12,-1
 489 476 l 1,13,-1
 431 203 l 2,0,1
EndSplineSet
EndChar

StartChar: V
Encoding: 86 86 55
Width: 422
Flags: W
LayerCount: 2
Fore
SplineSet
196 0 m 1,0,-1
 138 0 l 1,1,-1
 56 476 l 1,2,-1
 124 476 l 1,3,-1
 185 86 l 1,4,-1
 412 476 l 1,5,-1
 480 476 l 1,6,-1
 196 0 l 1,0,-1
EndSplineSet
EndChar

StartChar: W
Encoding: 87 87 56
Width: 612
Flags: W
LayerCount: 2
Fore
SplineSet
440 0 m 1,0,-1
 382 0 l 1,1,-1
 344 389 l 1,2,-1
 142 0 l 1,3,-1
 84 0 l 1,4,-1
 53 476 l 1,5,-1
 122 476 l 1,6,-1
 134 96 l 1,7,-1
 333 476 l 1,8,-1
 393 476 l 1,9,-1
 430 96 l 1,10,-1
 604 476 l 1,11,-1
 673 476 l 1,12,-1
 440 0 l 1,0,-1
EndSplineSet
EndChar

StartChar: X
Encoding: 88 88 57
Width: 426
Flags: W
LayerCount: 2
Fore
SplineSet
384 0 m 1,0,-1
 309 0 l 1,1,-1
 212 193 l 1,2,-1
 31 0 l 1,3,-1
 -45 0 l 1,4,-1
 183 244 l 1,5,-1
 63 476 l 1,6,-1
 140 476 l 1,7,-1
 232 290 l 1,8,-1
 401 476 l 1,9,-1
 479 476 l 1,10,-1
 259 244 l 1,11,-1
 384 0 l 1,0,-1
EndSplineSet
EndChar

StartChar: Y
Encoding: 89 89 58
Width: 396
Flags: W
LayerCount: 2
Fore
SplineSet
186 0 m 1,0,-1
 124 0 l 1,1,-1
 168 208 l 1,2,-1
 51 476 l 1,3,-1
 124 476 l 1,4,-1
 210 262 l 1,5,-1
 387 476 l 1,6,-1
 459 476 l 1,7,-1
 230 209 l 1,8,-1
 186 0 l 1,0,-1
EndSplineSet
EndChar

StartChar: Z
Encoding: 90 90 59
Width: 451
Flags: W
LayerCount: 2
Fore
SplineSet
382 0 m 1,0,-1
 -17 0 l 1,1,-1
 -8 40 l 1,2,-1
 381 422 l 1,3,-1
 88 422 l 1,4,-1
 111 476 l 1,5,-1
 480 476 l 1,6,-1
 471 435 l 1,7,-1
 81 54 l 1,8,-1
 405 54 l 1,9,-1
 382 0 l 1,0,-1
EndSplineSet
EndChar

StartChar: bracketleft
Encoding: 91 91 60
Width: 234
Flags: W
LayerCount: 2
Fore
SplineSet
143 -77 m 1,0,-1
 -14 -77 l 1,1,-1
 114 528 l 1,2,-1
 272 528 l 1,3,-1
 261 476 l 1,4,-1
 162 476 l 1,5,-1
 55 -26 l 1,6,-1
 154 -26 l 1,7,-1
 143 -77 l 1,0,-1
EndSplineSet
EndChar

StartChar: backslash
Encoding: 92 92 61
Width: 268
Flags: W
LayerCount: 2
Fore
SplineSet
252 -27 m 1,0,-1
 188 -27 l 1,1,-1
 36 483 l 1,2,-1
 101 483 l 1,3,-1
 252 -27 l 1,0,-1
EndSplineSet
EndChar

StartChar: bracketright
Encoding: 93 93 62
Width: 234
Flags: W
LayerCount: 2
Fore
SplineSet
127 -77 m 1,0,-1
 -30 -77 l 1,1,-1
 -19 -26 l 1,2,-1
 79 -26 l 1,3,-1
 186 476 l 1,4,-1
 87 476 l 1,5,-1
 98 528 l 1,6,-1
 256 528 l 1,7,-1
 127 -77 l 1,0,-1
EndSplineSet
EndChar

StartChar: asciicircum
Encoding: 94 94 63
Width: 418
Flags: W
LayerCount: 2
Fore
SplineSet
382 152 m 1,0,-1
 317 152 l 1,1,-1
 255 405 l 1,2,-1
 85 152 l 1,3,-1
 20 152 l 1,4,-1
 246 480 l 1,5,-1
 297 480 l 1,6,-1
 382 152 l 1,0,-1
EndSplineSet
EndChar

StartChar: underscore
Encoding: 95 95 64
Width: 376
Flags: W
LayerCount: 2
Fore
SplineSet
294 -175 m 1,0,-1
 -81 -175 l 1,1,-1
 -69 -122 l 1,2,-1
 306 -122 l 1,3,-1
 294 -175 l 1,0,-1
EndSplineSet
EndChar

StartChar: grave
Encoding: 96 96 65
Width: 210
Flags: W
LayerCount: 2
Fore
SplineSet
201 375 m 1,0,-1
 153 375 l 1,1,-1
 90 472 l 1,2,-1
 151 490 l 1,3,-1
 201 375 l 1,0,-1
EndSplineSet
EndChar

StartChar: a
Encoding: 97 97 66
Width: 431
Flags: W
LayerCount: 2
Fore
SplineSet
366 4 m 1,0,-1
 303 -8 l 1,1,2
 291 8 291 8 288 50 c 1,3,4
 239 -9 239 -9 158 -9 c 0,5,6
 95 -9 95 -9 54.5 29 c 128,-1,7
 14 67 14 67 14 130 c 0,8,9
 14 220 14 220 75.5 286.5 c 128,-1,10
 137 353 137 353 227 353 c 0,11,12
 338 353 338 353 397 290 c 1,13,-1
 355 91 l 1,14,15
 347 43 347 43 366 4 c 1,0,-1
304 142 m 2,16,-1
 329 262 l 1,17,18
 290 301 290 301 221 301 c 0,19,20
 162 301 162 301 118.5 252.5 c 128,-1,21
 75 204 75 204 75 139 c 0,22,23
 75 46 75 46 171 46 c 0,24,25
 218 46 218 46 257 74.5 c 128,-1,26
 296 103 296 103 304 142 c 2,16,-1
EndSplineSet
Substitution2: "Single Substitution lookup 58 subtable" uni0E38
EndChar

StartChar: b
Encoding: 98 98 67
Width: 435
Flags: W
LayerCount: 2
Fore
SplineSet
406 215 m 0,0,1
 406 125 406 125 343 58.5 c 128,-1,2
 280 -8 280 -8 193 -8 c 0,3,4
 36 -8 36 -8 36 104 c 0,5,6
 36 120 36 120 40 139 c 2,7,-1
 114 488 l 1,8,-1
 177 488 l 1,9,-1
 140 313 l 1,10,11
 193 354 193 354 262 354 c 0,12,13
 326 354 326 354 366 315.5 c 128,-1,14
 406 277 406 277 406 215 c 0,0,1
345 206 m 0,15,16
 345 299 345 299 249 299 c 0,17,18
 204 299 204 299 163 272.5 c 128,-1,19
 122 246 122 246 116 203 c 1,20,-1
 99 130 l 2,21,22
 96 117 96 117 96 105 c 0,23,24
 96 79 96 79 123 61.5 c 128,-1,25
 150 44 150 44 199 44 c 0,26,27
 258 44 258 44 301.5 93 c 128,-1,28
 345 142 345 142 345 206 c 0,15,16
EndSplineSet
Substitution2: "Single Substitution lookup 58 subtable" uni0E39
EndChar

StartChar: c
Encoding: 99 99 68
Width: 347
Flags: W
LayerCount: 2
Fore
SplineSet
282 21 m 1,0,1
 228 -9 228 -9 159 -9 c 0,2,3
 78 -9 78 -9 39.5 41.5 c 128,-1,4
 1 92 1 92 18 172 c 0,5,6
 35 253 35 253 95 303 c 128,-1,7
 155 353 155 353 236 353 c 0,8,9
 304 353 304 353 346 323 c 1,10,-1
 313 271 l 1,11,12
 272 300 272 300 222 300 c 0,13,14
 171 300 171 300 132.5 264.5 c 128,-1,15
 94 229 94 229 82 172 c 0,16,17
 70 114 70 114 93.5 79 c 128,-1,18
 117 44 117 44 168 44 c 0,19,20
 218 44 218 44 271 73 c 1,21,-1
 282 21 l 1,0,1
EndSplineSet
Substitution2: "Single Substitution lookup 58 subtable" uni0E3A
EndChar

StartChar: d
Encoding: 100 100 69
Width: 435
Flags: W
LayerCount: 2
Fore
SplineSet
356 91 m 1,0,1
 351 45 351 45 367 4 c 1,2,-1
 304 -8 l 1,3,4
 292 8 292 8 289 50 c 1,5,6
 229 -9 229 -9 155 -9 c 256,7,8
 81 -9 81 -9 41.5 43.5 c 128,-1,9
 2 96 2 96 19 177 c 0,10,11
 35 252 35 252 94.5 302.5 c 128,-1,12
 154 353 154 353 227 353 c 0,13,14
 302 353 302 353 339 306 c 1,15,-1
 381 504 l 1,16,-1
 444 504 l 1,17,-1
 356 91 l 1,0,1
301 129 m 2,18,-1
 317 207 l 1,19,20
 326 245 326 245 294.5 273 c 128,-1,21
 263 301 263 301 221 301 c 0,22,23
 169 301 169 301 131 266 c 128,-1,24
 93 231 93 231 81 177 c 0,25,26
 68 116 68 116 91.5 81 c 128,-1,27
 115 46 115 46 171 46 c 0,28,29
 221 46 221 46 257 68.5 c 128,-1,30
 293 91 293 91 301 129 c 2,18,-1
EndSplineSet
EndChar

StartChar: e
Encoding: 101 101 70
Width: 391
Flags: W
LayerCount: 2
Fore
SplineSet
362 246 m 0,0,1
 362 195 362 195 309 168 c 0,2,3
 264 145 264 145 197 145 c 0,4,5
 136 145 136 145 77 153 c 1,6,7
 76 147 76 147 76 141 c 0,8,9
 76 96 76 96 105 71.5 c 128,-1,10
 134 47 134 47 181 47 c 0,11,12
 235 47 235 47 315 73 c 1,13,-1
 310 18 l 1,14,15
 232 -9 232 -9 166 -9 c 0,16,17
 97 -9 97 -9 54.5 26.5 c 128,-1,18
 12 62 12 62 12 123 c 0,19,20
 12 219 12 219 80 286 c 128,-1,21
 148 353 148 353 239 353 c 0,22,23
 362 353 362 353 362 246 c 0,0,1
308 247 m 0,24,25
 308 301 308 301 230 301 c 0,26,27
 189 301 189 301 146.5 271 c 128,-1,28
 104 241 104 241 88 198 c 1,29,30
 116 191 116 191 184 191 c 0,31,32
 308 191 308 191 308 247 c 0,24,25
EndSplineSet
EndChar

StartChar: f
Encoding: 102 102 71
Width: 254
Flags: W
LayerCount: 2
Fore
SplineSet
97 21 m 2,0,1
 60 -150 60 -150 -73 -150 c 0,2,3
 -115 -150 -115 -150 -139 -128 c 1,4,-1
 -111 -81 l 1,5,6
 -80 -96 -80 -96 -60 -96 c 0,7,8
 9 -96 9 -96 34 21 c 2,9,-1
 91 288 l 1,10,-1
 34 288 l 1,11,-1
 45 340 l 1,12,-1
 103 340 l 1,13,14
 139 511 139 511 272 511 c 0,15,16
 314 511 314 511 338 489 c 1,17,-1
 310 442 l 1,18,19
 279 457 279 457 259 457 c 0,20,21
 190 457 190 457 165 340 c 1,22,-1
 262 340 l 1,23,-1
 251 288 l 1,24,-1
 154 288 l 1,25,-1
 97 21 l 2,0,1
EndSplineSet
EndChar

StartChar: g
Encoding: 103 103 72
Width: 332
Flags: W
LayerCount: 2
Fore
SplineSet
238 -45 m 0,0,1
 228 -92 228 -92 188 -121 c 128,-1,2
 148 -150 148 -150 83 -150 c 0,3,4
 29 -150 29 -150 -20 -116 c 1,5,-1
 11 -66 l 1,6,7
 58 -97 58 -97 98 -97 c 0,8,9
 129 -97 129 -97 152.5 -82.5 c 128,-1,10
 176 -68 176 -68 180 -48 c 0,11,12
 187 -18 187 -18 136 5 c 0,13,14
 97 22 97 22 62.5 43 c 128,-1,15
 28 64 28 64 35 98 c 0,16,17
 39 114 39 114 53 139 c 1,18,19
 25 178 25 178 35 222 c 1,20,21
 46 277 46 277 90.5 312 c 128,-1,22
 135 347 135 347 187 347 c 2,23,-1
 331 347 l 1,24,-1
 322 304 l 1,25,-1
 272 304 l 1,26,27
 303 281 303 281 294 229 c 1,28,29
 282 170 282 170 242 135.5 c 128,-1,30
 202 101 202 101 141 101 c 0,31,32
 119 101 119 101 99 108 c 1,33,34
 93 103 93 103 92 95 c 0,35,36
 89 80 89 80 156 60 c 0,37,38
 254 31 254 31 238 -45 c 0,0,1
240 224 m 256,39,40
 246 254 246 254 229 275 c 128,-1,41
 212 296 212 296 182 296 c 256,42,43
 152 296 152 296 126 275 c 128,-1,44
 100 254 100 254 94 224 c 256,45,46
 88 194 88 194 105 173.5 c 128,-1,47
 122 153 122 153 152 153 c 0,48,49
 188 153 188 153 211 173.5 c 128,-1,50
 234 194 234 194 240 224 c 256,39,40
EndSplineSet
EndChar

StartChar: h
Encoding: 104 104 73
Width: 423
Flags: W
LayerCount: 2
Fore
SplineSet
369 192 m 2,0,-1
 346 79 l 2,1,2
 342 59 342 59 342 49 c 0,3,4
 342 32 342 32 353 7 c 1,5,-1
 293 -15 l 1,6,7
 277 8 277 8 277 38 c 0,8,9
 277 55 277 55 284 88 c 2,10,-1
 306 191 l 2,11,12
 309 205 309 205 309 220 c 0,13,14
 309 254 309 254 290 274.5 c 128,-1,15
 271 295 271 295 237 295 c 0,16,17
 197 295 197 295 158 265.5 c 128,-1,18
 119 236 119 236 111 199 c 2,19,-1
 69 0 l 1,20,-1
 6 0 l 1,21,-1
 113 504 l 1,22,-1
 176 504 l 1,23,-1
 133 303 l 1,24,25
 188 349 188 349 258 349 c 0,26,27
 374 349 374 349 374 238 c 0,28,29
 374 217 374 217 369 192 c 2,0,-1
EndSplineSet
EndChar

StartChar: i
Encoding: 105 105 74
Width: 163
Flags: W
LayerCount: 2
Fore
SplineSet
69 0 m 1,0,-1
 6 0 l 1,1,-1
 78 340 l 1,2,-1
 141 340 l 1,3,-1
 69 0 l 1,0,-1
177 440 m 256,4,5
 173 420 173 420 156 406 c 128,-1,6
 139 392 139 392 119 392 c 256,7,8
 99 392 99 392 88 406 c 128,-1,9
 77 420 77 420 81 440 c 256,10,11
 85 460 85 460 102 474 c 128,-1,12
 119 488 119 488 139 488 c 256,13,14
 159 488 159 488 170 474 c 128,-1,15
 181 460 181 460 177 440 c 256,4,5
EndSplineSet
EndChar

StartChar: j
Encoding: 106 106 75
Width: 171
Flags: W
LayerCount: 2
Fore
SplineSet
80 18 m 2,0,1
 47 -137 47 -137 -114 -141 c 1,2,-1
 -111 -90 l 1,3,4
 -42 -85 -42 -85 -18 -60 c 128,-1,5
 6 -35 6 -35 23 44 c 2,6,-1
 86 340 l 1,7,-1
 149 340 l 1,8,-1
 80 18 l 2,0,1
186 440 m 256,9,10
 182 420 182 420 165 406 c 128,-1,11
 148 392 148 392 128 392 c 256,12,13
 108 392 108 392 97 406 c 128,-1,14
 86 420 86 420 90 440 c 256,15,16
 94 460 94 460 111 474 c 128,-1,17
 128 488 128 488 148 488 c 256,18,19
 168 488 168 488 179 474 c 128,-1,20
 190 460 190 460 186 440 c 256,9,10
EndSplineSet
EndChar

StartChar: k
Encoding: 107 107 76
Width: 340
Flags: W
LayerCount: 2
Fore
SplineSet
315 6 m 1,0,-1
 246 -10 l 1,1,-1
 127 164 l 1,2,-1
 99 144 l 1,3,-1
 69 0 l 1,4,-1
 6 0 l 1,5,-1
 113 504 l 1,6,-1
 176 504 l 1,7,-1
 115 217 l 1,8,-1
 294 347 l 1,9,-1
 361 335 l 1,10,-1
 179 200 l 1,11,-1
 315 6 l 1,0,-1
EndSplineSet
EndChar

StartChar: l
Encoding: 108 108 77
Width: 213
Flags: W
LayerCount: 2
Fore
SplineSet
153 -8 m 1,0,1
 6 0 6 0 43 175 c 2,2,-1
 113 504 l 1,3,-1
 176 504 l 1,4,-1
 109 189 l 2,5,6
 92 112 92 112 110 80 c 0,7,8
 125 53 125 53 172 49 c 1,9,-1
 153 -8 l 1,0,1
EndSplineSet
EndChar

StartChar: m
Encoding: 109 109 78
Width: 636
Flags: W
LayerCount: 2
Fore
SplineSet
558 76 m 1,0,1
 554 51 554 51 556 35.5 c 128,-1,2
 558 20 558 20 566 7 c 1,3,-1
 506 -15 l 1,4,5
 497 -2 497 -2 493.5 25.5 c 128,-1,6
 490 53 490 53 497 88 c 2,7,-1
 518 188 l 2,8,9
 528 234 528 234 514 264 c 1,10,11
 497 297 497 297 458 297 c 0,12,13
 425 297 425 297 391 271 c 128,-1,14
 357 245 357 245 350 215 c 2,15,-1
 305 0 l 1,16,-1
 242 0 l 1,17,-1
 285 205 l 2,18,19
 305 297 305 297 228 297 c 0,20,21
 194 297 194 297 156.5 266.5 c 128,-1,22
 119 236 119 236 112 203 c 2,23,-1
 69 0 l 1,24,-1
 6 0 l 1,25,-1
 59 250 l 2,26,27
 64 275 64 275 67 294 c 0,28,29
 70 315 70 315 61 338 c 1,30,-1
 116 349 l 1,31,32
 129 325 129 325 124 292 c 1,33,34
 146 322 146 322 181 336 c 128,-1,35
 216 350 216 350 247 350 c 0,36,37
 313 350 313 350 341 294 c 1,38,39
 406 350 406 350 481 350 c 0,40,41
 540 350 540 350 568.5 305.5 c 128,-1,42
 597 261 597 261 582 189 c 2,43,-1
 558 76 l 1,0,1
EndSplineSet
EndChar

StartChar: n
Encoding: 110 110 79
Width: 423
Flags: W
LayerCount: 2
Fore
SplineSet
345 76 m 1,0,1
 342 51 342 51 344 35.5 c 128,-1,2
 346 20 346 20 354 7 c 1,3,-1
 294 -15 l 1,4,5
 285 -2 285 -2 281.5 25.5 c 128,-1,6
 278 53 278 53 285 88 c 2,7,-1
 307 193 l 2,8,9
 329 297 329 297 234 297 c 0,10,11
 199 297 199 297 158.5 265.5 c 128,-1,12
 118 234 118 234 112 203 c 2,13,-1
 69 0 l 1,14,-1
 6 0 l 1,15,-1
 59 250 l 2,16,17
 64 275 64 275 67 294 c 0,18,19
 70 315 70 315 61 338 c 1,20,-1
 116 349 l 1,21,22
 129 325 129 325 124 292 c 1,23,24
 186 350 186 350 254 350 c 256,25,26
 322 350 322 350 353.5 308 c 128,-1,27
 385 266 385 266 370 193 c 2,28,-1
 345 76 l 1,0,1
EndSplineSet
EndChar

StartChar: o
Encoding: 111 111 80
Width: 412
Flags: W
LayerCount: 2
Fore
SplineSet
378 172 m 256,0,1
 362 96 362 96 300 44 c 128,-1,2
 238 -8 238 -8 160 -8 c 256,3,4
 82 -8 82 -8 42 44 c 128,-1,5
 2 96 2 96 18 172 c 256,6,7
 34 248 34 248 96.5 300.5 c 128,-1,8
 159 353 159 353 237 353 c 256,9,10
 315 353 315 353 354.5 300.5 c 128,-1,11
 394 248 394 248 378 172 c 256,0,1
316 172 m 0,12,13
 328 226 328 226 302.5 262.5 c 128,-1,14
 277 299 277 299 225 299 c 256,15,16
 173 299 173 299 132.5 262.5 c 128,-1,17
 92 226 92 226 80 172 c 0,18,19
 69 118 69 118 94 81.5 c 128,-1,20
 119 45 119 45 171 45 c 256,21,22
 223 45 223 45 264 81.5 c 128,-1,23
 305 118 305 118 316 172 c 0,12,13
EndSplineSet
EndChar

StartChar: p
Encoding: 112 112 81
Width: 431
Flags: W
LayerCount: 2
Fore
SplineSet
337 178 m 0,0,1
 348 230 348 230 323 265.5 c 128,-1,2
 298 301 298 301 248 301 c 0,3,4
 208 301 208 301 163.5 269 c 128,-1,5
 119 237 119 237 111 198 c 2,6,-1
 99 142 l 2,7,8
 90 103 90 103 116.5 74.5 c 128,-1,9
 143 46 143 46 190 46 c 0,10,11
 246 46 246 46 285 81.5 c 128,-1,12
 324 117 324 117 337 178 c 0,0,1
399 179 m 1,13,14
 381 96 381 96 319 43.5 c 128,-1,15
 257 -9 257 -9 181 -9 c 0,16,17
 111 -9 111 -9 75 32 c 1,18,-1
 38 -143 l 1,19,-1
 -24 -143 l 1,20,-1
 67 291 l 1,21,22
 70 315 70 315 61 338 c 1,23,-1
 116 349 l 1,24,25
 129 325 129 325 124 292 c 1,26,27
 185 353 185 353 266 353 c 0,28,29
 340 353 340 353 377 303 c 128,-1,30
 414 253 414 253 399 179 c 1,13,14
EndSplineSet
EndChar

StartChar: q
Encoding: 113 113 82
Width: 431
Flags: W
LayerCount: 2
Fore
SplineSet
306 -143 m 1,0,-1
 243 -143 l 1,1,-1
 280 32 l 1,2,3
 227 -9 227 -9 158 -9 c 0,4,5
 95 -9 95 -9 54.5 29 c 128,-1,6
 14 67 14 67 14 130 c 0,7,8
 14 220 14 220 75.5 286.5 c 128,-1,9
 137 353 137 353 227 353 c 0,10,11
 338 353 338 353 397 290 c 1,12,-1
 306 -143 l 1,0,-1
304 142 m 2,13,-1
 329 262 l 1,14,15
 290 301 290 301 221 301 c 0,16,17
 162 301 162 301 118.5 252.5 c 128,-1,18
 75 204 75 204 75 139 c 0,19,20
 75 46 75 46 171 46 c 0,21,22
 218 46 218 46 257 74.5 c 128,-1,23
 296 103 296 103 304 142 c 2,13,-1
EndSplineSet
EndChar

StartChar: r
Encoding: 114 114 83
Width: 246
Flags: W
LayerCount: 2
Fore
SplineSet
249 293 m 1,0,1
 241 295 241 295 226 295 c 0,2,3
 131 295 131 295 107 181 c 2,4,-1
 69 0 l 1,5,-1
 6 0 l 1,6,-1
 53 225 l 2,7,8
 61 261 61 261 65 294 c 0,9,10
 68 315 68 315 59 338 c 1,11,-1
 114 349 l 1,12,13
 127 325 127 325 117 286 c 1,14,15
 137 316 137 316 169 333 c 128,-1,16
 201 350 201 350 229 350 c 0,17,18
 249 350 249 350 260 347 c 1,19,-1
 249 293 l 1,0,1
EndSplineSet
EndChar

StartChar: s
Encoding: 115 115 84
Width: 296
Flags: W
LayerCount: 2
Fore
SplineSet
247 97 m 0,0,1
 237 50 237 50 194.5 20.5 c 128,-1,2
 152 -9 152 -9 90 -9 c 0,3,4
 39 -9 39 -9 -12 24 c 1,5,-1
 22 74 l 1,6,7
 57 46 57 46 104 46 c 0,8,9
 174 46 174 46 184 94 c 0,10,11
 192 131 192 131 129 152 c 0,12,13
 35 183 35 183 49 247 c 0,14,15
 58 290 58 290 98 319.5 c 128,-1,16
 138 349 138 349 195 349 c 0,17,18
 253 349 253 349 287 320 c 1,19,-1
 254 274 l 1,20,21
 224 300 224 300 180 300 c 0,22,23
 154 300 154 300 134 286.5 c 128,-1,24
 114 273 114 273 109 252 c 0,25,26
 104 226 104 226 171 201 c 0,27,28
 262 167 262 167 247 97 c 0,0,1
EndSplineSet
EndChar

StartChar: t
Encoding: 116 116 85
Width: 258
Flags: W
LayerCount: 2
Fore
SplineSet
199 5 m 1,0,1
 163 -9 163 -9 130 -9 c 0,2,3
 84 -9 84 -9 64 22 c 128,-1,4
 44 53 44 53 55 107 c 2,5,-1
 94 288 l 1,6,-1
 26 288 l 1,7,-1
 37 340 l 1,8,-1
 105 340 l 1,9,-1
 125 433 l 1,10,-1
 193 460 l 1,11,-1
 168 340 l 1,12,-1
 277 340 l 1,13,-1
 266 288 l 1,14,-1
 157 288 l 1,15,-1
 118 108 l 2,16,17
 105 47 105 47 144 47 c 0,18,19
 169 47 169 47 203 58 c 1,20,-1
 199 5 l 1,0,1
EndSplineSet
EndChar

StartChar: u
Encoding: 117 117 86
Width: 418
Flags: W
LayerCount: 2
Fore
SplineSet
354 4 m 1,0,-1
 291 -8 l 1,1,2
 279 8 279 8 276 50 c 1,3,4
 203 -9 203 -9 145 -9 c 0,5,6
 31 -9 31 -9 31 96 c 0,7,8
 31 122 31 122 38 154 c 2,9,-1
 62 265 l 2,10,11
 65 279 65 279 65 294 c 0,12,13
 65 316 65 316 59 338 c 1,14,-1
 119 350 l 1,15,16
 128 323 128 323 128 296 c 0,17,18
 128 277 128 277 124 258 c 2,19,-1
 103 160 l 2,20,21
 97 132 97 132 97 115 c 0,22,23
 97 47 97 47 164 47 c 0,24,25
 201 47 201 47 241.5 75.5 c 128,-1,26
 282 104 282 104 290 139 c 2,27,-1
 333 340 l 1,28,-1
 396 340 l 1,29,-1
 343 91 l 2,30,31
 341 82 341 82 341 70 c 0,32,33
 341 40 341 40 354 4 c 1,0,-1
EndSplineSet
EndChar

StartChar: v
Encoding: 118 118 87
Width: 358
Flags: W
LayerCount: 2
Fore
SplineSet
160 0 m 1,0,-1
 110 0 l 1,1,-1
 24 340 l 1,2,-1
 90 340 l 1,3,-1
 151 78 l 1,4,-1
 324 340 l 1,5,-1
 390 340 l 1,6,-1
 160 0 l 1,0,-1
EndSplineSet
EndChar

StartChar: w
Encoding: 119 119 88
Width: 480
Flags: W
LayerCount: 2
Fore
SplineSet
355 0 m 1,0,-1
 302 0 l 1,1,-1
 254 273 l 1,2,-1
 90 0 l 1,3,-1
 37 0 l 1,4,-1
 24 340 l 1,5,-1
 89 340 l 1,6,-1
 85 83 l 1,7,-1
 242 340 l 1,8,-1
 294 340 l 1,9,-1
 341 83 l 1,10,-1
 447 340 l 1,11,-1
 512 340 l 1,12,-1
 355 0 l 1,0,-1
EndSplineSet
EndChar

StartChar: x
Encoding: 120 120 89
Width: 349
Flags: W
LayerCount: 2
Fore
SplineSet
316 0 m 1,0,-1
 239 0 l 1,1,-1
 157 131 l 1,2,-1
 22 0 l 1,3,-1
 -55 0 l 1,4,-1
 129 174 l 1,5,-1
 26 340 l 1,6,-1
 102 340 l 1,7,-1
 177 220 l 1,8,-1
 303 340 l 1,9,-1
 379 340 l 1,10,-1
 204 174 l 1,11,-1
 316 0 l 1,0,-1
EndSplineSet
EndChar

StartChar: y
Encoding: 121 121 90
Width: 361
Flags: W
LayerCount: 2
Fore
SplineSet
165 7 m 2,0,1
 74 -126 74 -126 -44 -151 c 1,2,-1
 -49 -99 l 1,3,4
 44 -79 44 -79 108 25 c 1,5,-1
 24 340 l 1,6,-1
 93 340 l 1,7,-1
 157 88 l 1,8,-1
 323 340 l 1,9,-1
 392 340 l 1,10,-1
 165 7 l 2,0,1
EndSplineSet
EndChar

StartChar: z
Encoding: 122 122 91
Width: 358
Flags: W
LayerCount: 2
Fore
SplineSet
286 0 m 1,0,-1
 -24 0 l 1,1,-1
 -15 38 l 1,2,-1
 263 287 l 1,3,-1
 47 287 l 1,4,-1
 70 340 l 1,5,-1
 360 340 l 1,6,-1
 351 299 l 1,7,-1
 74 53 l 1,8,-1
 306 53 l 1,9,-1
 286 0 l 1,0,-1
EndSplineSet
EndChar

StartChar: braceleft
Encoding: 123 123 92
Width: 255
Flags: W
LayerCount: 2
Fore
SplineSet
158 -88 m 1,0,-1
 135 -88 l 2,1,2
 15 -88 15 -88 36 14 c 0,3,4
 41 34 41 34 57.5 78.5 c 128,-1,5
 74 123 74 123 77 141 c 0,6,7
 85 177 85 177 24 179 c 1,8,-1
 35 231 l 1,9,10
 97 233 97 233 104 268 c 0,11,12
 109 289 109 289 111.5 333.5 c 128,-1,13
 114 378 114 378 118 396 c 0,14,15
 139 498 139 498 259 498 c 2,16,-1
 282 498 l 1,17,-1
 271 446 l 1,18,-1
 245 446 l 2,19,20
 190 446 190 446 176 394 c 1,21,22
 172 309 172 309 164 271 c 0,23,24
 159 249 159 249 142.5 229.5 c 128,-1,25
 126 210 126 210 108 205 c 1,26,27
 146 188 146 188 136 138 c 0,28,29
 128 101 128 101 96 16 c 1,30,31
 87 -37 87 -37 143 -37 c 2,32,-1
 169 -37 l 1,33,-1
 158 -88 l 1,0,-1
EndSplineSet
EndChar

StartChar: bar
Encoding: 124 124 93
Width: 177
Flags: W
LayerCount: 2
Fore
SplineSet
37 -166 m 1,0,-1
 -19 -166 l 1,1,-1
 127 526 l 1,2,-1
 184 526 l 1,3,-1
 37 -166 l 1,0,-1
EndSplineSet
EndChar

StartChar: braceright
Encoding: 125 125 94
Width: 255
Flags: W
LayerCount: 2
Fore
SplineSet
222 179 m 1,0,1
 159 177 159 177 151 141 c 0,2,3
 148 123 148 123 145.5 78.5 c 128,-1,4
 143 34 143 34 138 14 c 0,5,6
 117 -88 117 -88 -2 -88 c 2,7,-1
 -25 -88 l 1,8,-1
 -14 -37 l 1,9,-1
 11 -37 l 2,10,11
 69 -37 69 -37 79 12 c 0,12,13
 84 35 84 35 86 76.5 c 128,-1,14
 88 118 88 118 92 138 c 0,15,16
 102 188 102 188 148 205 c 1,17,18
 132 210 132 210 123.5 229.5 c 128,-1,19
 115 249 115 249 120 271 c 256,20,21
 125 293 125 293 141 335 c 128,-1,22
 157 377 157 377 161 398 c 0,23,24
 171 446 171 446 113 446 c 2,25,-1
 87 446 l 1,26,-1
 98 498 l 1,27,-1
 121 498 l 2,28,29
 241 498 241 498 220 396 c 0,30,31
 216 378 216 378 199.5 333.5 c 128,-1,32
 183 289 183 289 178 268 c 0,33,34
 171 233 171 233 233 231 c 1,35,-1
 222 179 l 1,0,1
EndSplineSet
EndChar

StartChar: asciitilde
Encoding: 126 126 95
Width: 422
Flags: W
LayerCount: 2
Fore
SplineSet
415 243 m 1,0,1
 405 197 405 197 374.5 170.5 c 128,-1,2
 344 144 344 144 304 144 c 0,3,4
 280 144 280 144 205 175 c 128,-1,5
 130 206 130 206 113 206 c 0,6,7
 78 206 78 206 63 144 c 1,8,-1
 8 144 l 1,9,-1
 12 163 l 2,10,11
 21 207 21 207 53.5 233 c 128,-1,12
 86 259 86 259 125 259 c 0,13,14
 152 259 152 259 225.5 229.5 c 128,-1,15
 299 200 299 200 318 200 c 0,16,17
 349 200 349 200 365 259 c 1,18,-1
 419 259 l 1,19,-1
 415 243 l 1,0,1
EndSplineSet
EndChar

StartChar: uni0E33.alt1
Encoding: 65537 -1 96
Width: 343
Flags: W
LayerCount: 2
Fore
SplineSet
-84 549 m 0,0,1
 -91 514 -91 514 -121 489.5 c 128,-1,2
 -151 465 -151 465 -186 465 c 0,3,4
 -222 465 -222 465 -241 489.5 c 128,-1,5
 -260 514 -260 514 -253 549 c 0,6,7
 -245 584 -245 584 -215 609 c 128,-1,8
 -185 634 -185 634 -150 634 c 256,9,10
 -115 634 -115 634 -95.5 609.5 c 128,-1,11
 -76 585 -76 585 -84 549 c 0,0,1
-128 549 m 0,12,13
 -124 566 -124 566 -133 578 c 128,-1,14
 -142 590 -142 590 -159 590 c 256,15,16
 -176 590 -176 590 -190.5 578 c 128,-1,17
 -205 566 -205 566 -209 549 c 0,18,19
 -212 532 -212 532 -202.5 520.5 c 128,-1,20
 -193 509 -193 509 -176 509 c 256,21,22
 -159 509 -159 509 -145 520.5 c 128,-1,23
 -131 532 -131 532 -128 549 c 0,12,13
258 47 m 2,24,25
 246 -10 246 -10 211 -27 c 1,26,-1
 162 0 l 1,27,28
 191 17 191 17 201 70 c 1,29,-1
 247 291 l 2,30,31
 253 319 253 319 238 336.5 c 128,-1,32
 223 354 223 354 190 354 c 256,33,34
 157 354 157 354 131 332 c 128,-1,35
 105 310 105 310 97 276 c 1,36,-1
 37 276 l 1,37,38
 53 336 53 336 97 371.5 c 128,-1,39
 141 407 141 407 201 407 c 0,40,41
 257 407 257 407 289.5 378.5 c 128,-1,42
 322 350 322 350 310 292 c 2,43,-1
 258 47 l 2,24,25
EndSplineSet
EndChar

StartChar: uni0E4E.alt1
Encoding: 65540 -1 99
Width: 0
Flags: W
LayerCount: 2
Fore
SplineSet
-122 664 m 1,0,-1
 -131 639 l 1,1,2
 -148 644 -148 644 -168 644 c 0,3,4
 -214 644 -214 644 -214 613 c 0,5,6
 -214 580 -214 580 -164 574 c 1,7,-1
 -173 551 l 1,8,9
 -185 555 -185 555 -197 555 c 0,10,11
 -225 555 -225 555 -242.5 542.5 c 128,-1,12
 -260 530 -260 530 -260 515 c 0,13,14
 -260 488 -260 488 -215 488 c 0,15,16
 -202 488 -202 488 -183 496 c 1,17,-1
 -182 471 l 1,18,19
 -201 463 -201 463 -228 463 c 0,20,21
 -253 463 -253 463 -271 477.5 c 128,-1,22
 -289 492 -289 492 -289 516 c 0,23,24
 -289 541 -289 541 -269 558 c 128,-1,25
 -249 575 -249 575 -224 575 c 1,26,27
 -244 588 -244 588 -244 613 c 0,28,29
 -244 671 -244 671 -167 671 c 0,30,31
 -140 671 -140 671 -122 664 c 1,0,-1
EndSplineSet
EndChar

StartChar: exclamdown
Encoding: 161 161 100
Width: 168
Flags: W
LayerCount: 2
Fore
SplineSet
46 -141 m 1,0,-1
 -25 -141 l 1,1,-1
 52 196 l 1,2,-1
 108 196 l 1,3,-1
 46 -141 l 1,0,-1
150 296 m 0,4,5
 146 276 146 276 129 262 c 128,-1,6
 112 248 112 248 92 248 c 256,7,8
 72 248 72 248 61 262 c 128,-1,9
 50 276 50 276 54 296 c 0,10,11
 59 316 59 316 76 330 c 128,-1,12
 93 344 93 344 113 344 c 256,13,14
 133 344 133 344 144 330 c 128,-1,15
 155 316 155 316 150 296 c 0,4,5
EndSplineSet
EndChar

StartChar: cent
Encoding: 162 162 101
Width: 480
Flags: W
LayerCount: 2
Fore
SplineSet
385 52 m 1,0,1
 325 23 325 23 245 21 c 1,2,-1
 229 -56 l 1,3,-1
 174 -56 l 1,4,-1
 191 24 l 1,5,6
 116 38 116 38 82 92.5 c 128,-1,7
 48 147 48 147 65 229 c 0,8,9
 83 311 83 311 140 365.5 c 128,-1,10
 197 420 197 420 278 434 c 1,11,-1
 295 514 l 1,12,-1
 350 514 l 1,13,-1
 333 437 l 1,14,15
 413 435 413 435 460 406 c 1,16,-1
 429 358 l 1,17,18
 406 369 406 369 380 375 c 128,-1,19
 354 381 354 381 325 381 c 0,20,21
 246 381 246 381 193 341 c 128,-1,22
 140 301 140 301 125 229 c 256,23,24
 110 157 110 157 146 117 c 128,-1,25
 182 77 182 77 261 77 c 0,26,27
 290 77 290 77 318 83 c 128,-1,28
 346 89 346 89 374 100 c 1,29,-1
 385 52 l 1,0,1
EndSplineSet
EndChar

StartChar: sterling
Encoding: 163 163 102
Width: 480
Flags: W
LayerCount: 2
Fore
SplineSet
347 0 m 1,0,-1
 45 0 l 1,1,-1
 52 37 l 1,2,3
 145 88 145 88 161 161 c 0,4,5
 162 169 162 169 164 182 c 128,-1,6
 166 195 166 195 167 209 c 1,7,-1
 90 209 l 1,8,-1
 100 255 l 1,9,-1
 171 255 l 1,10,11
 173 276 173 276 175.5 293.5 c 128,-1,12
 178 311 178 311 181 328 c 0,13,14
 211 468 211 468 342 468 c 0,15,16
 382 468 382 468 428 445 c 1,17,-1
 401 403 l 1,18,19
 361 421 361 421 330 421 c 0,20,21
 250 421 250 421 230 328 c 0,22,23
 222 290 222 290 222 255 c 1,24,-1
 333 255 l 1,25,-1
 323 209 l 1,26,-1
 220 209 l 1,27,28
 219 201 219 201 217 189.5 c 128,-1,29
 215 178 215 178 213 168 c 0,30,31
 198 95 198 95 145 47 c 1,32,-1
 356 47 l 1,33,-1
 347 0 l 1,0,-1
EndSplineSet
EndChar

StartChar: currency
Encoding: 164 164 103
Width: 480
Flags: W
LayerCount: 2
Fore
SplineSet
431 226 m 0,0,1
 418 167 418 167 374 120 c 1,2,-1
 403 81 l 1,3,-1
 350 35 l 1,4,-1
 320 76 l 1,5,6
 268 41 268 41 203 41 c 0,7,8
 140 41 140 41 104 76 c 1,9,-1
 56 35 l 1,10,-1
 23 81 l 1,11,-1
 68 120 l 1,12,13
 44 167 44 167 57 226 c 0,14,15
 69 285 69 285 113 332 c 1,16,-1
 84 371 l 1,17,-1
 137 417 l 1,18,-1
 167 376 l 1,19,20
 219 411 219 411 282 411 c 0,21,22
 347 411 347 411 383 376 c 1,23,-1
 431 417 l 1,24,-1
 464 371 l 1,25,-1
 419 332 l 1,26,27
 443 285 443 285 431 226 c 0,0,1
369 226 m 1,28,29
 379 277 379 277 350 314 c 128,-1,30
 321 351 321 351 270 351 c 0,31,32
 217 351 217 351 173 314 c 128,-1,33
 129 277 129 277 119 226 c 1,34,35
 107 173 107 173 135.5 137 c 128,-1,36
 164 101 164 101 217 101 c 0,37,38
 268 101 268 101 312.5 137 c 128,-1,39
 357 173 357 173 369 226 c 1,28,29
EndSplineSet
EndChar

StartChar: yen
Encoding: 165 165 104
Width: 480
Flags: W
LayerCount: 2
Fore
SplineSet
359 91 m 1,0,-1
 244 91 l 1,1,-1
 228 18 l 1,2,-1
 170 18 l 1,3,-1
 186 91 l 1,4,-1
 71 91 l 1,5,-1
 81 141 l 1,6,-1
 196 141 l 1,7,-1
 203 173 l 1,8,-1
 88 173 l 1,9,-1
 99 223 l 1,10,-1
 204 223 l 1,11,-1
 109 461 l 1,12,-1
 179 461 l 1,13,-1
 252 271 l 1,14,-1
 406 461 l 1,15,-1
 477 461 l 1,16,-1
 281 224 l 1,17,-1
 387 224 l 1,18,-1
 376 173 l 1,19,-1
 261 173 l 1,20,-1
 254 141 l 1,21,-1
 369 141 l 1,22,-1
 359 91 l 1,0,-1
EndSplineSet
EndChar

StartChar: brokenbar
Encoding: 166 166 105
Width: 161
Flags: W
LayerCount: 2
Fore
SplineSet
106 220 m 1,0,-1
 58 220 l 1,1,-1
 113 476 l 1,2,-1
 161 476 l 1,3,-1
 106 220 l 1,0,-1
34 -119 m 1,4,-1
 -13 -119 l 1,5,-1
 41 138 l 1,6,-1
 89 138 l 1,7,-1
 34 -119 l 1,4,-1
EndSplineSet
EndChar

StartChar: section
Encoding: 167 167 106
Width: 380
Flags: W
LayerCount: 2
Fore
SplineSet
278 71 m 0,0,1
 267 20 267 20 224 -9 c 128,-1,2
 181 -38 181 -38 125 -38 c 0,3,4
 62 -38 62 -38 24 0 c 1,5,-1
 55 42 l 1,6,7
 71 23 71 23 91.5 15 c 128,-1,8
 112 7 112 7 137 7 c 0,9,10
 173 7 173 7 198 23.5 c 128,-1,11
 223 40 223 40 229 66 c 0,12,13
 236 101 236 101 193 125 c 1,14,15
 170 135 170 135 145.5 145.5 c 128,-1,16
 121 156 121 156 98 167 c 1,17,18
 51 193 51 193 62 249 c 1,19,20
 72 292 72 292 118 327 c 1,21,22
 105 350 105 350 111 379 c 0,23,24
 121 424 121 424 161 452 c 128,-1,25
 201 480 201 480 257 480 c 0,26,27
 283 480 283 480 307.5 472 c 128,-1,28
 332 464 332 464 355 450 c 1,29,-1
 321 407 l 1,30,31
 287 436 287 436 242 436 c 0,32,33
 213 436 213 436 190 421.5 c 128,-1,34
 167 407 167 407 162 385 c 0,35,36
 160 374 160 374 164.5 365 c 128,-1,37
 169 356 169 356 178 348 c 0,38,39
 185 343 185 343 201.5 335.5 c 128,-1,40
 218 328 218 328 241 320 c 0,41,42
 288 302 288 302 310.5 274.5 c 128,-1,43
 333 247 333 247 326 212 c 0,44,45
 321 189 321 189 306.5 168.5 c 128,-1,46
 292 148 292 148 271 129 c 1,47,48
 285 106 285 106 278 71 c 0,0,1
273 207 m 1,49,50
 277 224 277 224 261.5 241.5 c 128,-1,51
 246 259 246 259 218 270 c 0,52,53
 194 279 194 279 176 287 c 128,-1,54
 158 295 158 295 146 301 c 1,55,56
 117 279 117 279 111 251 c 0,57,58
 108 239 108 239 114 229.5 c 128,-1,59
 120 220 120 220 132 210 c 1,60,61
 141 205 141 205 156 197.5 c 128,-1,62
 171 190 171 190 195 181 c 0,63,64
 212 174 212 174 224 168.5 c 128,-1,65
 236 163 236 163 244 157 c 1,66,67
 258 170 258 170 264.5 182 c 128,-1,68
 271 194 271 194 273 207 c 1,49,50
EndSplineSet
EndChar

StartChar: dieresis
Encoding: 168 168 107
Width: 341
Flags: W
LayerCount: 2
Fore
SplineSet
186 425 m 0,0,1
 182 406 182 406 166 393.5 c 128,-1,2
 150 381 150 381 133 381 c 0,3,4
 115 381 115 381 105 393.5 c 128,-1,5
 95 406 95 406 99 425 c 0,6,7
 103 443 103 443 118.5 456 c 128,-1,8
 134 469 134 469 152 469 c 0,9,10
 169 469 169 469 179.5 456 c 128,-1,11
 190 443 190 443 186 425 c 0,0,1
334 425 m 0,12,13
 330 406 330 406 314 393.5 c 128,-1,14
 298 381 298 381 281 381 c 256,15,16
 264 381 264 381 253.5 393.5 c 128,-1,17
 243 406 243 406 247 425 c 0,18,19
 251 443 251 443 267 456 c 128,-1,20
 283 469 283 469 300 469 c 256,21,22
 317 469 317 469 327.5 456 c 128,-1,23
 338 443 338 443 334 425 c 0,12,13
EndSplineSet
EndChar

StartChar: copyright
Encoding: 169 169 108
Width: 540
Flags: W
LayerCount: 2
Fore
SplineSet
385 117 m 1,0,1
 347 88 347 88 282 88 c 0,2,3
 215 88 215 88 176 130 c 128,-1,4
 137 172 137 172 137 233 c 0,5,6
 137 303 137 303 178 343.5 c 128,-1,7
 219 384 219 384 287 384 c 0,8,9
 348 384 348 384 380 360 c 1,10,-1
 368 324 l 1,11,12
 330 346 330 346 287 346 c 0,13,14
 183 346 183 346 183 238 c 0,15,16
 183 129 183 129 288 129 c 0,17,18
 337 129 337 129 372 154 c 1,19,-1
 385 117 l 1,0,1
527 240 m 256,20,21
 527 140 527 140 455.5 68.5 c 128,-1,22
 384 -3 384 -3 284 -3 c 256,23,24
 184 -3 184 -3 112.5 68.5 c 128,-1,25
 41 140 41 140 41 240 c 256,26,27
 41 340 41 340 112.5 411.5 c 128,-1,28
 184 483 184 483 284 483 c 256,29,30
 384 483 384 483 455.5 411.5 c 128,-1,31
 527 340 527 340 527 240 c 256,20,21
485 240 m 256,32,33
 485 323 485 323 426 382 c 128,-1,34
 367 441 367 441 284 441 c 256,35,36
 201 441 201 441 142 382 c 128,-1,37
 83 323 83 323 83 240 c 256,38,39
 83 157 83 157 142 98 c 128,-1,40
 201 39 201 39 284 39 c 256,41,42
 367 39 367 39 426 98 c 128,-1,43
 485 157 485 157 485 240 c 256,32,33
EndSplineSet
EndChar

StartChar: ordfeminine
Encoding: 170 170 109
Width: 289
Flags: W
LayerCount: 2
Fore
SplineSet
294 443 m 1,0,-1
 261 294 l 2,1,2
 259 285 259 285 259 274 c 0,3,4
 259 258 259 258 264 249 c 1,5,-1
 230 241 l 1,6,7
 226 252 226 252 226 265 c 0,8,9
 226 275 226 275 227 282 c 1,10,11
 184 241 184 241 136 241 c 0,12,13
 97 241 97 241 74.5 264 c 128,-1,14
 52 287 52 287 52 324 c 0,15,16
 52 383 52 383 91 430.5 c 128,-1,17
 130 478 130 478 189 478 c 0,18,19
 251 478 251 478 294 443 c 1,0,-1
229 345 m 1,20,-1
 246 424 l 1,21,22
 219 441 219 441 190 441 c 0,23,24
 149 441 149 441 123 406.5 c 128,-1,25
 97 372 97 372 97 331 c 0,26,27
 97 278 97 278 148 278 c 0,28,29
 175 278 175 278 198.5 298.5 c 128,-1,30
 222 319 222 319 229 345 c 1,20,-1
EndSplineSet
EndChar

StartChar: guillemotleft
Encoding: 171 171 110
Width: 356
Flags: W
LayerCount: 2
Fore
SplineSet
291 47 m 1,0,-1
 231 47 l 1,1,-1
 146 179 l 1,2,-1
 288 314 l 1,3,-1
 347 314 l 1,4,-1
 206 180 l 1,5,-1
 291 47 l 1,0,-1
169 47 m 1,6,-1
 108 47 l 1,7,-1
 24 179 l 1,8,-1
 163 315 l 1,9,-1
 225 315 l 1,10,-1
 83 179 l 1,11,-1
 169 47 l 1,6,-1
EndSplineSet
EndChar

StartChar: logicalnot
Encoding: 172 172 111
Width: 448
Flags: W
LayerCount: 2
Fore
SplineSet
403 88 m 1,0,-1
 355 88 l 1,1,-1
 355 234 l 1,2,-1
 34 234 l 1,3,-1
 34 279 l 1,4,-1
 403 279 l 1,5,-1
 403 88 l 1,0,-1
EndSplineSet
EndChar

StartChar: registered
Encoding: 174 174 112
Width: 540
Flags: W
LayerCount: 2
Fore
SplineSet
393 89 m 1,0,-1
 354 89 l 1,1,2
 336 220 336 220 276 220 c 2,3,-1
 226 220 l 1,4,-1
 226 89 l 1,5,-1
 185 89 l 1,6,-1
 185 384 l 1,7,8
 231 392 231 392 267 392 c 0,9,10
 320 392 320 392 351.5 369.5 c 128,-1,11
 383 347 383 347 383 308 c 0,12,13
 383 256 383 256 334 234 c 1,14,15
 358 217 358 217 370.5 187 c 128,-1,16
 383 157 383 157 393 89 c 1,0,-1
346 305 m 256,17,18
 346 357 346 357 267 357 c 0,19,20
 242 357 242 357 226 355 c 1,21,-1
 226 253 l 1,22,-1
 273 253 l 2,23,24
 346 253 346 253 346 305 c 256,17,18
527 240 m 256,25,26
 527 140 527 140 455.5 68.5 c 128,-1,27
 384 -3 384 -3 284 -3 c 256,28,29
 184 -3 184 -3 112.5 68.5 c 128,-1,30
 41 140 41 140 41 240 c 256,31,32
 41 340 41 340 112.5 411.5 c 128,-1,33
 184 483 184 483 284 483 c 256,34,35
 384 483 384 483 455.5 411.5 c 128,-1,36
 527 340 527 340 527 240 c 256,25,26
485 240 m 256,37,38
 485 323 485 323 426 382 c 128,-1,39
 367 441 367 441 284 441 c 256,40,41
 201 441 201 441 142 382 c 128,-1,42
 83 323 83 323 83 240 c 256,43,44
 83 157 83 157 142 98 c 128,-1,45
 201 39 201 39 284 39 c 256,46,47
 367 39 367 39 426 98 c 128,-1,48
 485 157 485 157 485 240 c 256,37,38
EndSplineSet
EndChar

StartChar: macron
Encoding: 175 175 113
Width: 376
Flags: W
LayerCount: 2
Fore
SplineSet
444 528 m 1,0,-1
 68 528 l 1,1,-1
 79 581 l 1,2,-1
 455 581 l 1,3,-1
 444 528 l 1,0,-1
EndSplineSet
EndChar

StartChar: degree
Encoding: 176 176 114
Width: 277
Flags: W
LayerCount: 2
Fore
SplineSet
267 397 m 256,0,1
 259 360 259 360 227.5 334 c 128,-1,2
 196 308 196 308 159 308 c 256,3,4
 122 308 122 308 101.5 334 c 128,-1,5
 81 360 81 360 89 397 c 256,6,7
 97 434 97 434 128.5 460 c 128,-1,8
 160 486 160 486 197 486 c 256,9,10
 234 486 234 486 254.5 460 c 128,-1,11
 275 434 275 434 267 397 c 256,0,1
235 397 m 256,12,13
 240 420 240 420 226.5 437 c 128,-1,14
 213 454 213 454 190 454 c 256,15,16
 167 454 167 454 146.5 437 c 128,-1,17
 126 420 126 420 121 397 c 256,18,19
 116 374 116 374 129.5 357 c 128,-1,20
 143 340 143 340 166 340 c 256,21,22
 189 340 189 340 209.5 357 c 128,-1,23
 230 374 230 374 235 397 c 256,12,13
EndSplineSet
EndChar

StartChar: plusminus
Encoding: 177 177 115
Width: 440
Flags: W
LayerCount: 2
Fore
SplineSet
361 0 m 1,0,-1
 -8 0 l 1,1,-1
 3 55 l 1,2,-1
 372 55 l 1,3,-1
 361 0 l 1,0,-1
402 217 m 1,4,-1
 254 217 l 1,5,-1
 224 78 l 1,6,-1
 161 78 l 1,7,-1
 191 217 l 1,8,-1
 43 217 l 1,9,-1
 54 272 l 1,10,-1
 202 272 l 1,11,-1
 234 423 l 1,12,-1
 297 423 l 1,13,-1
 265 272 l 1,14,-1
 413 272 l 1,15,-1
 402 217 l 1,4,-1
EndSplineSet
EndChar

StartChar: twosuperior
Encoding: 178 178 116
Width: 260
Flags: W
LayerCount: 2
Fore
SplineSet
213 190 m 1,0,-1
 23 190 l 1,1,2
 29 221 29 221 58 249.5 c 128,-1,3
 87 278 87 278 119 304 c 128,-1,4
 151 330 151 330 178.5 354.5 c 128,-1,5
 206 379 206 379 211 402 c 0,6,7
 215 419 215 419 207 428 c 128,-1,8
 199 437 199 437 184 437 c 0,9,10
 165 437 165 437 147 423 c 128,-1,11
 129 409 129 409 122 382 c 1,12,-1
 81 390 l 1,13,14
 96 435 96 435 125 458.5 c 128,-1,15
 154 482 154 482 191 482 c 0,16,17
 229 482 229 482 248 460.5 c 128,-1,18
 267 439 267 439 259 402 c 0,19,20
 254 381 254 381 236 356 c 128,-1,21
 218 331 218 331 184 302 c 2,22,-1
 104 235 l 1,23,-1
 228 235 l 1,24,-1
 213 190 l 1,0,-1
EndSplineSet
EndChar

StartChar: threesuperior
Encoding: 179 179 117
Width: 260
Flags: W
LayerCount: 2
Fore
SplineSet
246 294 m 0,0,1
 236 246 236 246 198 217 c 128,-1,2
 160 188 160 188 106 187 c 0,3,4
 65 187 65 187 37 212 c 1,5,-1
 65 254 l 1,6,7
 77 242 77 242 90 238 c 128,-1,8
 103 234 103 234 117 234 c 0,9,10
 149 234 149 234 171 250.5 c 128,-1,11
 193 267 193 267 199 293 c 0,12,13
 202 310 202 310 193.5 319 c 128,-1,14
 185 328 185 328 171 328 c 0,15,16
 159 328 159 328 146 323.5 c 128,-1,17
 133 319 133 319 124 313 c 1,18,-1
 114 343 l 1,19,20
 157 361 157 361 181 380.5 c 128,-1,21
 205 400 205 400 208 416 c 0,22,23
 213 438 213 438 185 438 c 0,24,25
 168 438 168 438 149.5 426.5 c 128,-1,26
 131 415 131 415 118 392 c 1,27,-1
 85 411 l 1,28,29
 131 483 131 483 197 483 c 0,30,31
 266 483 266 483 254 424 c 1,32,33
 246 390 246 390 208 362 c 1,34,35
 257 347 257 347 246 294 c 0,0,1
EndSplineSet
EndChar

StartChar: acute
Encoding: 180 180 118
Width: 259
Flags: W
LayerCount: 2
Fore
SplineSet
133 366 m 1,0,-1
 86 366 l 1,1,-1
 186 481 l 1,2,-1
 264 481 l 1,3,-1
 133 366 l 1,0,-1
EndSplineSet
EndChar

StartChar: mu
Encoding: 181 181 119
Width: 414
Flags: W
LayerCount: 2
Fore
SplineSet
342 4 m 1,0,-1
 279 -8 l 1,1,2
 276 3 276 3 275 14.5 c 128,-1,3
 274 26 274 26 274 40 c 1,4,5
 241 18 241 18 209 4.5 c 128,-1,6
 177 -9 177 -9 142 -9 c 0,7,8
 119 -9 119 -9 100 -1 c 128,-1,9
 81 7 81 7 71 24 c 1,10,-1
 36 -141 l 1,11,-1
 -26 -141 l 1,12,-1
 75 342 l 1,13,-1
 138 342 l 1,14,-1
 100 160 l 1,15,16
 75 47 75 47 161 47 c 0,17,18
 198 47 198 47 238 72.5 c 128,-1,19
 278 98 278 98 287 139 c 2,20,-1
 330 342 l 1,21,-1
 393 342 l 1,22,-1
 340 91 l 2,23,24
 336 73 336 73 337 51 c 128,-1,25
 338 29 338 29 342 4 c 1,0,-1
EndSplineSet
EndChar

StartChar: paragraph
Encoding: 182 182 120
Width: 380
Flags: W
LayerCount: 2
Fore
SplineSet
266 -63 m 1,0,-1
 232 -63 l 1,1,-1
 340 443 l 1,2,-1
 292 443 l 1,3,-1
 184 -63 l 1,4,-1
 149 -63 l 1,5,-1
 201 180 l 1,6,-1
 197 180 l 2,7,8
 137 180 137 180 97.5 217.5 c 128,-1,9
 58 255 58 255 72 321 c 0,10,11
 104 475 104 475 302 475 c 0,12,13
 355 475 355 475 379 470 c 1,14,-1
 266 -63 l 1,0,-1
EndSplineSet
EndChar

StartChar: periodcentered
Encoding: 183 183 121
Width: 172
Flags: W
LayerCount: 2
Fore
SplineSet
128 182 m 256,0,1
 124 162 124 162 107 148 c 128,-1,2
 90 134 90 134 70 134 c 256,3,4
 50 134 50 134 39 148 c 128,-1,5
 28 162 28 162 32 182 c 256,6,7
 36 202 36 202 53 216 c 128,-1,8
 70 230 70 230 90 230 c 256,9,10
 110 230 110 230 121 216 c 128,-1,11
 132 202 132 202 128 182 c 256,0,1
EndSplineSet
EndChar

StartChar: cedilla
Encoding: 184 184 122
Width: 249
Flags: W
LayerCount: 2
Fore
SplineSet
132 -90 m 0,0,1
 126 -122 126 -122 101 -140.5 c 128,-1,2
 76 -159 76 -159 38 -159 c 0,3,4
 24 -159 24 -159 8.5 -154.5 c 128,-1,5
 -7 -150 -7 -150 -20 -141 c 1,6,-1
 0 -109 l 1,7,8
 12 -116 12 -116 25.5 -120 c 128,-1,9
 39 -124 39 -124 47 -124 c 0,10,11
 79 -124 79 -124 86 -94 c 1,12,13
 91 -66 91 -66 30 -55 c 1,14,-1
 87 11 l 1,15,-1
 130 11 l 1,16,-1
 94 -28 l 1,17,18
 119 -36 119 -36 128 -51.5 c 128,-1,19
 137 -67 137 -67 132 -90 c 0,0,1
EndSplineSet
EndChar

StartChar: onesuperior
Encoding: 185 185 123
Width: 260
Flags: W
LayerCount: 2
Fore
SplineSet
207 195 m 1,0,-1
 73 195 l 1,1,-1
 81 234 l 1,2,-1
 124 234 l 1,3,-1
 162 414 l 1,4,-1
 114 376 l 1,5,-1
 97 410 l 1,6,-1
 195 484 l 1,7,8
 210 484 210 484 216 474.5 c 128,-1,9
 222 465 222 465 219 450 c 2,10,-1
 173 234 l 1,11,-1
 215 234 l 1,12,-1
 207 195 l 1,0,-1
EndSplineSet
EndChar

StartChar: ordmasculine
Encoding: 186 186 124
Width: 294
Flags: W
LayerCount: 2
Fore
SplineSet
306 359 m 0,0,1
 294 305 294 305 249 268.5 c 128,-1,2
 204 232 204 232 151 232 c 0,3,4
 97 232 97 232 68 268.5 c 128,-1,5
 39 305 39 305 51 359 c 0,6,7
 62 412 62 412 106.5 449.5 c 128,-1,8
 151 487 151 487 205 487 c 0,9,10
 258 487 258 487 287.5 449.5 c 128,-1,11
 317 412 317 412 306 359 c 0,0,1
262 359 m 256,12,13
 269 393 269 393 249.5 418 c 128,-1,14
 230 443 230 443 196 443 c 256,15,16
 162 443 162 443 132 418 c 128,-1,17
 102 393 102 393 95 359 c 256,18,19
 88 325 88 325 107 300.5 c 128,-1,20
 126 276 126 276 160 276 c 256,21,22
 194 276 194 276 224.5 300.5 c 128,-1,23
 255 325 255 325 262 359 c 256,12,13
EndSplineSet
EndChar

StartChar: guillemotright
Encoding: 187 187 125
Width: 356
Flags: W
LayerCount: 2
Fore
SplineSet
55 47 m 1,0,-1
 -4 47 l 1,1,-1
 138 180 l 1,2,-1
 53 314 l 1,3,-1
 112 314 l 1,4,-1
 198 179 l 1,5,-1
 55 47 l 1,0,-1
178 47 m 1,6,-1
 117 47 l 1,7,-1
 261 179 l 1,8,-1
 175 315 l 1,9,-1
 237 315 l 1,10,-1
 320 179 l 1,11,-1
 178 47 l 1,6,-1
EndSplineSet
EndChar

StartChar: onequarter
Encoding: 188 188 126
Width: 542
Flags: W
LayerCount: 2
Fore
SplineSet
390 108 m 1,0,-1
 416 226 l 1,1,2
 391 206 391 206 367.5 172.5 c 128,-1,3
 344 139 344 139 333 108 c 1,4,-1
 390 108 l 1,0,-1
420 0 m 1,5,-1
 368 0 l 1,6,-1
 380 60 l 1,7,-1
 271 60 l 1,8,9
 278 92 278 92 296.5 132 c 128,-1,10
 315 172 315 172 342.5 207.5 c 128,-1,11
 370 243 370 243 405.5 267.5 c 128,-1,12
 441 292 441 292 482 293 c 1,13,-1
 442 108 l 1,14,-1
 484 108 l 1,15,-1
 472 60 l 1,16,-1
 432 60 l 1,17,-1
 420 0 l 1,5,-1
173 176 m 1,18,-1
 39 176 l 1,19,-1
 47 215 l 1,20,-1
 90 215 l 1,21,-1
 127 389 l 1,22,-1
 82 356 l 1,23,-1
 62 392 l 1,24,-1
 162 466 l 1,25,26
 192 464 192 464 185 431 c 2,27,-1
 139 215 l 1,28,-1
 181 215 l 1,29,-1
 173 176 l 1,18,-1
112 -9 m 1,30,-1
 62 -9 l 1,31,-1
 451 474 l 1,32,-1
 501 474 l 1,33,-1
 112 -9 l 1,30,-1
EndSplineSet
Ligature2: "'frac' Diagonal Fractions in Latin lookup 0 subtable" one fraction four
Ligature2: "'frac' Diagonal Fractions in Latin lookup 0 subtable" one slash four
EndChar

StartChar: onehalf
Encoding: 189 189 127
Width: 542
Flags: W
LayerCount: 2
Fore
SplineSet
476 0 m 1,0,-1
 286 0 l 1,1,2
 297 38 297 38 325.5 67 c 128,-1,3
 354 96 354 96 384 119 c 1,4,5
 398 131 398 131 413 142.5 c 128,-1,6
 428 154 428 154 440.5 166 c 128,-1,7
 453 178 453 178 462 189.5 c 128,-1,8
 471 201 471 201 474 212 c 0,9,10
 477 226 477 226 470.5 236 c 128,-1,11
 464 246 464 246 447 246 c 0,12,13
 406 246 406 246 387 192 c 1,14,-1
 344 200 l 1,15,16
 358 245 358 245 387.5 268.5 c 128,-1,17
 417 292 417 292 454 292 c 0,18,19
 492 292 492 292 511.5 271 c 128,-1,20
 531 250 531 250 523 212 c 0,21,22
 517 187 517 187 498 165 c 128,-1,23
 479 143 479 143 455 122.5 c 128,-1,24
 431 102 431 102 407 83 c 128,-1,25
 383 64 383 64 367 46 c 1,26,-1
 491 46 l 1,27,-1
 476 0 l 1,0,-1
112 -9 m 1,28,-1
 62 -9 l 1,29,-1
 451 474 l 1,30,-1
 501 474 l 1,31,-1
 112 -9 l 1,28,-1
173 176 m 1,32,-1
 39 176 l 1,33,-1
 47 215 l 1,34,-1
 90 215 l 1,35,-1
 127 389 l 1,36,-1
 82 356 l 1,37,-1
 62 392 l 1,38,-1
 162 466 l 1,39,40
 192 464 192 464 185 431 c 2,41,-1
 139 215 l 1,42,-1
 181 215 l 1,43,-1
 173 176 l 1,32,-1
EndSplineSet
Ligature2: "'frac' Diagonal Fractions in Latin lookup 0 subtable" one fraction two
Ligature2: "'frac' Diagonal Fractions in Latin lookup 0 subtable" one slash two
EndChar

StartChar: threequarters
Encoding: 190 190 128
Width: 542
Flags: W
LayerCount: 2
Fore
SplineSet
390 108 m 1,0,-1
 416 226 l 1,1,2
 390 201 390 201 367 170 c 128,-1,3
 344 139 344 139 333 108 c 1,4,-1
 390 108 l 1,0,-1
420 0 m 1,5,-1
 368 0 l 1,6,-1
 380 60 l 1,7,-1
 271 60 l 1,8,9
 281 97 281 97 299.5 137.5 c 128,-1,10
 318 178 318 178 345 212.5 c 128,-1,11
 372 247 372 247 406.5 269.5 c 128,-1,12
 441 292 441 292 482 293 c 1,13,-1
 442 108 l 1,14,-1
 484 108 l 1,15,-1
 472 60 l 1,16,-1
 432 60 l 1,17,-1
 420 0 l 1,5,-1
112 -9 m 1,18,-1
 62 -9 l 1,19,-1
 451 474 l 1,20,-1
 501 474 l 1,21,-1
 112 -9 l 1,18,-1
239 285 m 0,22,23
 234 259 234 259 219.5 239 c 128,-1,24
 205 219 205 219 186 205.5 c 128,-1,25
 167 192 167 192 144 185 c 128,-1,26
 121 178 121 178 99 178 c 0,27,28
 58 178 58 178 30 203 c 1,29,-1
 59 246 l 1,30,31
 70 235 70 235 83 229.5 c 128,-1,32
 96 224 96 224 110 224 c 0,33,34
 142 224 142 224 164 241 c 128,-1,35
 186 258 186 258 192 284 c 0,36,37
 199 319 199 319 166 319 c 0,38,39
 141 319 141 319 116 301 c 1,40,-1
 107 331 l 1,41,42
 156 354 156 354 175 372 c 128,-1,43
 194 390 194 390 199 410 c 0,44,45
 200 418 200 418 195.5 423.5 c 128,-1,46
 191 429 191 429 178 429 c 0,47,48
 138 429 138 429 110 380 c 1,49,-1
 77 399 l 1,50,51
 123 471 123 471 190 471 c 0,52,53
 225 471 225 471 238 455 c 128,-1,54
 251 439 251 439 246 417 c 0,55,56
 239 383 239 383 202 355 c 1,57,58
 228 351 228 351 236.5 332 c 128,-1,59
 245 313 245 313 239 285 c 0,22,23
EndSplineSet
Ligature2: "'frac' Diagonal Fractions in Latin lookup 0 subtable" three fraction four
Ligature2: "'frac' Diagonal Fractions in Latin lookup 0 subtable" three slash four
EndChar

StartChar: questiondown
Encoding: 191 191 129
Width: 289
Flags: W
LayerCount: 2
Fore
SplineSet
196 -114 m 1,0,1
 129 -151 129 -151 73 -151 c 0,2,3
 16 -151 16 -151 -11.5 -120.5 c 128,-1,4
 -39 -90 -39 -90 -28 -39 c 0,5,6
 -17 14 -17 14 63 82 c 0,7,8
 91 105 91 105 107 128.5 c 128,-1,9
 123 152 123 152 128 173 c 0,10,11
 132 190 132 190 130 215 c 1,12,-1
 187 215 l 1,13,14
 189 201 189 201 189 189.5 c 128,-1,15
 189 178 189 178 188 170 c 0,16,17
 176 115 176 115 105 54 c 0,18,19
 43 0 43 0 35 -37 c 0,20,21
 23 -94 23 -94 93 -94 c 0,22,23
 136 -94 136 -94 182 -65 c 1,24,-1
 196 -114 l 1,0,1
219 293 m 256,25,26
 215 273 215 273 198 259 c 128,-1,27
 181 245 181 245 162 245 c 256,28,29
 143 245 143 245 132 259 c 128,-1,30
 121 273 121 273 125 293 c 256,31,32
 129 313 129 313 146 327 c 128,-1,33
 163 341 163 341 182 341 c 256,34,35
 201 341 201 341 212 327 c 128,-1,36
 223 313 223 313 219 293 c 256,25,26
EndSplineSet
EndChar

StartChar: AE
Encoding: 198 198 136
Width: 583
Flags: W
LayerCount: 2
Fore
SplineSet
511 0 m 1,0,-1
 282 0 l 1,1,-1
 295 190 l 1,2,-1
 155 190 l 1,3,-1
 14 0 l 1,4,-1
 -54 0 l 1,5,-1
 307 483 l 1,6,-1
 601 483 l 1,7,-1
 589 428 l 1,8,-1
 371 428 l 1,9,-1
 359 281 l 1,10,-1
 548 281 l 1,11,-1
 537 226 l 1,12,-1
 357 226 l 1,13,-1
 346 55 l 1,14,-1
 522 55 l 1,15,-1
 511 0 l 1,0,-1
298 244 m 1,16,-1
 314 405 l 1,17,-1
 193 244 l 1,18,-1
 298 244 l 1,16,-1
EndSplineSet
EndChar

StartChar: Eth
Encoding: 208 208 146
Width: 459
Flags: W
LayerCount: 2
Fore
SplineSet
441 248 m 0,0,1
 418 140 418 140 352 75 c 0,2,3
 272 -4 272 -4 139 -4 c 0,4,5
 98 -4 98 -4 7 6 c 1,6,-1
 49 206 l 1,7,-1
 8 206 l 1,8,-1
 20 260 l 1,9,-1
 61 260 l 1,10,-1
 105 468 l 1,11,12
 222 481 222 481 262 481 c 0,13,14
 384 481 384 481 427 408 c 1,15,16
 463 349 463 349 441 248 c 0,0,1
377 248 m 0,17,18
 415 427 415 427 247 427 c 0,19,20
 219 427 219 427 158 421 c 1,21,-1
 124 260 l 1,22,-1
 284 260 l 1,23,-1
 272 206 l 1,24,-1
 112 206 l 1,25,-1
 80 53 l 1,26,27
 112 50 112 50 162 50 c 0,28,29
 259 50 259 50 318 119 c 0,30,31
 361 170 361 170 377 248 c 0,17,18
EndSplineSet
EndChar

StartChar: multiply
Encoding: 215 215 153
Width: 417
Flags: W
LayerCount: 2
Fore
SplineSet
353 34 m 1,0,-1
 304 -5 l 1,1,-1
 194 143 l 1,2,3
 152 108 152 108 107.5 69 c 128,-1,4
 63 30 63 30 21 -5 c 1,5,-1
 -9 34 l 1,6,-1
 163 182 l 1,7,8
 136 219 136 219 108.5 257.5 c 128,-1,9
 81 296 81 296 53 333 c 1,10,-1
 102 372 l 1,11,-1
 212 224 l 1,12,13
 254 260 254 260 299 298.5 c 128,-1,14
 344 337 344 337 385 372 c 1,15,-1
 416 333 l 1,16,-1
 241 183 l 1,17,-1
 353 34 l 1,0,-1
EndSplineSet
EndChar

StartChar: Oslash
Encoding: 216 216 154
Width: 518
Flags: W
LayerCount: 2
Fore
SplineSet
498 237 m 256,0,1
 476 132 476 132 395.5 61 c 128,-1,2
 315 -10 315 -10 212 -10 c 0,3,4
 165 -10 165 -10 129 4 c 1,5,-1
 107 -28 l 1,6,-1
 43 -28 l 1,7,-1
 85 31 l 1,8,9
 71 44 71 44 59 61 c 0,10,11
 10 132 10 132 32 237 c 256,12,13
 54 342 54 342 134.5 413.5 c 128,-1,14
 215 485 215 485 318 485 c 0,15,16
 367 485 367 485 403 469 c 1,17,-1
 420 492 l 1,18,-1
 484 492 l 1,19,-1
 446 440 l 1,20,21
 459 428 459 428 470 413 c 0,22,23
 520 342 520 342 498 237 c 256,0,1
368 419 m 1,24,25
 341 431 341 431 306 431 c 0,26,27
 229 431 229 431 170.5 375.5 c 128,-1,28
 112 320 112 320 94 238 c 0,29,30
 77 156 77 156 112 100 c 0,31,32
 117 91 117 91 123 84 c 1,33,-1
 368 419 l 1,24,25
436 238 m 0,34,35
 454 320 454 320 418 375 c 0,36,37
 414 382 414 382 409 388 c 1,38,-1
 166 55 l 1,39,40
 191 45 191 45 224 45 c 0,41,42
 301 45 301 45 360 100.5 c 128,-1,43
 419 156 419 156 436 238 c 0,34,35
EndSplineSet
EndChar

StartChar: Thorn
Encoding: 222 222 160
Width: 394
Flags: W
LayerCount: 2
Fore
SplineSet
365 249 m 0,0,1
 349 172 349 172 289.5 131.5 c 128,-1,2
 230 91 230 91 139 91 c 0,3,4
 107 91 107 91 88 95 c 1,5,-1
 68 0 l 1,6,-1
 9 0 l 1,7,-1
 110 476 l 1,8,-1
 169 476 l 1,9,-1
 153 403 l 1,10,11
 174 407 174 407 206 407 c 0,12,13
 297 407 297 407 339.5 366.5 c 128,-1,14
 382 326 382 326 365 249 c 0,0,1
307 249 m 0,15,16
 330 355 330 355 197 355 c 0,17,18
 166 355 166 355 141 347 c 1,19,-1
 100 151 l 1,20,21
 121 143 121 143 152 143 c 0,22,23
 285 143 285 143 307 249 c 0,15,16
EndSplineSet
EndChar

StartChar: germandbls
Encoding: 223 223 161
Width: 425
Flags: W
LayerCount: 2
Fore
SplineSet
355 109 m 0,0,1
 343 54 343 54 302 22.5 c 128,-1,2
 261 -9 261 -9 203 -9 c 0,3,4
 177 -9 177 -9 154.5 -2.5 c 128,-1,5
 132 4 132 4 112 16 c 1,6,-1
 143 70 l 1,7,8
 183 46 183 46 215 46 c 256,9,10
 247 46 247 46 268.5 62.5 c 128,-1,11
 290 79 290 79 295 103 c 0,12,13
 300 125 300 125 288.5 142 c 128,-1,14
 277 159 277 159 262 175.5 c 128,-1,15
 247 192 247 192 236 210 c 128,-1,16
 225 228 225 228 230 252 c 0,17,18
 233 265 233 265 246 280.5 c 128,-1,19
 259 296 259 296 275 311.5 c 128,-1,20
 291 327 291 327 304 341.5 c 128,-1,21
 317 356 317 356 320 368 c 0,22,23
 334 435 334 435 262 435 c 0,24,25
 178 435 178 435 145 281 c 2,26,-1
 77 -40 l 2,27,28
 71 -66 71 -66 59 -92 c 128,-1,29
 47 -118 47 -118 28 -143 c 1,30,-1
 -25 -128 l 1,31,32
 -6 -103 -6 -103 3.5 -81.5 c 128,-1,33
 13 -60 13 -60 17 -40 c 2,34,-1
 89 297 l 2,35,36
 130 492 130 492 281 492 c 0,37,38
 335 492 335 492 362.5 459.5 c 128,-1,39
 390 427 390 427 378 370 c 0,40,41
 373 347 373 347 359 328.5 c 128,-1,42
 345 310 345 310 330.5 295 c 128,-1,43
 316 280 316 280 303.5 269 c 128,-1,44
 291 258 291 258 289 249 c 0,45,46
 287 239 287 239 299.5 225.5 c 128,-1,47
 312 212 312 212 325.5 194 c 128,-1,48
 339 176 339 176 349.5 155 c 128,-1,49
 360 134 360 134 355 109 c 0,0,1
EndSplineSet
EndChar

StartChar: ae
Encoding: 230 230 168
Width: 621
Flags: W
LayerCount: 2
Fore
SplineSet
539 18 m 1,0,1
 466 -9 466 -9 394 -9 c 0,2,3
 296 -9 296 -9 258 61 c 1,4,5
 207 -9 207 -9 101 -9 c 0,6,7
 76 -9 76 -9 55.5 -2 c 128,-1,8
 35 5 35 5 21 18 c 128,-1,9
 7 31 7 31 2 50 c 128,-1,10
 -3 69 -3 69 1 93 c 1,11,12
 29 223 29 223 257 225 c 1,13,14
 263 259 263 259 246.5 280.5 c 128,-1,15
 230 302 230 302 192 302 c 0,16,17
 160 302 160 302 68 276 c 1,18,-1
 72 333 l 1,19,20
 147 354 147 354 207 354 c 0,21,22
 252 354 252 354 278.5 340.5 c 128,-1,23
 305 327 305 327 315 293 c 1,24,25
 376 354 376 354 467 354 c 0,26,27
 621 354 621 354 585 160 c 1,28,-1
 306 160 l 1,29,30
 299 105 299 105 327 76 c 128,-1,31
 355 47 355 47 409 47 c 0,32,33
 467 47 467 47 546 73 c 1,34,-1
 539 18 l 1,0,1
246 170 m 1,35,36
 160 169 160 169 118 151.5 c 128,-1,37
 76 134 76 134 69 99 c 0,38,39
 63 73 63 73 76.5 59.5 c 128,-1,40
 90 46 90 46 114 46 c 0,41,42
 162 46 162 46 196.5 73 c 128,-1,43
 231 100 231 100 241 148 c 2,44,-1
 246 170 l 1,35,36
534 213 m 1,45,46
 535 250 535 250 514.5 276 c 128,-1,47
 494 302 494 302 452 302 c 0,48,49
 408 302 408 302 374.5 278.5 c 128,-1,50
 341 255 341 255 323 213 c 1,51,-1
 534 213 l 1,45,46
EndSplineSet
EndChar

StartChar: eth
Encoding: 240 240 178
Width: 378
Flags: W
LayerCount: 2
Fore
SplineSet
331 163 m 0,0,1
 314 82 314 82 258 33 c 128,-1,2
 202 -16 202 -16 132 -16 c 0,3,4
 69 -16 69 -16 38 29.5 c 128,-1,5
 7 75 7 75 22 142 c 0,6,7
 36 208 36 208 86.5 253 c 128,-1,8
 137 298 137 298 197 298 c 256,9,10
 257 298 257 298 279 266 c 1,11,12
 266 316 266 316 215 364 c 0,13,14
 214 365 214 365 213 365 c 2,15,-1
 101 313 l 1,16,-1
 83 357 l 1,17,-1
 172 398 l 1,18,19
 140 418 140 418 107 428 c 1,20,-1
 124 478 l 1,21,22
 191 464 191 464 239 429 c 1,23,-1
 340 476 l 1,24,-1
 352 430 l 1,25,-1
 276 395 l 1,26,27
 359 295 359 295 331 163 c 0,0,1
259 142 m 0,28,29
 268 185 268 185 247.5 214.5 c 128,-1,30
 227 244 227 244 189 244 c 0,31,32
 153 244 153 244 120.5 213 c 128,-1,33
 88 182 88 182 80 142 c 0,34,35
 71 102 71 102 90.5 71 c 128,-1,36
 110 40 110 40 146 40 c 0,37,38
 184 40 184 40 217 70 c 128,-1,39
 250 100 250 100 259 142 c 0,28,29
EndSplineSet
EndChar

StartChar: divide
Encoding: 247 247 185
Width: 417
Flags: W
LayerCount: 2
Fore
SplineSet
380 157 m 1,0,-1
 15 157 l 1,1,-1
 26 211 l 1,2,-1
 391 211 l 1,3,-1
 380 157 l 1,0,-1
224 56 m 0,4,5
 220 36 220 36 203 22 c 128,-1,6
 186 8 186 8 167 8 c 256,7,8
 148 8 148 8 137 22 c 128,-1,9
 126 36 126 36 130 56 c 0,10,11
 135 76 135 76 152 90 c 128,-1,12
 169 104 169 104 188 104 c 256,13,14
 207 104 207 104 218 90 c 128,-1,15
 229 76 229 76 224 56 c 0,4,5
279 313 m 256,16,17
 275 293 275 293 258 279 c 128,-1,18
 241 265 241 265 222 265 c 256,19,20
 203 265 203 265 192 279 c 128,-1,21
 181 293 181 293 185 313 c 256,22,23
 189 333 189 333 206 347 c 128,-1,24
 223 361 223 361 242 361 c 256,25,26
 261 361 261 361 272 347 c 128,-1,27
 283 333 283 333 279 313 c 256,16,17
EndSplineSet
EndChar

StartChar: oslash
Encoding: 248 248 186
Width: 412
Flags: W
LayerCount: 2
Fore
SplineSet
378 172 m 256,0,1
 362 96 362 96 300 44 c 128,-1,2
 238 -8 238 -8 160 -8 c 0,3,4
 127 -8 127 -8 101 1 c 1,5,-1
 80 -28 l 1,6,-1
 16 -28 l 1,7,-1
 56 28 l 1,8,9
 48 35 48 35 42 44 c 0,10,11
 2 96 2 96 18 172 c 256,12,13
 34 248 34 248 96.5 300.5 c 128,-1,14
 159 353 159 353 237 353 c 0,15,16
 265 353 265 353 288 346 c 1,17,-1
 312 378 l 1,18,-1
 376 378 l 1,19,-1
 335 321 l 1,20,21
 345 312 345 312 354 300 c 0,22,23
 394 248 394 248 378 172 c 256,0,1
316 172 m 0,24,25
 328 226 328 226 302 262 c 0,26,27
 299 266 299 266 297 269 c 1,28,-1
 136 50 l 1,29,30
 152 45 152 45 171 45 c 0,31,32
 223 45 223 45 264 81.5 c 128,-1,33
 305 118 305 118 316 172 c 0,24,25
251 296 m 1,34,35
 239 299 239 299 225 299 c 0,36,37
 173 299 173 299 132.5 262.5 c 128,-1,38
 92 226 92 226 80 172 c 0,39,40
 69 118 69 118 94 81 c 1,41,-1
 95 80 l 1,42,-1
 251 296 l 1,34,35
EndSplineSet
EndChar

StartChar: thorn
Encoding: 254 254 192
Width: 438
Flags: W
LayerCount: 2
Fore
SplineSet
396 179 m 0,0,1
 378 95 378 95 317.5 43 c 128,-1,2
 257 -9 257 -9 179 -9 c 0,3,4
 112 -9 112 -9 76 32 c 1,5,-1
 41 -134 l 1,6,-1
 -17 -134 l 1,7,-1
 112 476 l 1,8,-1
 171 476 l 1,9,-1
 135 307 l 1,10,11
 195 354 195 354 266 354 c 0,12,13
 339 354 339 354 375.5 304.5 c 128,-1,14
 412 255 412 255 396 179 c 0,0,1
337 178 m 0,15,16
 349 232 349 232 324.5 267 c 128,-1,17
 300 302 300 302 249 302 c 0,18,19
 202 302 202 302 161.5 272.5 c 128,-1,20
 121 243 121 243 111 196 c 2,21,-1
 99 139 l 2,22,23
 91 101 91 101 119.5 73.5 c 128,-1,24
 148 46 148 46 193 46 c 0,25,26
 245 46 245 46 284.5 81 c 128,-1,27
 324 116 324 116 337 178 c 0,15,16
EndSplineSet
EndChar

StartChar: dotlessi
Encoding: 305 305 194
Width: 163
Flags: W
LayerCount: 2
Fore
SplineSet
69 0 m 1,0,-1
 6 0 l 1,1,-1
 78 340 l 1,2,-1
 141 340 l 1,3,-1
 69 0 l 1,0,-1
EndSplineSet
EndChar

StartChar: Lslash
Encoding: 321 321 195
Width: 359
Flags: W
LayerCount: 2
Fore
SplineSet
302 0 m 1,0,-1
 6 0 l 1,1,-1
 37 149 l 1,2,-1
 7 142 l 1,3,-1
 20 204 l 1,4,-1
 50 211 l 1,5,-1
 107 476 l 1,6,-1
 170 476 l 1,7,-1
 117 226 l 1,8,-1
 353 279 l 1,9,-1
 340 217 l 1,10,-1
 103 164 l 1,11,-1
 80 54 l 1,12,-1
 313 54 l 1,13,-1
 302 0 l 1,0,-1
EndSplineSet
EndChar

StartChar: lslash
Encoding: 322 322 196
Width: 217
Flags: W
LayerCount: 2
Fore
SplineSet
173 49 m 1,0,-1
 154 -8 l 1,1,2
 7 0 7 0 44 175 c 2,3,-1
 57 236 l 1,4,-1
 11 224 l 1,5,-1
 23 278 l 1,6,-1
 68 290 l 1,7,-1
 114 504 l 1,8,-1
 177 504 l 1,9,-1
 135 309 l 1,10,-1
 234 337 l 1,11,-1
 223 283 l 1,12,-1
 124 255 l 1,13,-1
 110 189 l 2,14,15
 93 112 93 112 111 80 c 0,16,17
 126 53 126 53 173 49 c 1,0,-1
EndSplineSet
EndChar

StartChar: OE
Encoding: 338 338 197
Width: 723
Flags: W
LayerCount: 2
Fore
SplineSet
654 0 m 1,0,-1
 371 0 l 1,1,-1
 376 27 l 1,2,3
 308 -10 308 -10 232 -10 c 0,4,5
 121 -10 121 -10 65.5 61 c 128,-1,6
 10 132 10 132 32 238 c 0,7,8
 54 343 54 343 140.5 414.5 c 128,-1,9
 227 486 227 486 338 486 c 0,10,11
 414 486 414 486 466 448 c 1,12,-1
 472 476 l 1,13,-1
 755 476 l 1,14,-1
 743 422 l 1,15,-1
 523 422 l 1,16,-1
 493 278 l 1,17,-1
 689 278 l 1,18,-1
 677 224 l 1,19,-1
 481 224 l 1,20,-1
 445 54 l 1,21,-1
 665 54 l 1,22,-1
 654 0 l 1,0,-1
393 104 m 1,23,-1
 449 369 l 1,24,25
 411 431 411 431 326 431 c 0,26,27
 250 431 250 431 180.5 372.5 c 128,-1,28
 111 314 111 314 95 238 c 0,29,30
 79 160 79 160 123 102 c 128,-1,31
 167 44 167 44 244 44 c 0,32,33
 329 44 329 44 393 104 c 1,23,-1
EndSplineSet
EndChar

StartChar: oe
Encoding: 339 339 198
Width: 689
Flags: W
LayerCount: 2
Fore
SplineSet
613 73 m 1,0,-1
 608 18 l 1,1,2
 530 -9 530 -9 464 -9 c 0,3,4
 363 -9 363 -9 322 65 c 1,5,6
 254 -8 254 -8 160 -8 c 0,7,8
 82 -8 82 -8 42 44 c 128,-1,9
 2 96 2 96 18 172 c 256,10,11
 34 248 34 248 96.5 300.5 c 128,-1,12
 159 353 159 353 237 353 c 0,13,14
 334 353 334 353 368 276 c 1,15,16
 445 353 445 353 537 353 c 0,17,18
 691 353 691 353 653 160 c 1,19,-1
 376 160 l 1,20,21
 368 107 368 107 396 77 c 128,-1,22
 424 47 424 47 479 47 c 256,23,24
 534 47 534 47 613 73 c 1,0,-1
316 172 m 0,25,26
 328 226 328 226 302.5 262.5 c 128,-1,27
 277 299 277 299 225 299 c 256,28,29
 173 299 173 299 132.5 262.5 c 128,-1,30
 92 226 92 226 80 172 c 0,31,32
 69 118 69 118 94 81.5 c 128,-1,33
 119 45 119 45 171 45 c 256,34,35
 223 45 223 45 264 81.5 c 128,-1,36
 305 118 305 118 316 172 c 0,25,26
391 213 m 1,37,-1
 602 213 l 1,38,39
 605 253 605 253 582.5 277 c 128,-1,40
 560 301 560 301 519 301 c 0,41,42
 479 301 479 301 442.5 276.5 c 128,-1,43
 406 252 406 252 391 213 c 1,37,-1
EndSplineSet
EndChar

StartChar: florin
Encoding: 402 402 204
Width: 404
Flags: W
LayerCount: 2
Fore
SplineSet
336 254 m 1,0,-1
 242 254 l 1,1,-1
 173 93 l 2,2,3
 104 -69 104 -69 -20 -69 c 0,4,5
 -59 -69 -59 -69 -80 -44 c 1,6,-1
 -45 0 l 1,7,8
 -23 -14 -23 -14 1 -14 c 0,9,10
 66 -14 66 -14 114 98 c 2,11,-1
 181 254 l 1,12,-1
 127 254 l 1,13,-1
 149 306 l 1,14,-1
 205 306 l 1,15,-1
 211 322 l 1,16,17
 248 400 248 400 296.5 442 c 128,-1,18
 345 484 345 484 405 484 c 0,19,20
 444 484 444 484 465 459 c 1,21,-1
 430 415 l 1,22,23
 409 429 409 429 384 429 c 0,24,25
 318 429 318 429 270 317 c 1,26,-1
 265 306 l 1,27,-1
 358 306 l 1,28,-1
 336 254 l 1,0,-1
EndSplineSet
EndChar

StartChar: circumflex
Encoding: 710 710 205
Width: 218
Flags: W
LayerCount: 2
Fore
SplineSet
241 385 m 1,0,-1
 187 385 l 1,1,-1
 161 456 l 1,2,-1
 106 385 l 1,3,-1
 51 385 l 1,4,-1
 154 500 l 1,5,-1
 189 500 l 1,6,-1
 241 385 l 1,0,-1
EndSplineSet
EndChar

StartChar: caron
Encoding: 711 711 206
Width: 308
Flags: W
LayerCount: 2
Fore
SplineSet
208 385 m 1,0,-1
 173 385 l 1,1,-1
 121 500 l 1,2,-1
 175 500 l 1,3,-1
 201 429 l 1,4,-1
 256 500 l 1,5,-1
 311 500 l 1,6,-1
 208 385 l 1,0,-1
EndSplineSet
EndChar

StartChar: breve
Encoding: 728 728 207
Width: 342
Flags: W
LayerCount: 2
Fore
SplineSet
349 491 m 1,0,1
 327 434 327 434 291 406.5 c 128,-1,2
 255 379 255 379 207 379 c 256,3,4
 159 379 159 379 135 406.5 c 128,-1,5
 111 434 111 434 113 491 c 1,6,-1
 167 491 l 1,7,8
 167 466 167 466 178 446.5 c 128,-1,9
 189 427 189 427 217 427 c 256,10,11
 245 427 245 427 265.5 446.5 c 128,-1,12
 286 466 286 466 296 491 c 1,13,-1
 349 491 l 1,0,1
EndSplineSet
EndChar

StartChar: dotaccent
Encoding: 729 729 208
Width: 193
Flags: W
LayerCount: 2
Fore
SplineSet
211 545 m 0,0,1
 207 526 207 526 191.5 513.5 c 128,-1,2
 176 501 176 501 159 501 c 256,3,4
 142 501 142 501 131 513.5 c 128,-1,5
 120 526 120 526 124 545 c 0,6,7
 128 563 128 563 144.5 576 c 128,-1,8
 161 589 161 589 178 589 c 256,9,10
 195 589 195 589 205 576 c 128,-1,11
 215 563 215 563 211 545 c 0,0,1
EndSplineSet
EndChar

StartChar: ring
Encoding: 730 730 209
Width: 266
Flags: W
LayerCount: 2
Fore
SplineSet
267 464 m 256,0,1
 260 431 260 431 231.5 407.5 c 128,-1,2
 203 384 203 384 170 384 c 256,3,4
 137 384 137 384 118.5 407.5 c 128,-1,5
 100 431 100 431 107 464 c 256,6,7
 114 497 114 497 142.5 520.5 c 128,-1,8
 171 544 171 544 204 544 c 256,9,10
 237 544 237 544 255.5 520.5 c 128,-1,11
 274 497 274 497 267 464 c 256,0,1
225 464 m 0,12,13
 229 480 229 480 220 491 c 128,-1,14
 211 502 211 502 195 502 c 256,15,16
 179 502 179 502 165.5 491 c 128,-1,17
 152 480 152 480 148 464 c 0,18,19
 145 448 145 448 154 436.5 c 128,-1,20
 163 425 163 425 179 425 c 256,21,22
 195 425 195 425 208.5 436.5 c 128,-1,23
 222 448 222 448 225 464 c 0,12,13
EndSplineSet
EndChar

StartChar: ogonek
Encoding: 731 731 210
Width: 255
Flags: W
LayerCount: 2
Fore
SplineSet
129 -136 m 1,0,1
 84 -153 84 -153 52 -153 c 0,2,3
 13 -153 13 -153 0 -130 c 128,-1,4
 -13 -107 -13 -107 -7 -76 c 0,5,6
 -3 -57 -3 -57 7.5 -33 c 128,-1,7
 18 -9 18 -9 32 19 c 1,8,-1
 91 19 l 1,9,10
 58 -34 58 -34 52 -62 c 0,11,12
 46 -94 46 -94 73 -97 c 1,13,14
 84 -97 84 -97 102.5 -91.5 c 128,-1,15
 121 -86 121 -86 141 -78 c 1,16,-1
 129 -136 l 1,0,1
EndSplineSet
EndChar

StartChar: tilde
Encoding: 732 732 211
Width: 259
Flags: W
LayerCount: 2
Fore
SplineSet
278 443 m 1,0,1
 269 408 269 408 250.5 387.5 c 128,-1,2
 232 367 232 367 203 367 c 0,3,4
 195 367 195 367 184 371.5 c 128,-1,5
 173 376 173 376 162 381.5 c 128,-1,6
 151 387 151 387 141 391.5 c 128,-1,7
 131 396 131 396 124 396 c 0,8,9
 116 396 116 396 112 388.5 c 128,-1,10
 108 381 108 381 107 372 c 1,11,-1
 63 372 l 1,12,13
 69 402 69 402 88 422.5 c 128,-1,14
 107 443 107 443 134 443 c 0,15,16
 143 443 143 443 153.5 439 c 128,-1,17
 164 435 164 435 174 429.5 c 128,-1,18
 184 424 184 424 193.5 420 c 128,-1,19
 203 416 203 416 210 416 c 0,20,21
 229 416 229 416 235 443 c 1,22,-1
 278 443 l 1,0,1
EndSplineSet
EndChar

StartChar: hungarumlaut
Encoding: 733 733 212
Width: 359
Flags: W
LayerCount: 2
Fore
SplineSet
245 320 m 1,0,-1
 203 320 l 1,1,-1
 302 491 l 1,2,-1
 366 491 l 1,3,-1
 245 320 l 1,0,-1
119 320 m 1,4,-1
 77 320 l 1,5,-1
 176 491 l 1,6,-1
 239 491 l 1,7,-1
 119 320 l 1,4,-1
EndSplineSet
EndChar

StartChar: uni0E01
Encoding: 3585 3585 214
Width: 391
Flags: W
LayerCount: 2
Fore
SplineSet
306 47 m 2,0,1
 294 -10 294 -10 259 -27 c 1,2,-1
 210 0 l 1,3,4
 239 17 239 17 249 70 c 1,5,-1
 290 265 l 2,6,7
 299 306 299 306 279 330 c 128,-1,8
 259 354 259 354 218 354 c 0,9,10
 158 354 158 354 116 303 c 1,11,12
 161 294 161 294 173 258 c 1,13,14
 116 228 116 228 107 186 c 2,15,-1
 68 0 l 1,16,-1
 6 0 l 1,17,-1
 46 190 l 2,18,19
 55 232 55 232 101 256 c 1,20,21
 80 273 80 273 42 268 c 1,22,23
 58 330 58 330 112 370 c 0,24,25
 162 407 162 407 227 407 c 0,26,27
 299 407 299 407 332.5 368.5 c 128,-1,28
 366 330 366 330 352 264 c 2,29,-1
 306 47 l 2,0,1
EndSplineSet
EndChar

StartChar: uni0E02
Encoding: 3586 3586 215
Width: 415
Flags: W
LayerCount: 2
Fore
SplineSet
142 286 m 0,0,1
 145 299 145 299 138 308 c 128,-1,2
 131 317 131 317 118 317 c 256,3,4
 105 317 105 317 94 308 c 128,-1,5
 83 299 83 299 80 286 c 0,6,7
 78 273 78 273 85 264 c 128,-1,8
 92 255 92 255 105 255 c 256,9,10
 118 255 118 255 129 264 c 128,-1,11
 140 273 140 273 142 286 c 0,0,1
339 94 m 2,12,13
 329 45 329 45 293 18.5 c 128,-1,14
 257 -8 257 -8 207 -8 c 256,15,16
 157 -8 157 -8 132 18.5 c 128,-1,17
 107 45 107 45 117 94 c 2,18,-1
 131 159 l 2,19,20
 137 188 137 188 174 236.5 c 128,-1,21
 211 285 211 285 217 313 c 0,22,23
 222 336 222 336 209 351 c 128,-1,24
 196 366 196 366 175 366 c 0,25,26
 143 366 143 366 130 353 c 1,27,28
 159 352 159 352 174 334 c 128,-1,29
 189 316 189 316 183 288 c 0,30,31
 176 258 176 258 151 237.5 c 128,-1,32
 126 217 126 217 97 217 c 0,33,34
 63 217 63 217 47.5 241.5 c 128,-1,35
 32 266 32 266 39 301 c 0,36,37
 49 347 49 347 92 377 c 128,-1,38
 135 407 135 407 183 407 c 0,39,40
 233 407 233 407 259.5 383 c 128,-1,41
 286 359 286 359 276 313 c 0,42,43
 270 283 270 283 233.5 229 c 128,-1,44
 197 175 197 175 192 153 c 2,45,-1
 177 80 l 2,46,47
 173 63 173 63 186.5 54 c 128,-1,48
 200 45 200 45 218 45 c 0,49,50
 237 45 237 45 254 54.5 c 128,-1,51
 271 64 271 64 275 80 c 2,52,-1
 334 360 l 2,53,54
 346 416 346 416 381 433 c 1,55,-1
 436 410 l 1,56,57
 403 395 403 395 391 337 c 2,58,-1
 339 94 l 2,12,13
EndSplineSet
EndChar

StartChar: uni0E03
Encoding: 3587 3587 216
Width: 431
Flags: W
LayerCount: 2
Fore
SplineSet
137 243 m 256,0,1
 140 256 140 256 133 265 c 128,-1,2
 126 274 126 274 113 274 c 256,3,4
 100 274 100 274 89 265 c 128,-1,5
 78 256 78 256 75 243 c 256,6,7
 72 230 72 230 79.5 221 c 128,-1,8
 87 212 87 212 100 212 c 256,9,10
 113 212 113 212 123.5 221 c 128,-1,11
 134 230 134 230 137 243 c 256,0,1
355 94 m 2,12,13
 345 45 345 45 309 18.5 c 128,-1,14
 273 -8 273 -8 223 -8 c 256,15,16
 173 -8 173 -8 148 18.5 c 128,-1,17
 123 45 123 45 133 94 c 2,18,-1
 143 139 l 2,19,20
 150 171 150 171 194.5 223.5 c 128,-1,21
 239 276 239 276 246 306 c 1,22,23
 249 344 249 344 225 359 c 1,24,-1
 180 321 l 1,25,-1
 144 361 l 1,26,27
 133 355 133 355 118 339.5 c 128,-1,28
 103 324 103 324 100 312 c 1,29,30
 115 315 115 315 121 315 c 0,31,32
 151 315 151 315 168 294 c 128,-1,33
 185 273 185 273 178 243 c 0,34,35
 172 213 172 213 147 192 c 128,-1,36
 122 171 122 171 91 171 c 0,37,38
 56 171 56 171 40 200 c 128,-1,39
 24 229 24 229 31 263 c 0,40,41
 43 316 43 316 80.5 359.5 c 128,-1,42
 118 403 118 403 164 407 c 1,43,-1
 190 373 l 1,44,-1
 228 408 l 1,45,46
 314 388 314 388 296 302 c 0,47,48
 289 271 289 271 251 223 c 128,-1,49
 213 175 213 175 207 147 c 2,50,-1
 193 80 l 2,51,52
 189 63 189 63 202.5 54 c 128,-1,53
 216 45 216 45 234 45 c 0,54,55
 253 45 253 45 270 54.5 c 128,-1,56
 287 64 287 64 291 80 c 2,57,-1
 350 360 l 2,58,59
 362 416 362 416 397 433 c 1,60,-1
 452 410 l 1,61,62
 419 395 419 395 407 337 c 2,63,-1
 355 94 l 2,12,13
EndSplineSet
EndChar

StartChar: uni0E04
Encoding: 3588 3588 217
Width: 403
Flags: W
LayerCount: 2
Fore
SplineSet
237 238 m 256,0,1
 240 251 240 251 233 260 c 128,-1,2
 226 269 226 269 213 269 c 256,3,4
 200 269 200 269 189.5 260 c 128,-1,5
 179 251 179 251 176 238 c 256,6,7
 173 225 173 225 180 216.5 c 128,-1,8
 187 208 187 208 200 208 c 256,9,10
 213 208 213 208 223.5 216.5 c 128,-1,11
 234 225 234 225 237 238 c 256,0,1
318 47 m 2,12,13
 306 -10 306 -10 271 -27 c 1,14,-1
 222 0 l 1,15,16
 251 17 251 17 261 70 c 1,17,-1
 304 273 l 2,18,19
 311 309 311 309 285 333 c 0,20,21
 261 354 261 354 223 354 c 0,22,23
 178 354 178 354 144.5 323.5 c 128,-1,24
 111 293 111 293 102 253 c 0,25,26
 100 242 100 242 99 216.5 c 128,-1,27
 98 191 98 191 94 172 c 2,28,-1
 88 144 l 2,29,30
 88 145 88 145 96 165.5 c 128,-1,31
 104 186 104 186 107 197 c 1,32,33
 126 239 126 239 153 267 c 0,34,35
 187 303 187 303 221 303 c 0,36,37
 248 303 248 303 264 284 c 128,-1,38
 280 265 280 265 274 238 c 0,39,40
 269 212 269 212 244.5 192.5 c 128,-1,41
 220 173 220 173 193 173 c 0,42,43
 168 173 168 173 152 191 c 1,44,45
 103 100 103 100 82 0 c 1,46,-1
 20 0 l 1,47,-1
 33 64 l 2,48,49
 43 111 43 111 38.5 166.5 c 128,-1,50
 34 222 34 222 40 254 c 0,51,52
 55 323 55 323 114 366 c 0,53,54
 170 407 170 407 239 407 c 0,55,56
 302 407 302 407 338 374 c 0,57,58
 379 336 379 336 365 271 c 2,59,-1
 318 47 l 2,12,13
EndSplineSet
EndChar

StartChar: uni0E05
Encoding: 3589 3589 218
Width: 403
Flags: W
LayerCount: 2
Fore
SplineSet
232 216 m 0,0,1
 235 229 235 229 228 238 c 128,-1,2
 221 247 221 247 208 247 c 256,3,4
 195 247 195 247 184.5 238 c 128,-1,5
 174 229 174 229 171 216 c 0,6,7
 169 203 169 203 175.5 194.5 c 128,-1,8
 182 186 182 186 195 186 c 256,9,10
 208 186 208 186 219 194.5 c 128,-1,11
 230 203 230 203 232 216 c 0,0,1
318 47 m 2,12,13
 306 -10 306 -10 271 -27 c 1,14,-1
 222 0 l 1,15,16
 251 17 251 17 261 70 c 1,17,-1
 304 273 l 2,18,19
 316 334 316 334 294 353 c 1,20,-1
 223 314 l 1,21,-1
 163 353 l 1,22,23
 118 326 118 326 104 262 c 0,24,25
 100 243 100 243 98 208.5 c 128,-1,26
 96 174 96 174 90 141 c 1,27,-1
 89 132 l 2,28,29
 89 134 89 134 94.5 147.5 c 128,-1,30
 100 161 100 161 105 176 c 0,31,32
 121 218 121 218 147 246 c 0,33,34
 179 282 179 282 216 282 c 0,35,36
 243 282 243 282 258.5 263 c 128,-1,37
 274 244 274 244 269 217 c 0,38,39
 263 190 263 190 239.5 171 c 128,-1,40
 216 152 216 152 189 152 c 0,41,42
 164 152 164 152 147 169 c 1,43,44
 99 80 99 80 82 0 c 1,45,-1
 20 0 l 1,46,-1
 33 64 l 1,47,48
 44 113 44 113 39.5 171.5 c 128,-1,49
 35 230 35 230 42 259 c 0,50,51
 53 312 53 312 88 352.5 c 128,-1,52
 123 393 123 393 177 410 c 1,53,-1
 235 371 l 1,54,-1
 315 410 l 1,55,56
 388 377 388 377 369 289 c 2,57,-1
 318 47 l 2,12,13
EndSplineSet
EndChar

StartChar: uni0E06
Encoding: 3590 3590 219
Width: 453
Flags: W
LayerCount: 2
Fore
SplineSet
358 0 m 1,0,-1
 301 0 l 1,1,2
 254 61 254 61 207 78 c 1,3,-1
 205 68 l 2,4,5
 198 36 198 36 169.5 14 c 128,-1,6
 141 -8 141 -8 108 -8 c 256,7,8
 75 -8 75 -8 56.5 15.5 c 128,-1,9
 38 39 38 39 45 73 c 0,10,11
 52 106 52 106 80.5 129.5 c 128,-1,12
 109 153 109 153 142 153 c 0,13,14
 149 153 149 153 154 152 c 1,15,16
 160 180 160 180 201 228 c 0,17,18
 240 273 240 273 246 303 c 0,19,20
 254 342 254 342 226 360 c 1,21,-1
 183 322 l 1,22,-1
 148 361 l 1,23,24
 136 356 136 356 121.5 340 c 128,-1,25
 107 324 107 324 103 311 c 1,26,27
 111 314 111 314 124 314 c 0,28,29
 154 314 154 314 171 293 c 128,-1,30
 188 272 188 272 182 243 c 0,31,32
 176 213 176 213 150 192 c 128,-1,33
 124 171 124 171 94 171 c 0,34,35
 59 171 59 171 43 197 c 128,-1,36
 27 223 27 223 36 266 c 0,37,38
 47 318 47 318 85.5 361.5 c 128,-1,39
 124 405 124 405 166 407 c 1,40,-1
 192 373 l 1,41,-1
 231 408 l 1,42,43
 317 386 317 386 300 308 c 0,44,45
 293 273 293 273 254 223.5 c 128,-1,46
 215 174 215 174 210 147 c 2,47,-1
 207 132 l 1,48,49
 261 111 261 111 310 66 c 1,50,-1
 372 360 l 2,51,52
 384 416 384 416 419 433 c 1,53,-1
 474 410 l 1,54,55
 441 395 441 395 429 337 c 2,56,-1
 358 0 l 1,0,-1
158 72 m 0,57,58
 161 86 161 86 153.5 95.5 c 128,-1,59
 146 105 146 105 132 105 c 0,60,61
 119 105 119 105 107 95.5 c 128,-1,62
 95 86 95 86 92 72 c 0,63,64
 89 59 89 59 97 49 c 128,-1,65
 105 39 105 39 118 39 c 0,66,67
 132 39 132 39 143.5 49 c 128,-1,68
 155 59 155 59 158 72 c 0,57,58
141 243 m 256,69,70
 144 256 144 256 137 265 c 128,-1,71
 130 274 130 274 117 274 c 256,72,73
 104 274 104 274 93 265 c 128,-1,74
 82 256 82 256 79 243 c 256,75,76
 76 230 76 230 83.5 221 c 128,-1,77
 91 212 91 212 104 212 c 256,78,79
 117 212 117 212 127.5 221 c 128,-1,80
 138 230 138 230 141 243 c 256,69,70
EndSplineSet
EndChar

StartChar: uni0E07
Encoding: 3591 3591 220
Width: 312
Flags: W
LayerCount: 2
Fore
SplineSet
217 0 m 1,0,-1
 156 0 l 1,1,-1
 40 163 l 2,2,3
 16 198 16 198 18 227 c 1,4,-1
 58 261 l 1,5,6
 62 234 62 234 76 213 c 2,7,-1
 172 77 l 1,8,-1
 209 258 l 1,9,10
 206 257 206 257 190 257 c 0,11,12
 159 257 159 257 142 277.5 c 128,-1,13
 125 298 125 298 132 330 c 0,14,15
 138 362 138 362 165 384.5 c 128,-1,16
 192 407 192 407 222 407 c 0,17,18
 257 407 257 407 275 384.5 c 128,-1,19
 293 362 293 362 286 326 c 2,20,-1
 217 0 l 1,0,-1
240 332 m 256,21,22
 243 346 243 346 235 356 c 128,-1,23
 227 366 227 366 213 366 c 256,24,25
 199 366 199 366 187 356 c 128,-1,26
 175 346 175 346 172 332 c 256,27,28
 169 318 169 318 177 308 c 128,-1,29
 185 298 185 298 199 298 c 256,30,31
 213 298 213 298 225 308 c 128,-1,32
 237 318 237 318 240 332 c 256,21,22
EndSplineSet
EndChar

StartChar: uni0E08
Encoding: 3592 3592 221
Width: 390
Flags: W
LayerCount: 2
Fore
SplineSet
309 70 m 2,0,1
 302 33 302 33 273.5 12.5 c 128,-1,2
 245 -8 245 -8 207 -8 c 0,3,4
 134 -8 134 -8 136 57 c 1,5,-1
 137 136 l 1,6,7
 126 132 126 132 112 132 c 0,8,9
 83 132 83 132 66 153 c 128,-1,10
 49 174 49 174 56 203 c 0,11,12
 62 232 62 232 87.5 253 c 128,-1,13
 113 274 113 274 142 274 c 0,14,15
 168 274 168 274 184.5 257.5 c 128,-1,16
 201 241 201 241 200 216 c 2,17,-1
 196 63 l 2,18,19
 195 45 195 45 217 45 c 0,20,21
 242 45 242 45 246 65 c 2,22,-1
 294 290 l 2,23,24
 301 323 301 323 274 340 c 0,25,26
 251 354 251 354 213 354 c 0,27,28
 127 354 127 354 99 305 c 1,29,-1
 39 305 l 1,30,31
 74 406 74 406 219 407 c 0,32,33
 286 407 286 407 324 382 c 1,34,35
 369 350 369 350 355 286 c 2,36,-1
 309 70 l 2,0,1
158 203 m 0,37,38
 160 216 160 216 153 225 c 128,-1,39
 146 234 146 234 133 234 c 256,40,41
 120 234 120 234 109 225 c 128,-1,42
 98 216 98 216 96 203 c 0,43,44
 93 190 93 190 100 181 c 128,-1,45
 107 172 107 172 120 172 c 256,46,47
 133 172 133 172 144 181 c 128,-1,48
 155 190 155 190 158 203 c 0,37,38
EndSplineSet
EndChar

StartChar: uni0E09
Encoding: 3593 3593 222
Width: 405
Flags: W
LayerCount: 2
Fore
SplineSet
341 68 m 0,0,1
 334 36 334 36 307.5 14 c 128,-1,2
 281 -8 281 -8 249 -8 c 0,3,4
 220 -8 220 -8 202 11.5 c 128,-1,5
 184 31 184 31 188 60 c 1,6,7
 150 47 150 47 106 0 c 1,8,-1
 49 0 l 1,9,-1
 65 78 l 2,10,11
 71 106 71 106 83 116 c 1,12,13
 73 116 73 116 69 117 c 0,14,15
 17 129 17 129 29 184 c 0,16,17
 35 213 35 213 59.5 233 c 128,-1,18
 84 253 84 253 113 253 c 256,19,20
 142 253 142 253 158 233 c 128,-1,21
 174 213 174 213 168 184 c 0,22,23
 165 170 165 170 151 146.5 c 128,-1,24
 137 123 137 123 133 108 c 1,25,-1
 125 66 l 1,26,27
 144 82 144 82 193 106.5 c 128,-1,28
 242 131 242 131 264 150 c 1,29,30
 284 170 284 170 289 197 c 2,31,-1
 309 289 l 2,32,33
 316 322 316 322 288 340 c 1,34,35
 264 354 264 354 225 354 c 0,36,37
 183 354 183 354 150 338 c 0,38,39
 111 319 111 319 100 282 c 1,40,-1
 40 282 l 1,41,42
 82 407 82 407 235 407 c 0,43,44
 301 407 301 407 338 381 c 0,45,46
 384 349 384 349 370 285 c 2,47,-1
 350 190 l 2,48,49
 342 152 342 152 316 134 c 1,50,51
 350 112 350 112 341 68 c 0,0,1
128 184 m 0,52,53
 130 197 130 197 123.5 205.5 c 128,-1,54
 117 214 117 214 104 214 c 256,55,56
 91 214 91 214 80.5 205.5 c 128,-1,57
 70 197 70 197 68 184 c 0,58,59
 65 171 65 171 71.5 162.5 c 128,-1,60
 78 154 78 154 91 154 c 256,61,62
 104 154 104 154 114.5 162.5 c 128,-1,63
 125 171 125 171 128 184 c 0,52,53
297 67 m 256,64,65
 300 80 300 80 292.5 89 c 128,-1,66
 285 98 285 98 272 98 c 256,67,68
 259 98 259 98 248.5 89 c 128,-1,69
 238 80 238 80 235 67 c 256,70,71
 232 54 232 54 239 45 c 128,-1,72
 246 36 246 36 259 36 c 256,73,74
 272 36 272 36 283 45 c 128,-1,75
 294 54 294 54 297 67 c 256,64,65
EndSplineSet
EndChar

StartChar: uni0E0A
Encoding: 3594 3594 223
Width: 415
Flags: W
LayerCount: 2
Fore
SplineSet
339 94 m 2,0,1
 329 46 329 46 293.5 19 c 128,-1,2
 258 -8 258 -8 207 -8 c 0,3,4
 114 -8 114 -8 114 69 c 0,5,6
 114 82 114 82 131 159 c 0,7,8
 137 186 137 186 179 242 c 0,9,10
 218 294 218 294 218 325 c 0,11,12
 218 366 218 366 175 366 c 0,13,14
 142 366 142 366 130 353 c 1,15,16
 185 351 185 351 185 303 c 0,17,18
 185 269 185 269 157.5 243 c 128,-1,19
 130 217 130 217 97 217 c 0,20,21
 37 217 37 217 37 280 c 0,22,23
 37 334 37 334 86 372 c 0,24,25
 131 407 131 407 183 407 c 0,26,27
 278 407 278 407 278 335 c 0,28,29
 278 297 278 297 240 240 c 1,30,31
 197 178 197 178 192 153 c 2,32,-1
 176 74 l 1,33,34
 176 45 176 45 218 45 c 0,35,36
 238 45 238 45 255 55 c 128,-1,37
 272 65 272 65 275 80 c 2,38,-1
 307 232 l 2,39,40
 312 256 312 256 312 266 c 0,41,42
 312 296 312 296 289 304 c 1,43,44
 304 354 304 354 348 399 c 0,45,46
 385 437 385 437 416 447 c 1,47,-1
 461 417 l 1,48,49
 396 391 396 391 352 317 c 1,50,51
 375 305 375 305 375 272 c 0,52,53
 375 261 375 261 369 233 c 2,54,-1
 339 94 l 2,0,1
142 286 m 0,55,56
 145 299 145 299 138 308 c 128,-1,57
 131 317 131 317 118 317 c 256,58,59
 105 317 105 317 94 308 c 128,-1,60
 83 299 83 299 80 286 c 0,61,62
 78 273 78 273 85 264 c 128,-1,63
 92 255 92 255 105 255 c 256,64,65
 118 255 118 255 129 264 c 128,-1,66
 140 273 140 273 142 286 c 0,55,56
EndSplineSet
EndChar

StartChar: uni0E0B
Encoding: 3595 3595 224
Width: 431
Flags: W
LayerCount: 2
Fore
SplineSet
385 233 m 2,0,-1
 355 94 l 2,1,2
 345 46 345 46 309.5 19 c 128,-1,3
 274 -8 274 -8 223 -8 c 0,4,5
 130 -8 130 -8 130 69 c 0,6,7
 130 82 130 82 143 139 c 0,8,9
 150 171 150 171 194 223 c 0,10,11
 246 285 246 285 246 314 c 0,12,13
 246 346 246 346 225 359 c 1,14,-1
 180 321 l 1,15,-1
 144 361 l 1,16,17
 132 355 132 355 117.5 339 c 128,-1,18
 103 323 103 323 100 312 c 1,19,20
 115 315 115 315 121 315 c 0,21,22
 147 315 147 315 163.5 299 c 128,-1,23
 180 283 180 283 180 259 c 0,24,25
 180 224 180 224 152.5 197.5 c 128,-1,26
 125 171 125 171 91 171 c 0,27,28
 62 171 62 171 45.5 192 c 128,-1,29
 29 213 29 213 29 243 c 0,30,31
 29 298 29 298 71 350.5 c 128,-1,32
 113 403 113 403 164 407 c 1,33,-1
 190 373 l 1,34,-1
 228 408 l 1,35,36
 299 391 299 391 299 330 c 0,37,38
 299 285 299 285 251 223 c 0,39,40
 212 173 212 173 207 147 c 2,41,-1
 192 74 l 1,42,43
 192 45 192 45 234 45 c 0,44,45
 254 45 254 45 271 55 c 128,-1,46
 288 65 288 65 291 80 c 2,47,-1
 323 232 l 2,48,49
 328 256 328 256 328 266 c 0,50,51
 328 296 328 296 305 304 c 1,52,53
 320 354 320 354 364 399 c 0,54,55
 401 437 401 437 432 447 c 1,56,-1
 477 417 l 1,57,58
 412 391 412 391 368 317 c 1,59,60
 391 305 391 305 391 272 c 0,61,62
 391 261 391 261 385 233 c 2,0,-1
137 243 m 0,63,64
 140 256 140 256 133 265 c 128,-1,65
 126 274 126 274 113 274 c 256,66,67
 100 274 100 274 89 265 c 128,-1,68
 78 256 78 256 75 243 c 0,69,70
 73 230 73 230 80 221 c 128,-1,71
 87 212 87 212 100 212 c 256,72,73
 113 212 113 212 124 221 c 128,-1,74
 135 230 135 230 137 243 c 0,63,64
EndSplineSet
EndChar

StartChar: uni0E0C
Encoding: 3596 3596 225
Width: 565
Flags: W
LayerCount: 2
Fore
SplineSet
470 0 m 1,0,-1
 415 0 l 1,1,2
 402 49 402 49 349 78 c 1,3,4
 348 64 348 64 347 61 c 0,5,6
 341 29 341 29 314.5 10.5 c 128,-1,7
 288 -8 288 -8 259 -8 c 0,8,9
 228 -8 228 -8 210 14 c 128,-1,10
 192 36 192 36 199 68 c 0,11,12
 209 114 209 114 254 137 c 1,13,-1
 281 265 l 2,14,15
 289 304 289 304 270 328.5 c 128,-1,16
 251 353 251 353 215 353 c 0,17,18
 154 353 154 353 117 303 c 1,19,20
 161 294 161 294 173 258 c 1,21,22
 116 230 116 230 107 186 c 2,23,-1
 98 143 l 1,24,25
 130 143 130 143 147.5 121 c 128,-1,26
 165 99 165 99 158 67 c 0,27,28
 151 36 151 36 124.5 14 c 128,-1,29
 98 -8 98 -8 66 -8 c 0,30,31
 35 -8 35 -8 17.5 14 c 128,-1,32
 0 36 0 36 7 67 c 0,33,34
 12 93 12 93 29 110 c 1,35,-1
 46 190 l 2,36,37
 55 232 55 232 101 256 c 1,38,39
 80 273 80 273 42 268 c 1,40,41
 58 330 58 330 110 370 c 0,42,43
 159 407 159 407 223 407 c 0,44,45
 290 407 290 407 323.5 369 c 128,-1,46
 357 331 357 331 343 264 c 2,47,-1
 317 142 l 1,48,49
 390 117 390 117 423 72 c 1,50,-1
 484 360 l 2,51,52
 496 416 496 416 531 433 c 1,53,-1
 586 410 l 1,54,55
 553 395 553 395 541 337 c 2,56,-1
 470 0 l 1,0,-1
115 67 m 256,57,58
 118 81 118 81 110 91 c 128,-1,59
 102 101 102 101 88 101 c 256,60,61
 74 101 74 101 62 91 c 128,-1,62
 50 81 50 81 47 67 c 256,63,64
 44 53 44 53 52 43 c 128,-1,65
 60 33 60 33 74 33 c 256,66,67
 88 33 88 33 100 43 c 128,-1,68
 112 53 112 53 115 67 c 256,57,58
309 67 m 256,69,70
 312 81 312 81 304 91 c 128,-1,71
 296 101 296 101 282 101 c 256,72,73
 268 101 268 101 256 91 c 128,-1,74
 244 81 244 81 241 67 c 256,75,76
 238 53 238 53 246 43 c 128,-1,77
 254 33 254 33 268 33 c 256,78,79
 282 33 282 33 294 43 c 128,-1,80
 306 53 306 53 309 67 c 256,69,70
EndSplineSet
EndChar

StartChar: uni0E0D
Encoding: 3597 3597 226
Width: 565
Flags: W
LayerCount: 2
Fore
SplineSet
467 -40 m 1,0,1
 451 -114 451 -114 409 -158 c 0,2,3
 362 -207 362 -207 286 -207 c 0,4,5
 237 -207 237 -207 207 -182 c 0,6,7
 173 -153 173 -153 183 -106 c 0,8,9
 189 -76 189 -76 214 -55.5 c 128,-1,10
 239 -35 239 -35 269 -35 c 0,11,12
 298 -35 298 -35 313 -56 c 128,-1,13
 328 -77 328 -77 322 -107 c 0,14,15
 313 -146 313 -146 280 -157 c 1,16,17
 294 -159 294 -159 299 -159 c 0,18,19
 383 -159 383 -159 413 -40 c 1,20,-1
 467 -40 l 1,0,1
489 94 m 2,21,22
 479 44 479 44 434 16 c 0,23,24
 395 -8 395 -8 344 -8 c 0,25,26
 292 -8 292 -8 265 16 c 0,27,28
 234 43 234 43 244 94 c 1,29,-1
 281 265 l 2,30,31
 289 304 289 304 270 328.5 c 128,-1,32
 251 353 251 353 215 353 c 0,33,34
 154 353 154 353 117 303 c 1,35,36
 158 295 158 295 173 258 c 1,37,38
 116 230 116 230 107 186 c 2,39,-1
 97 139 l 1,40,41
 105 143 105 143 117 143 c 0,42,43
 148 143 148 143 165 121.5 c 128,-1,44
 182 100 182 100 175 68 c 256,45,46
 168 36 168 36 141.5 14 c 128,-1,47
 115 -8 115 -8 83 -8 c 0,48,49
 50 -8 50 -8 32 15 c 128,-1,50
 14 38 14 38 21 73 c 2,51,-1
 46 190 l 2,52,53
 55 232 55 232 101 256 c 1,54,55
 80 273 80 273 42 268 c 1,56,57
 58 330 58 330 110 370 c 0,58,59
 159 407 159 407 223 407 c 0,60,61
 290 407 290 407 323.5 369 c 128,-1,62
 357 331 357 331 343 264 c 2,63,-1
 305 85 l 2,64,65
 300 64 300 64 316 54.5 c 128,-1,66
 332 45 332 45 356 45 c 0,67,68
 379 45 379 45 400 54.5 c 128,-1,69
 421 64 421 64 426 85 c 2,70,-1
 484 360 l 2,71,72
 496 416 496 416 531 433 c 1,73,-1
 586 410 l 1,74,75
 553 395 553 395 541 337 c 2,76,-1
 489 94 l 2,21,22
285 -105 m 256,77,78
 288 -92 288 -92 281 -83 c 128,-1,79
 274 -74 274 -74 260 -74 c 256,80,81
 246 -74 246 -74 235.5 -83 c 128,-1,82
 225 -92 225 -92 222 -105 c 256,83,84
 219 -118 219 -118 225.5 -127.5 c 128,-1,85
 232 -137 232 -137 246 -137 c 256,86,87
 260 -137 260 -137 271 -127.5 c 128,-1,88
 282 -118 282 -118 285 -105 c 256,77,78
135 67 m 256,89,90
 138 81 138 81 130 91 c 128,-1,91
 122 101 122 101 108 101 c 256,92,93
 94 101 94 101 82 91 c 128,-1,94
 70 81 70 81 67 67 c 256,95,96
 64 53 64 53 72 43 c 128,-1,97
 80 33 80 33 94 33 c 256,98,99
 108 33 108 33 120 43 c 128,-1,100
 132 53 132 53 135 67 c 256,89,90
EndSplineSet
Substitution2: "<23,16000>  in Thai lookup 65 nested-substitutions 7 subtable" uni0E0D.alt1
Substitution2: "Single Substitution lookup 58 subtable" uni0E0D.alt1
EndChar

StartChar: uni0E0E
Encoding: 3598 3598 227
Width: 425
Flags: W
LayerCount: 2
Fore
SplineSet
281 -230 m 1,0,-1
 218 -230 l 1,1,2
 216 -177 216 -177 143 -146 c 1,3,4
 118 -234 118 -234 47 -234 c 0,5,6
 14 -234 14 -234 -4.5 -213 c 128,-1,7
 -23 -192 -23 -192 -17 -160 c 1,8,9
 -1 -89 -1 -89 92 -89 c 0,10,11
 106 -89 106 -89 114 -90 c 1,12,13
 123 -71 123 -71 131 -62 c 0,14,15
 145 -46 145 -46 168 -33 c 1,16,-1
 205 -55 l 1,17,18
 170 -72 170 -72 158 -100 c 1,19,20
 211 -120 211 -120 236 -150 c 1,21,-1
 324 265 l 2,22,23
 332 305 332 305 311 329.5 c 128,-1,24
 290 354 290 354 250 354 c 0,25,26
 189 354 189 354 150 303 c 1,27,28
 191 295 191 295 207 258 c 1,29,30
 177 243 177 243 166 233 c 0,31,32
 150 217 150 217 144 190 c 0,33,34
 139 168 139 168 135.5 126.5 c 128,-1,35
 132 85 132 85 128 68 c 0,36,37
 121 36 121 36 95 14 c 128,-1,38
 69 -8 69 -8 38 -8 c 0,39,40
 6 -8 6 -8 -11 14 c 128,-1,41
 -28 36 -28 36 -21 68 c 0,42,43
 -14 99 -14 99 12 121 c 128,-1,44
 38 143 38 143 68 143 c 0,45,46
 80 143 80 143 82 140 c 1,47,-1
 89 202 l 1,48,49
 97 237 97 237 135 256 c 1,50,51
 112 273 112 273 76 268 c 1,52,53
 91 330 91 330 144 370 c 1,54,55
 195 407 195 407 260 407 c 0,56,57
 330 407 330 407 364.5 368 c 128,-1,58
 399 329 399 329 386 264 c 2,59,-1
 281 -230 l 1,0,-1
100 -135 m 1,60,61
 91 -132 91 -132 76 -132 c 0,62,63
 35 -132 35 -132 29 -156 c 0,64,65
 22 -188 22 -188 55 -188 c 1,66,67
 74 -186 74 -186 84.5 -173 c 128,-1,68
 95 -160 95 -160 100 -135 c 1,60,61
88 68 m 256,69,70
 91 82 91 82 83 92 c 128,-1,71
 75 102 75 102 61 102 c 256,72,73
 47 102 47 102 35 92 c 128,-1,74
 23 82 23 82 20 68 c 256,75,76
 17 54 17 54 25 44 c 128,-1,77
 33 34 33 34 47 34 c 256,78,79
 61 34 61 34 73 44 c 128,-1,80
 85 54 85 54 88 68 c 256,69,70
EndSplineSet
Substitution2: "<23,16000>  in Thai lookup 75 nested-substitutions 0 subtable" uni0E0E.alt1
Substitution2: "Single Substitution lookup 58 subtable" uni0E0E.alt1
EndChar

StartChar: uni0E0F
Encoding: 3599 3599 228
Width: 425
Flags: W
LayerCount: 2
Fore
SplineSet
52 -137 m 1,0,1
 43 -132 43 -132 25 -132 c 0,2,3
 -6 -132 -6 -132 -11 -159 c 1,4,5
 -17 -184 -17 -184 8 -184 c 0,6,7
 42 -184 42 -184 52 -137 c 1,0,1
88 68 m 256,8,9
 91 82 91 82 83 92 c 128,-1,10
 75 102 75 102 61 102 c 256,11,12
 47 102 47 102 35 92 c 128,-1,13
 23 82 23 82 20 68 c 256,14,15
 17 54 17 54 25 44 c 128,-1,16
 33 34 33 34 47 34 c 256,17,18
 61 34 61 34 73 44 c 128,-1,19
 85 54 85 54 88 68 c 256,8,9
280 -231 m 1,20,-1
 224 -231 l 1,21,-1
 187 -163 l 1,22,-1
 123 -231 l 1,23,-1
 91 -168 l 1,24,25
 81 -196 81 -196 55 -215.5 c 128,-1,26
 29 -235 29 -235 3 -235 c 0,27,28
 -29 -235 -29 -235 -46.5 -213.5 c 128,-1,29
 -64 -192 -64 -192 -58 -160 c 0,30,31
 -42 -86 -42 -86 42 -86 c 0,32,33
 61 -86 61 -86 69 -89 c 1,34,35
 88 -52 88 -52 133 -31 c 1,36,-1
 159 -73 l 1,37,38
 120 -83 120 -83 109 -114 c 1,39,-1
 138 -162 l 1,40,-1
 199 -101 l 1,41,-1
 235 -155 l 1,42,-1
 324 265 l 2,43,44
 332 305 332 305 311 329.5 c 128,-1,45
 290 354 290 354 250 354 c 0,46,47
 189 354 189 354 150 303 c 1,48,49
 191 295 191 295 207 258 c 1,50,51
 177 243 177 243 166 233 c 0,52,53
 150 217 150 217 144 190 c 0,54,55
 139 168 139 168 135.5 126.5 c 128,-1,56
 132 85 132 85 128 68 c 0,57,58
 121 36 121 36 95 14 c 128,-1,59
 69 -8 69 -8 38 -8 c 0,60,61
 6 -8 6 -8 -11 14 c 128,-1,62
 -28 36 -28 36 -21 68 c 0,63,64
 -14 99 -14 99 12 121 c 128,-1,65
 38 143 38 143 68 143 c 0,66,67
 80 143 80 143 82 140 c 1,68,-1
 89 202 l 1,69,70
 97 237 97 237 135 256 c 1,71,72
 112 273 112 273 76 268 c 1,73,74
 91 330 91 330 144 370 c 1,75,76
 195 407 195 407 260 407 c 0,77,78
 330 407 330 407 364.5 368 c 128,-1,79
 399 329 399 329 386 264 c 2,80,-1
 280 -231 l 1,20,-1
EndSplineSet
Substitution2: "<23,16000>  in Thai lookup 75 nested-substitutions 0 subtable" uni0E0F.alt1
Substitution2: "Single Substitution lookup 58 subtable" uni0E0F.alt1
EndChar

StartChar: uni0E10
Encoding: 3600 3600 229
Width: 372
Flags: W
LayerCount: 2
Fore
SplineSet
12 -137 m 1,0,1
 0 -132 0 -132 -9 -132 c 0,2,3
 -47 -132 -47 -132 -52 -158 c 0,4,5
 -57 -183 -57 -183 -31 -183 c 0,6,7
 3 -183 3 -183 12 -137 c 1,0,1
235 -163 m 2,8,9
 221 -230 221 -230 154 -230 c 2,10,-1
 72 -230 l 1,11,-1
 40 -170 l 1,12,13
 33 -194 33 -194 11 -211 c 128,-1,14
 -11 -228 -11 -228 -35 -228 c 0,15,16
 -68 -228 -68 -228 -82.5 -208 c 128,-1,17
 -97 -188 -97 -188 -91 -157 c 0,18,19
 -84 -126 -84 -126 -59 -106.5 c 128,-1,20
 -34 -87 -34 -87 0 -87 c 0,21,22
 20 -87 20 -87 27 -92 c 1,23,24
 37 -59 37 -59 74 -41 c 1,25,-1
 101 -59 l 1,26,27
 68 -73 68 -73 59 -115 c 1,28,-1
 94 -181 l 1,29,-1
 146 -181 l 2,30,31
 178 -181 178 -181 182 -164 c 1,32,-1
 184 -151 l 1,33,-1
 172 -151 l 2,34,35
 145 -151 145 -151 130 -134.5 c 128,-1,36
 115 -118 115 -118 121 -94 c 1,37,38
 125 -71 125 -71 147.5 -54 c 128,-1,39
 170 -37 170 -37 197 -37 c 0,40,41
 223 -37 223 -37 238.5 -54 c 128,-1,42
 254 -71 254 -71 250 -94 c 2,43,-1
 235 -163 l 2,8,9
287 83 m 2,44,45
 268 -8 268 -8 173 -8 c 0,46,47
 81 -8 81 -8 99 78 c 2,48,-1
 106 111 l 1,49,50
 98 109 98 109 92 109 c 0,51,52
 63 109 63 109 48 128.5 c 128,-1,53
 33 148 33 148 39 176 c 0,54,55
 45 205 45 205 70.5 224 c 128,-1,56
 96 243 96 243 123 243 c 0,57,58
 153 243 153 243 170.5 224.5 c 128,-1,59
 188 206 188 206 182 177 c 2,60,-1
 162 80 l 2,61,62
 154 44 154 44 185 44 c 0,63,64
 217 44 217 44 225 80 c 2,65,-1
 255 224 l 2,66,67
 260 245 260 245 170 266 c 0,68,69
 93 283 93 283 50 283 c 1,70,71
 69 347 69 347 117 380 c 0,72,73
 157 407 157 407 207 407 c 0,74,75
 226 407 226 407 261.5 397 c 128,-1,76
 297 387 297 387 318 387 c 0,77,78
 342 387 342 387 355 432 c 1,79,-1
 403 419 l 1,80,81
 371 329 371 329 302 329 c 0,82,83
 283 329 283 329 249.5 341.5 c 128,-1,84
 216 354 216 354 196 354 c 0,85,86
 181 354 181 354 159.5 346 c 128,-1,87
 138 338 138 338 130 327 c 1,88,89
 241 308 241 308 291 283 c 0,90,91
 326 265 326 265 318 230 c 2,92,-1
 287 83 l 2,44,45
135 176 m 0,93,94
 137 188 137 188 130.5 196.5 c 128,-1,95
 124 205 124 205 112 205 c 256,96,97
 100 205 100 205 89.5 196.5 c 128,-1,98
 79 188 79 188 77 176 c 0,99,100
 74 164 74 164 81 155.5 c 128,-1,101
 88 147 88 147 100 147 c 256,102,103
 112 147 112 147 122 155.5 c 128,-1,104
 132 164 132 164 135 176 c 0,93,94
206 -94 m 0,105,106
 207 -85 207 -85 202 -79 c 128,-1,107
 197 -73 197 -73 187 -73 c 256,108,109
 177 -73 177 -73 169.5 -79 c 128,-1,110
 162 -85 162 -85 161 -94 c 0,111,112
 159 -103 159 -103 163.5 -109.5 c 128,-1,113
 168 -116 168 -116 178 -116 c 256,114,115
 188 -116 188 -116 196 -109.5 c 128,-1,116
 204 -103 204 -103 206 -94 c 0,105,106
EndSplineSet
Substitution2: "<23,16000>  in Thai lookup 65 nested-substitutions 7 subtable" uni0E10.alt1
Substitution2: "Single Substitution lookup 58 subtable" uni0E10.alt1
EndChar

StartChar: uni0E11
Encoding: 3601 3601 230
Width: 492
Flags: W
LayerCount: 2
Fore
SplineSet
137 243 m 256,0,1
 140 256 140 256 133 265 c 128,-1,2
 126 274 126 274 113 274 c 256,3,4
 100 274 100 274 89 265 c 128,-1,5
 78 256 78 256 75 243 c 256,6,7
 72 230 72 230 79.5 221 c 128,-1,8
 87 212 87 212 100 212 c 256,9,10
 113 212 113 212 123.5 221 c 128,-1,11
 134 230 134 230 137 243 c 256,0,1
407 47 m 2,12,13
 395 -10 395 -10 360 -27 c 1,14,-1
 311 0 l 1,15,16
 340 17 340 17 350 70 c 1,17,-1
 403 321 l 2,18,19
 408 348 408 348 392 348 c 0,20,21
 378 348 378 348 370 334 c 2,22,-1
 183 0 l 1,23,-1
 113 0 l 1,24,-1
 135 107 l 2,25,26
 144 147 144 147 184.5 212.5 c 128,-1,27
 225 278 225 278 232 313 c 0,28,29
 239 347 239 347 222 360 c 1,30,-1
 177 321 l 1,31,-1
 143 361 l 1,32,33
 132 356 132 356 117 340 c 128,-1,34
 102 324 102 324 98 312 c 1,35,36
 105 315 105 315 120 315 c 0,37,38
 150 315 150 315 166.5 293.5 c 128,-1,39
 183 272 183 272 177 243 c 0,40,41
 171 213 171 213 145.5 192 c 128,-1,42
 120 171 120 171 90 171 c 0,43,44
 57 171 57 171 40.5 199 c 128,-1,45
 24 227 24 227 32 267 c 0,46,47
 43 319 43 319 80 361 c 128,-1,48
 117 403 117 403 162 407 c 1,49,-1
 188 373 l 1,50,-1
 227 408 l 1,51,52
 298 392 298 392 281 312 c 0,53,54
 274 280 274 280 238.5 219.5 c 128,-1,55
 203 159 203 159 195 120 c 1,56,57
 177 72 177 72 175 63 c 1,58,-1
 334 347 l 2,59,60
 368 407 368 407 413 407 c 0,61,62
 483 407 483 407 465 323 c 2,63,-1
 407 47 l 2,12,13
EndSplineSet
EndChar

StartChar: uni0E12
Encoding: 3602 3602 231
Width: 551
Flags: W
LayerCount: 2
Fore
SplineSet
456 0 m 1,0,-1
 398 0 l 1,1,2
 382 43 382 43 348 65 c 1,3,4
 342 34 342 34 317 13 c 128,-1,5
 292 -8 292 -8 257 -8 c 0,6,7
 225 -8 225 -8 208.5 14.5 c 128,-1,8
 192 37 192 37 199 70 c 0,9,10
 204 93 204 93 224 113 c 128,-1,11
 244 133 244 133 267 139 c 1,12,-1
 293 262 l 2,13,14
 308 330 308 330 283 353 c 1,15,-1
 212 309 l 1,16,-1
 166 353 l 1,17,18
 118 331 118 331 102 255 c 0,19,20
 99 240 99 240 102.5 189.5 c 128,-1,21
 106 139 106 139 101 114 c 0,22,23
 98 99 98 99 90 86 c 1,24,25
 122 136 122 136 172 163 c 1,26,27
 146 165 146 165 134.5 184 c 128,-1,28
 123 203 123 203 128 227 c 0,29,30
 133 254 133 254 156 272.5 c 128,-1,31
 179 291 179 291 206 291 c 0,32,33
 232 291 232 291 247.5 272 c 128,-1,34
 263 253 263 253 258 227 c 0,35,36
 247 178 247 178 173.5 111.5 c 128,-1,37
 100 45 100 45 91 0 c 1,38,-1
 26 0 l 1,39,40
 32 28 32 28 40 64 c 0,41,42
 52 122 52 122 47 152 c 0,43,44
 34 222 34 222 40 254 c 0,45,46
 52 310 52 310 88.5 352 c 128,-1,47
 125 394 125 394 180 408 c 1,48,-1
 224 363 l 1,49,-1
 282 408 l 1,50,51
 383 393 383 393 356 264 c 1,52,-1
 327 131 l 1,53,54
 346 125 346 125 373.5 107 c 128,-1,55
 401 89 401 89 410 76 c 1,56,-1
 470 360 l 2,57,58
 482 416 482 416 517 433 c 1,59,-1
 572 410 l 1,60,61
 539 395 539 395 527 337 c 2,62,-1
 456 0 l 1,0,-1
224 227 m 256,63,64
 227 240 227 240 219.5 249 c 128,-1,65
 212 258 212 258 199 258 c 256,66,67
 186 258 186 258 175.5 249 c 128,-1,68
 165 240 165 240 162 227 c 256,69,70
 159 214 159 214 166 205 c 128,-1,71
 173 196 173 196 186 196 c 256,72,73
 199 196 199 196 210 205 c 128,-1,74
 221 214 221 214 224 227 c 256,63,64
305 67 m 256,75,76
 308 81 308 81 301 90 c 128,-1,77
 294 99 294 99 280 99 c 256,78,79
 266 99 266 99 255.5 90 c 128,-1,80
 245 81 245 81 242 67 c 256,81,82
 239 53 239 53 245.5 44.5 c 128,-1,83
 252 36 252 36 266 36 c 256,84,85
 280 36 280 36 291 44.5 c 128,-1,86
 302 53 302 53 305 67 c 256,75,76
EndSplineSet
EndChar

StartChar: uni0E13
Encoding: 3603 3603 232
Width: 576
Flags: W
LayerCount: 2
Fore
SplineSet
513 68 m 0,0,1
 506 37 506 37 481.5 14.5 c 128,-1,2
 457 -8 457 -8 424 -8 c 0,3,4
 395 -8 395 -8 377 10.5 c 128,-1,5
 359 29 359 29 360 57 c 1,6,7
 329 39 329 39 288 0 c 1,8,-1
 225 0 l 1,9,-1
 281 265 l 2,10,11
 289 304 289 304 270 328.5 c 128,-1,12
 251 353 251 353 215 353 c 0,13,14
 154 353 154 353 117 303 c 1,15,16
 155 300 155 300 173 258 c 1,17,18
 116 230 116 230 107 186 c 2,19,-1
 97 139 l 1,20,21
 105 143 105 143 117 143 c 0,22,23
 148 143 148 143 165 121.5 c 128,-1,24
 182 100 182 100 175 68 c 256,25,26
 168 36 168 36 141.5 14 c 128,-1,27
 115 -8 115 -8 83 -8 c 0,28,29
 50 -8 50 -8 32 15 c 128,-1,30
 14 38 14 38 21 73 c 2,31,-1
 46 190 l 2,32,33
 55 232 55 232 101 256 c 1,34,35
 80 273 80 273 42 268 c 1,36,37
 58 330 58 330 110 370 c 0,38,39
 159 407 159 407 223 407 c 0,40,41
 290 407 290 407 323.5 369.5 c 128,-1,42
 357 332 357 332 343 265 c 2,43,-1
 300 63 l 1,44,45
 319 81 319 81 364 112 c 0,46,47
 427 154 427 154 439 163 c 1,48,49
 457 181 457 181 463 210 c 2,50,-1
 495 360 l 2,51,52
 507 416 507 416 542 433 c 1,53,-1
 597 410 l 1,54,55
 564 395 564 395 552 337 c 2,56,-1
 521 189 l 2,57,58
 512 150 512 150 488 134 c 1,59,60
 522 112 522 112 513 68 c 0,0,1
472 69 m 256,61,62
 475 83 475 83 467 93 c 128,-1,63
 459 103 459 103 445 103 c 256,64,65
 431 103 431 103 419 93 c 128,-1,66
 407 83 407 83 404 69 c 256,67,68
 401 55 401 55 409 45 c 128,-1,69
 417 35 417 35 431 35 c 256,70,71
 445 35 445 35 457 45 c 128,-1,72
 469 55 469 55 472 69 c 256,61,62
135 67 m 256,73,74
 138 81 138 81 130 91 c 128,-1,75
 122 101 122 101 108 101 c 256,76,77
 94 101 94 101 82 91 c 128,-1,78
 70 81 70 81 67 67 c 256,79,80
 64 53 64 53 72 43 c 128,-1,81
 80 33 80 33 94 33 c 256,82,83
 108 33 108 33 120 43 c 128,-1,84
 132 53 132 53 135 67 c 256,73,74
EndSplineSet
EndChar

StartChar: uni0E14
Encoding: 3604 3604 233
Width: 405
Flags: W
LayerCount: 2
Fore
SplineSet
232 241 m 0,0,1
 234 254 234 254 227.5 262.5 c 128,-1,2
 221 271 221 271 208 271 c 256,3,4
 195 271 195 271 184.5 262.5 c 128,-1,5
 174 254 174 254 172 241 c 0,6,7
 169 228 169 228 175.5 219.5 c 128,-1,8
 182 211 182 211 195 211 c 256,9,10
 208 211 208 211 218.5 219.5 c 128,-1,11
 229 228 229 228 232 241 c 0,0,1
320 47 m 2,12,13
 308 -10 308 -10 273 -27 c 1,14,-1
 224 0 l 1,15,16
 253 17 253 17 263 70 c 2,17,-1
 304 268 l 1,18,19
 313 306 313 306 289.5 330 c 128,-1,20
 266 354 266 354 227 354 c 0,21,22
 185 354 185 354 148 325.5 c 128,-1,23
 111 297 111 297 102 257 c 0,24,25
 97 232 97 232 103.5 186 c 128,-1,26
 110 140 110 140 105 117 c 0,27,28
 104 110 104 110 99 98 c 1,29,30
 138 145 138 145 181 177 c 1,31,32
 154 179 154 179 142 199 c 1,33,34
 130 216 130 216 136 241 c 1,35,36
 141 267 141 267 165 286.5 c 128,-1,37
 189 306 189 306 216 306 c 256,38,39
 243 306 243 306 257.5 286.5 c 128,-1,40
 272 267 272 267 267 241 c 0,41,42
 257 196 257 196 201 141 c 0,43,44
 125 66 125 66 113 51 c 0,45,46
 93 25 93 25 88 0 c 1,47,-1
 25 0 l 1,48,49
 33 37 33 37 40 68 c 0,50,51
 51 122 51 122 46 151 c 0,52,53
 42 177 42 177 39 204.5 c 128,-1,54
 36 232 36 232 40 253 c 0,55,56
 55 321 55 321 111.5 364 c 128,-1,57
 168 407 168 407 236 407 c 0,58,59
 305 407 305 407 341 371 c 0,60,61
 380 332 380 332 366 264 c 2,62,-1
 320 47 l 2,12,13
EndSplineSet
EndChar

StartChar: uni0E15
Encoding: 3605 3605 234
Width: 405
Flags: W
LayerCount: 2
Fore
SplineSet
228 226 m 0,0,1
 230 239 230 239 223.5 247.5 c 128,-1,2
 217 256 217 256 204 256 c 256,3,4
 191 256 191 256 180.5 247.5 c 128,-1,5
 170 239 170 239 168 226 c 0,6,7
 165 213 165 213 171.5 204.5 c 128,-1,8
 178 196 178 196 191 196 c 256,9,10
 204 196 204 196 214.5 204.5 c 128,-1,11
 225 213 225 213 228 226 c 0,0,1
320 47 m 2,12,13
 308 -10 308 -10 273 -27 c 1,14,-1
 224 0 l 1,15,16
 253 17 253 17 263 70 c 1,17,-1
 303 262 l 2,18,19
 317 326 317 326 288 354 c 1,20,-1
 216 309 l 1,21,-1
 165 354 l 1,22,23
 118 333 118 333 103 259 c 1,24,25
 97 235 97 235 101.5 188 c 128,-1,26
 106 141 106 141 102 118 c 1,27,28
 98 102 98 102 89 85 c 1,29,30
 98 99 98 99 126 124 c 128,-1,31
 154 149 154 149 178 162 c 1,32,33
 151 164 151 164 139.5 183 c 128,-1,34
 128 202 128 202 133 225 c 0,35,36
 139 252 139 252 161.5 271 c 128,-1,37
 184 290 184 290 211 290 c 256,38,39
 238 290 238 290 253 271 c 128,-1,40
 268 252 268 252 262 225 c 0,41,42
 253 182 253 182 198 134 c 0,43,44
 124 70 124 70 110 51 c 0,45,46
 89 22 89 22 85 0 c 1,47,-1
 22 0 l 1,48,49
 32 38 32 38 40 77 c 0,50,51
 48 117 48 117 44 151 c 0,52,53
 34 223 34 223 42 259 c 0,54,55
 53 314 53 314 89 354 c 128,-1,56
 125 394 125 394 179 408 c 1,57,-1
 227 365 l 1,58,-1
 289 408 l 1,59,60
 393 392 393 392 366 264 c 2,61,-1
 320 47 l 2,12,13
EndSplineSet
EndChar

StartChar: uni0E16
Encoding: 3606 3606 235
Width: 391
Flags: W
LayerCount: 2
Fore
SplineSet
135 67 m 256,0,1
 138 81 138 81 130 91 c 128,-1,2
 122 101 122 101 108 101 c 256,3,4
 94 101 94 101 82 91 c 128,-1,5
 70 81 70 81 67 67 c 256,6,7
 64 53 64 53 72 43 c 128,-1,8
 80 33 80 33 94 33 c 256,9,10
 108 33 108 33 120 43 c 128,-1,11
 132 53 132 53 135 67 c 256,0,1
306 47 m 2,12,13
 294 -10 294 -10 259 -27 c 1,14,-1
 210 0 l 1,15,16
 239 17 239 17 249 70 c 1,17,-1
 290 265 l 2,18,19
 299 306 299 306 279 330 c 128,-1,20
 259 354 259 354 218 354 c 0,21,22
 158 354 158 354 116 303 c 1,23,24
 161 294 161 294 173 258 c 1,25,26
 116 228 116 228 107 186 c 2,27,-1
 97 139 l 1,28,29
 105 143 105 143 117 143 c 0,30,31
 148 143 148 143 165 121.5 c 128,-1,32
 182 100 182 100 175 68 c 256,33,34
 168 36 168 36 141.5 14 c 128,-1,35
 115 -8 115 -8 83 -8 c 0,36,37
 50 -8 50 -8 32 15 c 128,-1,38
 14 38 14 38 21 73 c 2,39,-1
 46 190 l 2,40,41
 55 232 55 232 101 256 c 1,42,43
 80 273 80 273 42 268 c 1,44,45
 58 330 58 330 112 370 c 0,46,47
 162 407 162 407 227 407 c 0,48,49
 299 407 299 407 332.5 368.5 c 128,-1,50
 366 330 366 330 352 264 c 2,51,-1
 306 47 l 2,12,13
EndSplineSet
EndChar

StartChar: uni0E17
Encoding: 3607 3607 236
Width: 438
Flags: W
LayerCount: 2
Fore
SplineSet
353 47 m 2,0,1
 341 -10 341 -10 306 -27 c 1,2,-1
 257 0 l 1,3,4
 286 17 286 17 296 70 c 1,5,-1
 349 323 l 2,6,7
 356 354 356 354 341 354 c 0,8,9
 328 354 328 354 320 339 c 2,10,-1
 129 0 l 1,11,-1
 59 0 l 1,12,-1
 113 257 l 1,13,14
 103 255 103 255 96 255 c 0,15,16
 64 255 64 255 46.5 277.5 c 128,-1,17
 29 300 29 300 36 332 c 0,18,19
 43 363 43 363 69.5 385 c 128,-1,20
 96 407 96 407 128 407 c 0,21,22
 162 407 162 407 179.5 384 c 128,-1,23
 197 361 197 361 190 326 c 2,24,-1
 158 177 l 2,25,26
 151 143 151 143 124 71 c 1,27,28
 144 115 144 115 172 169 c 2,29,-1
 266 347 l 2,30,31
 298 408 298 408 354 407 c 0,32,33
 429 406 429 406 411 322 c 2,34,-1
 353 47 l 2,0,1
146 331 m 256,35,36
 149 345 149 345 141 355 c 128,-1,37
 133 365 133 365 119 365 c 256,38,39
 105 365 105 365 93 355 c 128,-1,40
 81 345 81 345 78 331 c 256,41,42
 75 317 75 317 83 307 c 128,-1,43
 91 297 91 297 105 297 c 256,44,45
 119 297 119 297 131 307 c 128,-1,46
 143 317 143 317 146 331 c 256,35,36
EndSplineSet
EndChar

StartChar: uni0E18
Encoding: 3608 3608 237
Width: 358
Flags: W
LayerCount: 2
Fore
SplineSet
274 85 m 2,0,1
 254 -8 254 -8 129 -8 c 0,2,3
 5 -8 5 -8 25 85 c 2,4,-1
 39 152 l 2,5,6
 51 208 51 208 86 225 c 1,7,-1
 141 202 l 1,8,9
 108 187 108 187 96 129 c 2,10,-1
 86 81 l 2,11,12
 78 45 78 45 141 45 c 0,13,14
 203 45 203 45 211 81 c 2,15,-1
 239 213 l 2,16,17
 244 236 244 236 169.5 253.5 c 128,-1,18
 95 271 95 271 40 282 c 1,19,20
 60 346 60 346 91 375 c 1,21,22
 127 407 127 407 189 407 c 0,23,24
 211 407 211 407 247 397.5 c 128,-1,25
 283 388 283 388 299 388 c 0,26,27
 321 388 321 388 337 433 c 1,28,-1
 383 420 l 1,29,30
 358 365 358 365 339.5 350 c 128,-1,31
 321 335 321 335 284 335 c 0,32,33
 266 335 266 335 233 345 c 128,-1,34
 200 355 200 355 180 355 c 0,35,36
 126 355 126 355 115 322 c 1,37,38
 208 301 208 301 259.5 282 c 128,-1,39
 311 263 311 263 302 217 c 2,40,-1
 274 85 l 2,0,1
EndSplineSet
EndChar

StartChar: uni0E19
Encoding: 3609 3609 238
Width: 433
Flags: W
LayerCount: 2
Fore
SplineSet
370 67 m 0,0,1
 363 35 363 35 336.5 13.5 c 128,-1,2
 310 -8 310 -8 279 -8 c 0,3,4
 250 -8 250 -8 233 10.5 c 128,-1,5
 216 29 216 29 218 57 c 1,6,7
 182 41 182 41 167 33 c 0,8,9
 139 18 139 18 122 0 c 1,10,-1
 59 0 l 1,11,-1
 113 257 l 1,12,13
 103 255 103 255 96 255 c 0,14,15
 64 255 64 255 46.5 277.5 c 128,-1,16
 29 300 29 300 36 332 c 0,17,18
 43 363 43 363 69.5 385 c 128,-1,19
 96 407 96 407 128 407 c 0,20,21
 162 407 162 407 179.5 384 c 128,-1,22
 197 361 197 361 190 326 c 2,23,-1
 136 72 l 1,24,25
 154 84 154 84 215 107 c 0,26,27
 270 128 270 128 293 149 c 0,28,29
 310 164 310 164 317 197 c 2,30,-1
 352 360 l 2,31,32
 364 416 364 416 399 433 c 1,33,-1
 454 410 l 1,34,35
 421 395 421 395 409 337 c 2,36,-1
 378 189 l 2,37,38
 369 149 369 149 345 134 c 1,39,40
 379 112 379 112 370 67 c 0,0,1
146 331 m 256,41,42
 149 345 149 345 141 355 c 128,-1,43
 133 365 133 365 119 365 c 256,44,45
 105 365 105 365 93 355 c 128,-1,46
 81 345 81 345 78 331 c 256,47,48
 75 317 75 317 83 307 c 128,-1,49
 91 297 91 297 105 297 c 256,50,51
 119 297 119 297 131 307 c 128,-1,52
 143 317 143 317 146 331 c 256,41,42
328 67 m 256,53,54
 331 81 331 81 323 91 c 128,-1,55
 315 101 315 101 301 101 c 256,56,57
 287 101 287 101 275 91 c 128,-1,58
 263 81 263 81 260 67 c 256,59,60
 257 53 257 53 265 43 c 128,-1,61
 273 33 273 33 287 33 c 256,62,63
 301 33 301 33 313 43 c 128,-1,64
 325 53 325 53 328 67 c 256,53,54
EndSplineSet
EndChar

StartChar: uni0E1A
Encoding: 3610 3610 239
Width: 445
Flags: W
LayerCount: 2
Fore
SplineSet
146 331 m 256,0,1
 149 345 149 345 141 355 c 128,-1,2
 133 365 133 365 119 365 c 256,3,4
 105 365 105 365 93 355 c 128,-1,5
 81 345 81 345 78 331 c 256,6,7
 75 317 75 317 83 307 c 128,-1,8
 91 297 91 297 105 297 c 256,9,10
 119 297 119 297 131 307 c 128,-1,11
 143 317 143 317 146 331 c 256,0,1
369 90 m 2,12,13
 348 -8 348 -8 203 -8 c 0,14,15
 57 -8 57 -8 78 90 c 2,16,-1
 113 257 l 1,17,18
 103 255 103 255 96 255 c 0,19,20
 64 255 64 255 46.5 277.5 c 128,-1,21
 29 300 29 300 36 332 c 0,22,23
 43 363 43 363 69.5 385 c 128,-1,24
 96 407 96 407 128 407 c 0,25,26
 162 407 162 407 179.5 384 c 128,-1,27
 197 361 197 361 190 326 c 2,28,-1
 139 89 l 2,29,30
 135 69 135 69 159.5 57 c 128,-1,31
 184 45 184 45 214 45 c 0,32,33
 243 45 243 45 272.5 57 c 128,-1,34
 302 69 302 69 306 89 c 2,35,-1
 364 360 l 2,36,37
 376 416 376 416 411 433 c 1,38,-1
 466 410 l 1,39,40
 433 395 433 395 421 337 c 2,41,-1
 369 90 l 2,12,13
EndSplineSet
EndChar

StartChar: uni0E1B
Encoding: 3611 3611 240
Width: 445
Flags: W
LayerCount: 2
Fore
SplineSet
369 90 m 2,0,1
 348 -8 348 -8 203 -8 c 0,2,3
 57 -8 57 -8 78 90 c 2,4,-1
 113 257 l 1,5,6
 103 255 103 255 96 255 c 0,7,8
 64 255 64 255 46.5 277.5 c 128,-1,9
 29 300 29 300 36 332 c 0,10,11
 43 363 43 363 69.5 385 c 128,-1,12
 96 407 96 407 128 407 c 0,13,14
 162 407 162 407 179.5 384 c 128,-1,15
 197 361 197 361 190 326 c 2,16,-1
 139 89 l 2,17,18
 135 69 135 69 159.5 57 c 128,-1,19
 184 45 184 45 214 45 c 0,20,21
 243 45 243 45 272.5 57 c 128,-1,22
 302 69 302 69 306 89 c 2,23,-1
 395 507 l 2,24,25
 407 563 407 563 442 580 c 1,26,-1
 497 557 l 1,27,28
 464 542 464 542 452 484 c 2,29,-1
 369 90 l 2,0,1
146 331 m 256,30,31
 149 345 149 345 141 355 c 128,-1,32
 133 365 133 365 119 365 c 256,33,34
 105 365 105 365 93 355 c 128,-1,35
 81 345 81 345 78 331 c 256,36,37
 75 317 75 317 83 307 c 128,-1,38
 91 297 91 297 105 297 c 256,39,40
 119 297 119 297 131 307 c 128,-1,41
 143 317 143 317 146 331 c 256,30,31
EndSplineSet
EndChar

StartChar: uni0E1C
Encoding: 3612 3612 241
Width: 414
Flags: W
LayerCount: 2
Fore
SplineSet
319 0 m 1,0,-1
 257 0 l 1,1,-1
 191 160 l 1,2,-1
 57 0 l 1,3,-1
 -4 0 l 1,4,-1
 65 326 l 2,5,6
 72 361 72 361 100.5 384 c 128,-1,7
 129 407 129 407 162 407 c 0,8,9
 194 407 194 407 211 384.5 c 128,-1,10
 228 362 228 362 222 331 c 0,11,12
 215 299 215 299 188.5 277 c 128,-1,13
 162 255 162 255 130 255 c 0,14,15
 116 255 116 255 112 256 c 1,16,-1
 76 85 l 1,17,-1
 181 208 l 1,18,-1
 221 208 l 1,19,-1
 274 84 l 1,20,-1
 333 360 l 2,21,22
 345 416 345 416 380 433 c 1,23,-1
 435 410 l 1,24,25
 402 395 402 395 390 337 c 2,26,-1
 319 0 l 1,0,-1
180 331 m 256,27,28
 183 345 183 345 175 355 c 128,-1,29
 167 365 167 365 153 365 c 256,30,31
 139 365 139 365 127 355 c 128,-1,32
 115 345 115 345 112 331 c 256,33,34
 109 317 109 317 117 307 c 128,-1,35
 125 297 125 297 139 297 c 256,36,37
 153 297 153 297 165 307 c 128,-1,38
 177 317 177 317 180 331 c 256,27,28
EndSplineSet
EndChar

StartChar: uni0E1D
Encoding: 3613 3613 242
Width: 414
Flags: W
LayerCount: 2
Fore
SplineSet
180 331 m 256,0,1
 183 345 183 345 175 355 c 128,-1,2
 167 365 167 365 153 365 c 256,3,4
 139 365 139 365 127 355 c 128,-1,5
 115 345 115 345 112 331 c 256,6,7
 109 317 109 317 117 307 c 128,-1,8
 125 297 125 297 139 297 c 256,9,10
 153 297 153 297 165 307 c 128,-1,11
 177 317 177 317 180 331 c 256,0,1
319 0 m 1,12,-1
 257 0 l 1,13,-1
 191 160 l 1,14,-1
 57 0 l 1,15,-1
 -4 0 l 1,16,-1
 65 326 l 2,17,18
 72 361 72 361 100.5 384 c 128,-1,19
 129 407 129 407 162 407 c 0,20,21
 194 407 194 407 211 384.5 c 128,-1,22
 228 362 228 362 222 331 c 0,23,24
 215 299 215 299 188.5 277 c 128,-1,25
 162 255 162 255 130 255 c 0,26,27
 116 255 116 255 112 256 c 1,28,-1
 76 85 l 1,29,-1
 181 208 l 1,30,-1
 221 208 l 1,31,-1
 274 84 l 1,32,-1
 364 507 l 2,33,34
 376 563 376 563 411 580 c 1,35,-1
 466 557 l 1,36,37
 433 542 433 542 421 484 c 2,38,-1
 319 0 l 1,12,-1
EndSplineSet
EndChar

StartChar: uni0E1E
Encoding: 3614 3614 243
Width: 482
Flags: W
LayerCount: 2
Fore
SplineSet
387 0 m 1,0,-1
 317 0 l 1,1,-1
 288 310 l 1,2,-1
 126 0 l 1,3,-1
 59 0 l 1,4,-1
 113 257 l 1,5,6
 103 255 103 255 96 255 c 0,7,8
 64 255 64 255 46.5 277.5 c 128,-1,9
 29 300 29 300 36 332 c 0,10,11
 43 363 43 363 69.5 385 c 128,-1,12
 96 407 96 407 128 407 c 0,13,14
 162 407 162 407 179.5 384 c 128,-1,15
 197 361 197 361 190 326 c 2,16,-1
 158 177 l 2,17,18
 153 151 153 151 124 71 c 1,19,20
 165 162 165 162 169 169 c 2,21,-1
 285 382 l 1,22,-1
 323 382 l 1,23,-1
 347 169 l 2,24,25
 348 163 348 163 352 71 c 1,26,27
 357 151 357 151 362 177 c 2,28,-1
 401 360 l 2,29,30
 413 416 413 416 448 433 c 1,31,-1
 503 410 l 1,32,33
 470 395 470 395 458 337 c 2,34,-1
 387 0 l 1,0,-1
146 331 m 256,35,36
 149 345 149 345 141 355 c 128,-1,37
 133 365 133 365 119 365 c 256,38,39
 105 365 105 365 93 355 c 128,-1,40
 81 345 81 345 78 331 c 256,41,42
 75 317 75 317 83 307 c 128,-1,43
 91 297 91 297 105 297 c 256,44,45
 119 297 119 297 131 307 c 128,-1,46
 143 317 143 317 146 331 c 256,35,36
EndSplineSet
EndChar

StartChar: uni0E1F
Encoding: 3615 3615 244
Width: 482
Flags: W
LayerCount: 2
Fore
SplineSet
387 0 m 1,0,-1
 317 0 l 1,1,-1
 288 310 l 1,2,-1
 126 0 l 1,3,-1
 59 0 l 1,4,-1
 113 257 l 1,5,6
 103 255 103 255 96 255 c 0,7,8
 64 255 64 255 46.5 277.5 c 128,-1,9
 29 300 29 300 36 332 c 0,10,11
 43 363 43 363 69.5 385 c 128,-1,12
 96 407 96 407 128 407 c 0,13,14
 162 407 162 407 179.5 384 c 128,-1,15
 197 361 197 361 190 326 c 2,16,-1
 158 177 l 2,17,18
 153 151 153 151 124 71 c 1,19,20
 165 162 165 162 169 169 c 2,21,-1
 285 382 l 1,22,-1
 323 382 l 1,23,-1
 347 169 l 2,24,25
 348 163 348 163 352 71 c 1,26,27
 357 151 357 151 362 177 c 2,28,-1
 432 507 l 2,29,30
 444 563 444 563 479 580 c 1,31,-1
 534 557 l 1,32,33
 501 542 501 542 489 484 c 2,34,-1
 387 0 l 1,0,-1
146 331 m 256,35,36
 149 345 149 345 141 355 c 128,-1,37
 133 365 133 365 119 365 c 256,38,39
 105 365 105 365 93 355 c 128,-1,40
 81 345 81 345 78 331 c 256,41,42
 75 317 75 317 83 307 c 128,-1,43
 91 297 91 297 105 297 c 256,44,45
 119 297 119 297 131 307 c 128,-1,46
 143 317 143 317 146 331 c 256,35,36
EndSplineSet
EndChar

StartChar: uni0E20
Encoding: 3616 3616 245
Width: 425
Flags: W
LayerCount: 2
Fore
SplineSet
88 68 m 256,0,1
 91 82 91 82 83 92 c 128,-1,2
 75 102 75 102 61 102 c 256,3,4
 47 102 47 102 35 92 c 128,-1,5
 23 82 23 82 20 68 c 256,6,7
 17 54 17 54 25 44 c 128,-1,8
 33 34 33 34 47 34 c 256,9,10
 61 34 61 34 73 44 c 128,-1,11
 85 54 85 54 88 68 c 256,0,1
340 47 m 2,12,13
 328 -10 328 -10 293 -27 c 1,14,-1
 244 0 l 1,15,16
 273 17 273 17 283 70 c 1,17,-1
 324 265 l 2,18,19
 332 305 332 305 311 329.5 c 128,-1,20
 290 354 290 354 250 354 c 0,21,22
 189 354 189 354 150 303 c 1,23,24
 197 293 197 293 207 258 c 1,25,26
 177 243 177 243 166 233 c 0,27,28
 150 217 150 217 144 190 c 0,29,30
 139 168 139 168 135.5 126.5 c 128,-1,31
 132 85 132 85 128 68 c 0,32,33
 121 36 121 36 95 14 c 128,-1,34
 69 -8 69 -8 38 -8 c 0,35,36
 6 -8 6 -8 -11 14 c 128,-1,37
 -28 36 -28 36 -21 68 c 0,38,39
 -14 99 -14 99 12 121 c 128,-1,40
 38 143 38 143 68 143 c 0,41,42
 80 143 80 143 82 140 c 1,43,-1
 89 202 l 1,44,45
 97 237 97 237 135 256 c 1,46,47
 112 273 112 273 76 268 c 1,48,49
 91 330 91 330 144 370 c 1,50,51
 195 407 195 407 260 407 c 0,52,53
 330 407 330 407 364.5 368 c 128,-1,54
 399 329 399 329 386 264 c 2,55,-1
 340 47 l 2,12,13
EndSplineSet
EndChar

StartChar: uni0E21
Encoding: 3617 3617 246
Width: 417
Flags: W
LayerCount: 2
Fore
SplineSet
157 331 m 256,0,1
 160 345 160 345 152 355 c 128,-1,2
 144 365 144 365 130 365 c 256,3,4
 116 365 116 365 104 355 c 128,-1,5
 92 345 92 345 89 331 c 256,6,7
 86 317 86 317 94 307 c 128,-1,8
 102 297 102 297 116 297 c 256,9,10
 130 297 130 297 142 307 c 128,-1,11
 154 317 154 317 157 331 c 256,0,1
112 73 m 256,12,13
 115 87 115 87 107 97 c 128,-1,14
 99 107 99 107 85 107 c 256,15,16
 71 107 71 107 59 97 c 128,-1,17
 47 87 47 87 44 73 c 256,18,19
 41 59 41 59 49 49 c 128,-1,20
 57 39 57 39 71 39 c 256,21,22
 85 39 85 39 97 49 c 128,-1,23
 109 59 109 59 112 73 c 256,12,13
322 0 m 1,24,-1
 260 0 l 1,25,26
 213 52 213 52 158 73 c 1,27,-1
 157 68 l 2,28,29
 150 36 150 36 121 14 c 128,-1,30
 92 -8 92 -8 61 -8 c 0,31,32
 28 -8 28 -8 9.5 16 c 128,-1,33
 -9 40 -9 40 -2 73 c 0,34,35
 4 106 4 106 33 129.5 c 128,-1,36
 62 153 62 153 95 153 c 2,37,-1
 102 153 l 1,38,-1
 124 257 l 1,39,40
 114 255 114 255 107 255 c 0,41,42
 75 255 75 255 57.5 277.5 c 128,-1,43
 40 300 40 300 47 332 c 0,44,45
 54 363 54 363 80.5 385 c 128,-1,46
 107 407 107 407 139 407 c 0,47,48
 173 407 173 407 190.5 384 c 128,-1,49
 208 361 208 361 201 326 c 2,50,-1
 160 136 l 1,51,52
 234 109 234 109 273 65 c 1,53,-1
 336 360 l 2,54,55
 348 416 348 416 383 433 c 1,56,-1
 438 410 l 1,57,58
 405 395 405 395 393 337 c 2,59,-1
 322 0 l 1,24,-1
EndSplineSet
EndChar

StartChar: uni0E22
Encoding: 3618 3618 247
Width: 386
Flags: W
LayerCount: 2
Fore
SplineSet
190 339 m 256,0,1
 193 353 193 353 185.5 362 c 128,-1,2
 178 371 178 371 164 371 c 256,3,4
 150 371 150 371 139.5 362 c 128,-1,5
 129 353 129 353 126 339 c 256,6,7
 123 325 123 325 130 316 c 128,-1,8
 137 307 137 307 151 307 c 256,9,10
 165 307 165 307 176 316 c 128,-1,11
 187 325 187 325 190 339 c 256,0,1
312 101 m 2,12,13
 289 -8 289 -8 141 -8 c 0,14,15
 -5 -8 -5 -8 17 101 c 1,16,-1
 27 147 l 2,17,18
 37 195 37 195 82 215 c 1,19,20
 43 246 43 246 56 306 c 0,21,22
 65 350 65 350 95.5 378.5 c 128,-1,23
 126 407 126 407 169 407 c 0,24,25
 199 407 199 407 216 388.5 c 128,-1,26
 233 370 233 370 227 340 c 0,27,28
 221 313 221 313 198 293 c 128,-1,29
 175 273 175 273 144 273 c 0,30,31
 128 273 128 273 117 278 c 1,32,33
 117 240 117 240 145 240 c 2,34,-1
 216 240 l 1,35,-1
 205 191 l 1,36,-1
 134 191 l 2,37,38
 118 191 118 191 105 177 c 128,-1,39
 92 163 92 163 88 145 c 2,40,-1
 79 99 l 1,41,42
 67 45 67 45 152 45 c 0,43,44
 238 45 238 45 250 99 c 2,45,-1
 305 360 l 2,46,47
 317 416 317 416 352 433 c 1,48,-1
 407 410 l 1,49,50
 374 395 374 395 362 337 c 2,51,-1
 312 101 l 2,12,13
EndSplineSet
EndChar

StartChar: uni0E23
Encoding: 3619 3619 248
Width: 329
Flags: W
LayerCount: 2
Fore
SplineSet
241 67 m 2,0,1
 234 35 234 35 207 13.5 c 128,-1,2
 180 -8 180 -8 148 -8 c 256,3,4
 116 -8 116 -8 98 14 c 128,-1,5
 80 36 80 36 87 68 c 256,6,7
 94 100 94 100 121 122 c 128,-1,8
 148 144 148 144 180 144 c 0,9,10
 192 144 192 144 195 143 c 1,11,-1
 213 229 l 2,12,13
 217 245 217 245 153.5 260.5 c 128,-1,14
 90 276 90 276 38 285 c 1,15,16
 52 340 52 340 86 373.5 c 128,-1,17
 120 407 120 407 171 407 c 0,18,19
 192 407 192 407 226.5 397.5 c 128,-1,20
 261 388 261 388 277 388 c 0,21,22
 299 388 299 388 307 433 c 1,23,-1
 353 420 l 1,24,25
 328 336 328 336 268 336 c 0,26,27
 250 336 250 336 218.5 345 c 128,-1,28
 187 354 187 354 170 354 c 0,29,30
 126 354 126 354 113 320 c 1,31,32
 186 304 186 304 234.5 286 c 128,-1,33
 283 268 283 268 274 224 c 2,34,-1
 241 67 l 2,0,1
198 68 m 256,35,36
 201 82 201 82 193 92 c 128,-1,37
 185 102 185 102 171 102 c 256,38,39
 157 102 157 102 145 92 c 128,-1,40
 133 82 133 82 130 68 c 256,41,42
 127 54 127 54 135 44 c 128,-1,43
 143 34 143 34 157 34 c 256,44,45
 171 34 171 34 183 44 c 128,-1,46
 195 54 195 54 198 68 c 256,35,36
EndSplineSet
EndChar

StartChar: uni0E24
Encoding: 3620 3620 249
Width: 391
Flags: W
LayerCount: 2
Fore
SplineSet
273 -107 m 2,0,1
 261 -164 261 -164 226 -181 c 1,2,-1
 177 -154 l 1,3,4
 206 -137 206 -137 216 -84 c 1,5,-1
 290 265 l 2,6,7
 299 306 299 306 279 330 c 128,-1,8
 259 354 259 354 218 354 c 0,9,10
 158 354 158 354 116 303 c 1,11,12
 161 294 161 294 173 258 c 1,13,14
 116 228 116 228 107 186 c 2,15,-1
 97 139 l 1,16,17
 105 143 105 143 117 143 c 0,18,19
 148 143 148 143 165 121.5 c 128,-1,20
 182 100 182 100 175 68 c 256,21,22
 168 36 168 36 141.5 14 c 128,-1,23
 115 -8 115 -8 83 -8 c 0,24,25
 50 -8 50 -8 32 15 c 128,-1,26
 14 38 14 38 21 73 c 2,27,-1
 46 190 l 2,28,29
 55 232 55 232 101 256 c 1,30,31
 80 273 80 273 42 268 c 1,32,33
 58 330 58 330 112 370 c 0,34,35
 162 407 162 407 227 407 c 0,36,37
 299 407 299 407 332.5 368.5 c 128,-1,38
 366 330 366 330 352 264 c 2,39,-1
 273 -107 l 2,0,1
135 67 m 256,40,41
 138 81 138 81 130 91 c 128,-1,42
 122 101 122 101 108 101 c 256,43,44
 94 101 94 101 82 91 c 128,-1,45
 70 81 70 81 67 67 c 256,46,47
 64 53 64 53 72 43 c 128,-1,48
 80 33 80 33 94 33 c 256,49,50
 108 33 108 33 120 43 c 128,-1,51
 132 53 132 53 135 67 c 256,40,41
EndSplineSet
EndChar

StartChar: uni0E25
Encoding: 3621 3621 250
Width: 399
Flags: W
LayerCount: 2
Fore
SplineSet
364 286 m 2,0,-1
 318 67 l 2,1,2
 303 -7 303 -7 279 -20 c 1,3,-1
 231 2 l 1,4,5
 253 29 253 29 253 76 c 0,6,7
 253 120 253 120 231.5 168.5 c 128,-1,8
 210 217 210 217 184 234 c 1,9,10
 154 231 154 231 127 201 c 0,11,12
 104 176 104 176 95 145 c 1,13,-1
 118 145 l 2,14,15
 145 145 145 145 163.5 126.5 c 128,-1,16
 182 108 182 108 182 82 c 0,17,18
 182 43 182 43 151.5 18 c 128,-1,19
 121 -7 121 -7 85 -7 c 0,20,21
 56 -7 56 -7 38 9.5 c 128,-1,22
 20 26 20 26 20 53 c 0,23,24
 20 167 20 167 85 231 c 0,25,26
 136 282 136 282 197 282 c 1,27,28
 248 250 248 250 270 200 c 1,29,30
 279 167 279 167 288 134 c 1,31,32
 285 192 285 192 290 220 c 2,33,-1
 304 293 l 2,34,35
 304 295 304 295 305 298 c 0,36,37
 305 301 305 301 305 302 c 0,38,39
 305 326 305 326 279.5 340 c 128,-1,40
 254 354 254 354 218 354 c 0,41,42
 177 354 177 354 144.5 334.5 c 128,-1,43
 112 315 112 315 99 282 c 1,44,-1
 39 282 l 1,45,46
 55 340 55 340 107 373.5 c 128,-1,47
 159 407 159 407 231 407 c 0,48,49
 286 407 286 407 324 384 c 0,50,51
 367 357 367 357 367 310 c 0,52,53
 367 300 367 300 364 286 c 2,0,-1
136 69 m 256,54,55
 139 83 139 83 131 93 c 128,-1,56
 123 103 123 103 109 103 c 256,57,58
 95 103 95 103 83 93 c 128,-1,59
 71 83 71 83 68 69 c 256,60,61
 65 55 65 55 73 45 c 128,-1,62
 81 35 81 35 95 35 c 256,63,64
 109 35 109 35 121 45 c 128,-1,65
 133 55 133 55 136 69 c 256,54,55
EndSplineSet
EndChar

StartChar: uni0E26
Encoding: 3622 3622 251
Width: 425
Flags: W
LayerCount: 2
Fore
SplineSet
88 68 m 256,0,1
 91 82 91 82 83 92 c 128,-1,2
 75 102 75 102 61 102 c 256,3,4
 47 102 47 102 35 92 c 128,-1,5
 23 82 23 82 20 68 c 256,6,7
 17 54 17 54 25 44 c 128,-1,8
 33 34 33 34 47 34 c 256,9,10
 61 34 61 34 73 44 c 128,-1,11
 85 54 85 54 88 68 c 256,0,1
307 -107 m 2,12,13
 295 -164 295 -164 260 -181 c 1,14,-1
 211 -154 l 1,15,16
 240 -137 240 -137 250 -84 c 1,17,-1
 324 265 l 2,18,19
 332 305 332 305 311 329.5 c 128,-1,20
 290 354 290 354 250 354 c 0,21,22
 189 354 189 354 150 303 c 1,23,24
 197 293 197 293 207 258 c 1,25,26
 177 243 177 243 166 233 c 0,27,28
 150 217 150 217 144 190 c 0,29,30
 139 168 139 168 135.5 126.5 c 128,-1,31
 132 85 132 85 128 68 c 0,32,33
 121 36 121 36 95 14 c 128,-1,34
 69 -8 69 -8 38 -8 c 0,35,36
 6 -8 6 -8 -11 14 c 128,-1,37
 -28 36 -28 36 -21 68 c 0,38,39
 -14 99 -14 99 12 121 c 128,-1,40
 38 143 38 143 68 143 c 0,41,42
 80 143 80 143 82 140 c 1,43,-1
 89 202 l 1,44,45
 97 237 97 237 135 256 c 1,46,47
 111 268 111 268 76 267 c 1,48,49
 91 330 91 330 144 370 c 1,50,51
 195 407 195 407 260 407 c 0,52,53
 330 407 330 407 364.5 368 c 128,-1,54
 399 329 399 329 386 264 c 2,55,-1
 307 -107 l 2,12,13
EndSplineSet
EndChar

StartChar: uni0E27
Encoding: 3623 3623 252
Width: 379
Flags: W
LayerCount: 2
Fore
SplineSet
299 73 m 2,0,1
 292 38 292 38 264 15.5 c 128,-1,2
 236 -7 236 -7 202 -7 c 0,3,4
 170 -7 170 -7 152.5 15 c 128,-1,5
 135 37 135 37 142 68 c 0,6,7
 149 100 149 100 175.5 122 c 128,-1,8
 202 144 202 144 234 144 c 0,9,10
 245 144 245 144 252 143 c 1,11,-1
 283 290 l 2,12,13
 297 354 297 354 205 354 c 0,14,15
 167 354 167 354 135.5 330.5 c 128,-1,16
 104 307 104 307 95 268 c 1,17,-1
 35 268 l 1,18,19
 52 334 52 334 100.5 370.5 c 128,-1,20
 149 407 149 407 216 407 c 0,21,22
 282 407 282 407 316 381 c 0,23,24
 358 350 358 350 344 286 c 2,25,-1
 299 73 l 2,0,1
252 69 m 256,26,27
 255 83 255 83 247 93 c 128,-1,28
 239 103 239 103 225 103 c 256,29,30
 211 103 211 103 199 93 c 128,-1,31
 187 83 187 83 184 69 c 256,32,33
 181 55 181 55 189 45 c 128,-1,34
 197 35 197 35 211 35 c 256,35,36
 225 35 225 35 237 45 c 128,-1,37
 249 55 249 55 252 69 c 256,26,27
EndSplineSet
EndChar

StartChar: uni0E28
Encoding: 3624 3624 253
Width: 403
Flags: W
LayerCount: 2
Fore
SplineSet
318 47 m 2,0,1
 306 -10 306 -10 271 -27 c 1,2,-1
 222 0 l 1,3,4
 250 17 250 17 261 70 c 2,5,-1
 304 273 l 2,6,7
 306 282 306 282 306 288 c 0,8,9
 306 319 306 319 278 338 c 0,10,11
 254 354 254 354 223 354 c 0,12,13
 180 354 180 354 146 324 c 128,-1,14
 112 294 112 294 102 253 c 0,15,16
 100 242 100 242 99 216.5 c 128,-1,17
 98 191 98 191 94 172 c 2,18,-1
 88 146 l 1,19,-1
 107 197 l 1,20,21
 160 303 160 303 221 303 c 0,22,23
 244 303 244 303 259.5 288 c 128,-1,24
 275 273 275 273 275 251 c 0,25,26
 275 219 275 219 248.5 196 c 128,-1,27
 222 173 222 173 193 173 c 0,28,29
 169 173 169 173 152 191 c 1,30,31
 103 100 103 100 82 0 c 1,32,-1
 20 0 l 1,33,-1
 33 64 l 2,34,35
 40 98 40 98 40 129 c 0,36,37
 40 144 40 144 38 169.5 c 128,-1,38
 36 195 36 195 36 206 c 0,39,40
 36 291 36 291 95 349 c 128,-1,41
 154 407 154 407 239 407 c 0,42,43
 278 407 278 407 308 393 c 1,44,45
 348 434 348 434 382 447 c 1,46,-1
 427 417 l 1,47,48
 387 400 387 400 350 361 c 1,49,50
 368 336 368 336 368 301 c 0,51,52
 368 285 368 285 365 271 c 2,53,-1
 318 47 l 2,0,1
238 245 m 0,54,55
 238 269 238 269 213 269 c 0,56,57
 198 269 198 269 186.5 257 c 128,-1,58
 175 245 175 245 175 231 c 0,59,60
 175 208 175 208 200 208 c 0,61,62
 215 208 215 208 226.5 219.5 c 128,-1,63
 238 231 238 231 238 245 c 0,54,55
EndSplineSet
EndChar

StartChar: uni0E29
Encoding: 3625 3625 254
Width: 461
Flags: W
LayerCount: 2
Fore
SplineSet
146 331 m 256,0,1
 149 345 149 345 141 355 c 128,-1,2
 133 365 133 365 119 365 c 256,3,4
 105 365 105 365 93 355 c 128,-1,5
 81 345 81 345 78 331 c 256,6,7
 75 317 75 317 83 307 c 128,-1,8
 91 297 91 297 105 297 c 256,9,10
 119 297 119 297 131 307 c 128,-1,11
 143 317 143 317 146 331 c 256,0,1
285 234 m 256,12,13
 288 247 288 247 281.5 256 c 128,-1,14
 275 265 275 265 262 265 c 256,15,16
 249 265 249 265 238.5 256 c 128,-1,17
 228 247 228 247 225 234 c 256,18,19
 222 221 222 221 229 212 c 128,-1,20
 236 203 236 203 249 203 c 256,21,22
 262 203 262 203 272 212 c 128,-1,23
 282 221 282 221 285 234 c 256,12,13
474 237 m 1,24,25
 448 205 448 205 404 179 c 1,26,-1
 385 90 l 2,27,28
 364 -8 364 -8 211 -8 c 0,29,30
 57 -8 57 -8 78 90 c 2,31,-1
 113 257 l 1,32,33
 103 255 103 255 96 255 c 0,34,35
 64 255 64 255 46.5 277.5 c 128,-1,36
 29 300 29 300 36 332 c 0,37,38
 43 363 43 363 69.5 385 c 128,-1,39
 96 407 96 407 128 407 c 0,40,41
 162 407 162 407 179.5 384 c 128,-1,42
 197 361 197 361 190 326 c 2,43,-1
 140 93 l 2,44,45
 136 73 136 73 156.5 59 c 128,-1,46
 177 45 177 45 221 45 c 0,47,48
 266 45 266 45 292.5 59 c 128,-1,49
 319 73 319 73 323 93 c 2,50,-1
 336 153 l 1,51,52
 312 148 312 148 293 148 c 0,53,54
 171 148 171 148 189 231 c 0,55,56
 195 259 195 259 217.5 278.5 c 128,-1,57
 240 298 240 298 271 298 c 0,58,59
 300 298 300 298 314 279.5 c 128,-1,60
 328 261 328 261 322 235 c 1,61,62
 316 203 316 203 291 188 c 1,63,64
 319 190 319 190 346 198 c 1,65,-1
 380 360 l 2,66,67
 392 416 392 416 427 433 c 1,68,-1
 482 410 l 1,69,70
 449 395 449 395 437 337 c 2,71,-1
 415 233 l 1,72,73
 434 248 434 248 448 270 c 1,74,-1
 474 237 l 1,24,25
EndSplineSet
EndChar

StartChar: uni0E2A
Encoding: 3626 3626 255
Width: 399
Flags: W
LayerCount: 2
Fore
SplineSet
364 286 m 2,0,-1
 318 67 l 2,1,2
 303 -7 303 -7 279 -20 c 1,3,-1
 231 2 l 1,4,5
 253 29 253 29 253 76 c 0,6,7
 253 120 253 120 231.5 168.5 c 128,-1,8
 210 217 210 217 184 234 c 1,9,10
 154 231 154 231 127 201 c 0,11,12
 104 176 104 176 95 145 c 1,13,-1
 118 145 l 2,14,15
 145 145 145 145 163.5 126.5 c 128,-1,16
 182 108 182 108 182 82 c 0,17,18
 182 43 182 43 151.5 18 c 128,-1,19
 121 -7 121 -7 85 -7 c 0,20,21
 56 -7 56 -7 38 9.5 c 128,-1,22
 20 26 20 26 20 53 c 0,23,24
 20 167 20 167 85 231 c 0,25,26
 136 282 136 282 197 282 c 1,27,28
 248 250 248 250 270 200 c 1,29,30
 279 167 279 167 288 134 c 1,31,32
 285 192 285 192 290 220 c 2,33,-1
 304 293 l 2,34,35
 305 298 305 298 305 302 c 0,36,37
 305 326 305 326 279.5 340 c 128,-1,38
 254 354 254 354 218 354 c 0,39,40
 177 354 177 354 144.5 334.5 c 128,-1,41
 112 315 112 315 99 282 c 1,42,-1
 39 282 l 1,43,44
 55 340 55 340 107 373.5 c 128,-1,45
 159 407 159 407 231 407 c 0,46,47
 273 407 273 407 307 392 c 1,48,49
 350 437 350 437 382 447 c 1,50,-1
 427 417 l 1,51,52
 385 400 385 400 350 361 c 1,53,54
 367 339 367 339 367 310 c 0,55,56
 367 300 367 300 364 286 c 2,0,-1
136 69 m 256,57,58
 139 83 139 83 131 93 c 128,-1,59
 123 103 123 103 109 103 c 256,60,61
 95 103 95 103 83 93 c 128,-1,62
 71 83 71 83 68 69 c 256,63,64
 65 55 65 55 73 45 c 128,-1,65
 81 35 81 35 95 35 c 256,66,67
 109 35 109 35 121 45 c 128,-1,68
 133 55 133 55 136 69 c 256,57,58
EndSplineSet
EndChar

StartChar: uni0E2B
Encoding: 3627 3627 256
Width: 438
Flags: W
LayerCount: 2
Fore
SplineSet
353 47 m 2,0,1
 341 -10 341 -10 306 -27 c 1,2,-1
 257 0 l 1,3,4
 286 17 286 17 296 70 c 1,5,-1
 328 222 l 2,6,7
 333 249 333 249 322 249 c 0,8,9
 314 249 314 249 294 224 c 2,10,-1
 117 0 l 1,11,-1
 59 0 l 1,12,-1
 113 257 l 1,13,14
 103 255 103 255 96 255 c 0,15,16
 64 255 64 255 46.5 277.5 c 128,-1,17
 29 300 29 300 36 332 c 0,18,19
 43 363 43 363 69.5 385 c 128,-1,20
 96 407 96 407 128 407 c 0,21,22
 162 407 162 407 179.5 384 c 128,-1,23
 197 361 197 361 190 326 c 2,24,-1
 158 177 l 2,25,26
 153 151 153 151 124 71 c 1,27,28
 143 114 143 114 170 150 c 1,29,-1
 246 245 l 2,30,31
 270 275 270 275 285 279 c 1,32,33
 270 304 270 304 276 331 c 0,34,35
 283 363 283 363 309.5 385 c 128,-1,36
 336 407 336 407 368 407 c 256,37,38
 400 407 400 407 417.5 385 c 128,-1,39
 435 363 435 363 428 331 c 0,40,41
 421 298 421 298 388 273 c 1,42,43
 395 248 395 248 389 219 c 2,44,-1
 353 47 l 2,0,1
146 331 m 256,45,46
 149 345 149 345 141 355 c 128,-1,47
 133 365 133 365 119 365 c 256,48,49
 105 365 105 365 93 355 c 128,-1,50
 81 345 81 345 78 331 c 256,51,52
 75 317 75 317 83 307 c 128,-1,53
 91 297 91 297 105 297 c 256,54,55
 119 297 119 297 131 307 c 128,-1,56
 143 317 143 317 146 331 c 256,45,46
386 331 m 256,57,58
 389 345 389 345 381 355 c 128,-1,59
 373 365 373 365 359 365 c 256,60,61
 345 365 345 365 333 355 c 128,-1,62
 321 345 321 345 318 331 c 256,63,64
 315 317 315 317 323 307 c 128,-1,65
 331 297 331 297 345 297 c 256,66,67
 359 297 359 297 371 307 c 128,-1,68
 383 317 383 317 386 331 c 256,57,58
EndSplineSet
EndChar

StartChar: uni0E2C
Encoding: 3628 3628 257
Width: 468
Flags: W
LayerCount: 2
Fore
SplineSet
373 0 m 1,0,-1
 310 0 l 1,1,-1
 253 178 l 1,2,-1
 123 0 l 1,3,-1
 59 0 l 1,4,-1
 113 257 l 1,5,6
 103 255 103 255 96 255 c 0,7,8
 64 255 64 255 46.5 277.5 c 128,-1,9
 29 300 29 300 36 332 c 0,10,11
 43 363 43 363 69.5 385 c 128,-1,12
 96 407 96 407 128 407 c 0,13,14
 162 407 162 407 179.5 384 c 128,-1,15
 197 361 197 361 190 326 c 2,16,-1
 156 166 l 2,17,18
 149 135 149 135 123 68 c 1,19,20
 137 92 137 92 155 116 c 1,21,-1
 240 221 l 1,22,-1
 284 221 l 1,23,-1
 325 116 l 1,24,25
 333 92 333 92 337 68 c 1,26,27
 339 135 339 135 346 166 c 2,28,-1
 365 257 l 1,29,30
 355 255 355 255 348 255 c 0,31,32
 316 255 316 255 298.5 277.5 c 128,-1,33
 281 300 281 300 288 332 c 0,34,35
 295 363 295 363 321.5 385 c 128,-1,36
 348 407 348 407 380 407 c 0,37,38
 398 407 398 407 412 399 c 1,39,40
 444 432 444 432 480 447 c 1,41,-1
 525 417 l 1,42,43
 467 392 467 392 441 362 c 1,44,45
 446 346 446 346 442 326 c 2,46,-1
 373 0 l 1,0,-1
398 331 m 256,47,48
 401 345 401 345 393 355 c 128,-1,49
 385 365 385 365 371 365 c 256,50,51
 357 365 357 365 345 355 c 128,-1,52
 333 345 333 345 330 331 c 256,53,54
 327 317 327 317 335 307 c 128,-1,55
 343 297 343 297 357 297 c 256,56,57
 371 297 371 297 383 307 c 128,-1,58
 395 317 395 317 398 331 c 256,47,48
146 331 m 256,59,60
 149 345 149 345 141 355 c 128,-1,61
 133 365 133 365 119 365 c 256,62,63
 105 365 105 365 93 355 c 128,-1,64
 81 345 81 345 78 331 c 256,65,66
 75 317 75 317 83 307 c 128,-1,67
 91 297 91 297 105 297 c 256,68,69
 119 297 119 297 131 307 c 128,-1,70
 143 317 143 317 146 331 c 256,59,60
EndSplineSet
Substitution2: "<23,16000>  in Thai lookup 77 nested-substitutions 0 subtable" uni0E2C.alt1
Substitution2: "Single Substitution lookup 58 subtable" uni0E2C.alt1
EndChar

StartChar: uni0E2D
Encoding: 3629 3629 258
Width: 394
Flags: W
LayerCount: 2
Fore
SplineSet
318 90 m 2,0,1
 307 38 307 38 254 13 c 1,2,3
 212 -8 212 -8 152 -8 c 256,4,5
 92 -8 92 -8 59 13 c 0,6,7
 20 38 20 38 31 90 c 2,8,-1
 52 191 l 2,9,10
 60 227 60 227 85 251.5 c 128,-1,11
 110 276 110 276 147 276 c 0,12,13
 179 276 179 276 196.5 254.5 c 128,-1,14
 214 233 214 233 207 201 c 0,15,16
 201 170 201 170 174 148 c 128,-1,17
 147 126 147 126 115 126 c 0,18,19
 106 126 106 126 101 128 c 1,20,-1
 94 97 l 2,21,22
 83 45 83 45 164 45 c 0,23,24
 246 45 246 45 257 98 c 2,25,-1
 298 290 l 2,26,27
 305 323 305 323 278 340 c 0,28,29
 255 354 255 354 217 354 c 0,30,31
 122 354 122 354 103 305 c 1,32,-1
 43 305 l 1,33,34
 78 406 78 406 223 407 c 0,35,36
 290 407 290 407 328 382 c 1,37,38
 373 350 373 350 359 286 c 2,39,-1
 318 90 l 2,0,1
165 201 m 256,40,41
 168 215 168 215 160 225 c 128,-1,42
 152 235 152 235 138 235 c 256,43,44
 124 235 124 235 112 225 c 128,-1,45
 100 215 100 215 97 201 c 256,46,47
 94 187 94 187 102 177 c 128,-1,48
 110 167 110 167 124 167 c 256,49,50
 138 167 138 167 150 177 c 128,-1,51
 162 187 162 187 165 201 c 256,40,41
EndSplineSet
EndChar

StartChar: uni0E2E
Encoding: 3630 3630 259
Width: 385
Flags: W
LayerCount: 2
Fore
SplineSet
309 90 m 2,0,1
 298 38 298 38 245 13 c 1,2,3
 203 -8 203 -8 143 -8 c 256,4,5
 83 -8 83 -8 50 13 c 0,6,7
 11 38 11 38 22 90 c 2,8,-1
 39 172 l 2,9,10
 47 208 47 208 72 232.5 c 128,-1,11
 97 257 97 257 134 257 c 0,12,13
 166 257 166 257 183.5 235.5 c 128,-1,14
 201 214 201 214 194 182 c 0,15,16
 188 151 188 151 161 129 c 128,-1,17
 134 107 134 107 102 107 c 0,18,19
 93 107 93 107 88 109 c 1,20,-1
 85 97 l 1,21,22
 74 45 74 45 155 45 c 0,23,24
 237 45 237 45 248 98 c 2,25,-1
 295 317 l 1,26,27
 254 281 254 281 175 281 c 0,28,29
 48 281 48 281 59 334 c 0,30,31
 75 408 75 408 222 408 c 0,32,33
 266 408 266 408 297 393 c 1,34,35
 331 429 331 429 371 447 c 1,36,-1
 416 417 l 1,37,38
 363 394 363 394 339 361 c 1,39,40
 358 332 358 332 350 283 c 1,41,-1
 309 90 l 2,0,1
274 355 m 1,42,43
 243 363 243 363 204 363 c 0,44,45
 124 363 124 363 118 338 c 0,46,47
 115 322 115 322 189 322 c 0,48,49
 249 322 249 322 274 355 c 1,42,43
152 182 m 256,50,51
 155 196 155 196 147 206 c 128,-1,52
 139 216 139 216 125 216 c 256,53,54
 111 216 111 216 99 206 c 128,-1,55
 87 196 87 196 84 182 c 256,56,57
 81 168 81 168 89 158 c 128,-1,58
 97 148 97 148 111 148 c 256,59,60
 125 148 125 148 137 158 c 128,-1,61
 149 168 149 168 152 182 c 256,50,51
EndSplineSet
EndChar

StartChar: uni0E2F
Encoding: 3631 3631 260
Width: 380
Flags: W
LayerCount: 2
Fore
SplineSet
160 330 m 256,0,1
 163 344 163 344 155 354 c 128,-1,2
 147 364 147 364 133 364 c 256,3,4
 119 364 119 364 107 354 c 128,-1,5
 95 344 95 344 92 330 c 256,6,7
 89 316 89 316 96.5 306 c 128,-1,8
 104 296 104 296 118 296 c 256,9,10
 132 296 132 296 144.5 306 c 128,-1,11
 157 316 157 316 160 330 c 256,0,1
294 47 m 2,12,13
 282 -10 282 -10 247 -27 c 1,14,-1
 198 0 l 1,15,16
 227 17 227 17 237 70 c 1,17,-1
 288 315 l 2,18,19
 296 351 296 351 286 353 c 1,20,21
 272 306 272 306 224 277.5 c 128,-1,22
 176 249 176 249 127 249 c 0,23,24
 88 249 88 249 67 269 c 1,25,26
 41 291 41 291 50 330 c 1,27,28
 56 362 56 362 83 384.5 c 128,-1,29
 110 407 110 407 142 407 c 256,30,31
 174 407 174 407 191.5 384.5 c 128,-1,32
 209 362 209 362 203 330 c 0,33,34
 202 325 202 325 197 315 c 1,35,36
 236 340 236 340 255 399 c 1,37,-1
 300 399 l 2,38,39
 368 399 368 399 353 327 c 2,40,-1
 294 47 l 2,12,13
EndSplineSet
EndChar

StartChar: uni0E30
Encoding: 3632 3632 261
Width: 340
Flags: W
LayerCount: 2
Fore
SplineSet
342 397 m 1,0,1
 303 238 303 238 159 238 c 0,2,3
 99 238 99 238 72.5 262.5 c 128,-1,4
 46 287 46 287 54 325 c 0,5,6
 60 354 60 354 84 374 c 128,-1,7
 108 394 108 394 137 394 c 0,8,9
 168 394 168 394 183.5 373.5 c 128,-1,10
 199 353 199 353 193 325 c 0,11,12
 187 298 187 298 169 285 c 1,13,14
 263 289 263 289 286 397 c 1,15,-1
 342 397 l 1,0,1
153 325 m 0,16,17
 155 338 155 338 148 347 c 128,-1,18
 141 356 141 356 128 356 c 256,19,20
 115 356 115 356 104.5 347 c 128,-1,21
 94 338 94 338 92 325 c 0,22,23
 89 312 89 312 95.5 303.5 c 128,-1,24
 102 295 102 295 115 295 c 256,25,26
 128 295 128 295 139 303.5 c 128,-1,27
 150 312 150 312 153 325 c 0,16,17
294 170 m 1,28,29
 255 11 255 11 111 11 c 0,30,31
 51 11 51 11 24.5 35.5 c 128,-1,32
 -2 60 -2 60 5 98 c 0,33,34
 11 127 11 127 35.5 147 c 128,-1,35
 60 167 60 167 89 167 c 0,36,37
 120 167 120 167 135 146.5 c 128,-1,38
 150 126 150 126 144 98 c 0,39,40
 139 71 139 71 121 58 c 1,41,42
 215 62 215 62 238 170 c 1,43,-1
 294 170 l 1,28,29
104 98 m 0,44,45
 107 111 107 111 100 120 c 128,-1,46
 93 129 93 129 80 129 c 256,47,48
 67 129 67 129 56.5 120 c 128,-1,49
 46 111 46 111 43 98 c 0,50,51
 41 85 41 85 47.5 76.5 c 128,-1,52
 54 68 54 68 67 68 c 256,53,54
 80 68 80 68 91 76.5 c 128,-1,55
 102 85 102 85 104 98 c 0,44,45
EndSplineSet
EndChar

StartChar: uni0E31
Encoding: 3633 3633 262
Width: 0
Flags: W
LayerCount: 2
Fore
SplineSet
142 643 m 1,0,1
 81 477 81 477 -72 477 c 0,2,3
 -132 477 -132 477 -159 501.5 c 128,-1,4
 -186 526 -186 526 -178 564 c 0,5,6
 -171 593 -171 593 -147 613 c 128,-1,7
 -123 633 -123 633 -94 633 c 0,8,9
 -63 633 -63 633 -48 612.5 c 128,-1,10
 -33 592 -33 592 -39 564 c 0,11,12
 -44 537 -44 537 -62 524 c 1,13,14
 42 528 42 528 83 643 c 1,15,-1
 142 643 l 1,0,1
-79 564 m 0,16,17
 -76 577 -76 577 -83 586 c 128,-1,18
 -90 595 -90 595 -103 595 c 256,19,20
 -116 595 -116 595 -126.5 586 c 128,-1,21
 -137 577 -137 577 -140 564 c 0,22,23
 -142 551 -142 551 -135.5 542.5 c 128,-1,24
 -129 534 -129 534 -116 534 c 256,25,26
 -103 534 -103 534 -92 542.5 c 128,-1,27
 -81 551 -81 551 -79 564 c 0,16,17
EndSplineSet
Substitution2: "<23,16000>  in Thai lookup 65 nested-substitutions 2 subtable" uni0E31.alt1
Substitution2: "Single Substitution lookup 58 subtable" uni0E31.alt1
EndChar

StartChar: uni0E32
Encoding: 3634 3634 263
Width: 343
Flags: W
LayerCount: 2
Fore
SplineSet
258 47 m 2,0,1
 246 -10 246 -10 211 -27 c 1,2,-1
 162 0 l 1,3,4
 191 17 191 17 201 70 c 1,5,-1
 247 291 l 2,6,7
 253 319 253 319 238 336.5 c 128,-1,8
 223 354 223 354 190 354 c 256,9,10
 157 354 157 354 131 332 c 128,-1,11
 105 310 105 310 97 276 c 1,12,-1
 37 276 l 1,13,14
 53 336 53 336 97 371.5 c 128,-1,15
 141 407 141 407 201 407 c 0,16,17
 257 407 257 407 289.5 378.5 c 128,-1,18
 322 350 322 350 310 292 c 2,19,-1
 258 47 l 2,0,1
EndSplineSet
Substitution2: "<23,16000>  in Thai lookup 65 nested-substitutions 8 subtable" uni0E45
EndChar

StartChar: uni0E33
Encoding: 3635 3635 264
Width: 343
Flags: W
LayerCount: 2
Fore
SplineSet
258 47 m 2,0,1
 246 -10 246 -10 211 -27 c 1,2,-1
 162 0 l 1,3,4
 191 17 191 17 201 70 c 1,5,-1
 247 291 l 2,6,7
 253 319 253 319 238 336.5 c 128,-1,8
 223 354 223 354 190 354 c 256,9,10
 157 354 157 354 131 332 c 128,-1,11
 105 310 105 310 97 276 c 1,12,-1
 37 276 l 1,13,14
 53 336 53 336 97 371.5 c 128,-1,15
 141 407 141 407 201 407 c 0,16,17
 257 407 257 407 289.5 378.5 c 128,-1,18
 322 350 322 350 310 292 c 2,19,-1
 258 47 l 2,0,1
61 549 m 0,20,21
 54 514 54 514 24.5 489.5 c 128,-1,22
 -5 465 -5 465 -40 465 c 0,23,24
 -76 465 -76 465 -95 489.5 c 128,-1,25
 -114 514 -114 514 -107 549 c 0,26,27
 -99 584 -99 584 -69 609 c 128,-1,28
 -39 634 -39 634 -4 634 c 0,29,30
 30 634 30 634 49.5 609.5 c 128,-1,31
 69 585 69 585 61 549 c 0,20,21
17 549 m 0,32,33
 21 566 21 566 12 578 c 128,-1,34
 3 590 3 590 -13 590 c 0,35,36
 -30 590 -30 590 -44.5 578 c 128,-1,37
 -59 566 -59 566 -63 549 c 0,38,39
 -66 532 -66 532 -56.5 520.5 c 128,-1,40
 -47 509 -47 509 -30 509 c 256,41,42
 -13 509 -13 509 0.5 520.5 c 128,-1,43
 14 532 14 532 17 549 c 0,32,33
EndSplineSet
Substitution2: "<23,16000>  in Thai lookup 65 nested-substitutions 2 subtable" uni0E33.alt1
Substitution2: "Single Substitution lookup 58 subtable" uni0E33.alt1
EndChar

StartChar: uni0E34
Encoding: 3636 3636 265
Width: 0
Flags: W
LayerCount: 2
Fore
SplineSet
2 450 m 1,0,1
 -112 490 -112 490 -215 490 c 0,2,3
 -262 490 -262 490 -312 484 c 1,4,5
 -271 618 -271 618 -137 618 c 0,6,7
 -60 618 -60 618 -25.5 571.5 c 128,-1,8
 9 525 9 525 2 450 c 1,0,1
-48 509 m 1,9,10
 -49 534 -49 534 -74.5 556 c 128,-1,11
 -100 578 -100 578 -138 578 c 0,12,13
 -174 578 -174 578 -203 563.5 c 128,-1,14
 -232 549 -232 549 -244 525 c 1,15,16
 -226 529 -226 529 -190 529 c 0,17,18
 -116 529 -116 529 -48 509 c 1,9,10
EndSplineSet
Substitution2: "<23,16000>  in Thai lookup 65 nested-substitutions 2 subtable" uni0E34.alt1
Substitution2: "Single Substitution lookup 58 subtable" uni0E34.alt1
EndChar

StartChar: uni0E35
Encoding: 3637 3637 266
Width: 0
Flags: W
LayerCount: 2
Fore
SplineSet
2 450 m 1,0,1
 -112 490 -112 490 -215 490 c 0,2,3
 -262 490 -262 490 -312 484 c 1,4,5
 -271 618 -271 618 -137 618 c 0,6,7
 -66 618 -66 618 -31 579 c 1,8,-1
 -17 648 l 1,9,-1
 42 648 l 1,10,-1
 3 464 l 1,11,12
 3 457 3 457 2 450 c 1,0,1
-48 509 m 1,13,14
 -49 534 -49 534 -74.5 556 c 128,-1,15
 -100 578 -100 578 -138 578 c 0,16,17
 -174 578 -174 578 -203 563.5 c 128,-1,18
 -232 549 -232 549 -244 525 c 1,19,20
 -226 529 -226 529 -190 529 c 0,21,22
 -116 529 -116 529 -48 509 c 1,13,14
EndSplineSet
Substitution2: "<23,16000>  in Thai lookup 65 nested-substitutions 2 subtable" uni0E35.alt1
Substitution2: "Single Substitution lookup 58 subtable" uni0E35.alt1
EndChar

StartChar: uni0E36
Encoding: 3638 3638 267
Width: 0
Flags: W
LayerCount: 2
Fore
SplineSet
-48 509 m 1,0,1
 -49 534 -49 534 -74.5 556 c 128,-1,2
 -100 578 -100 578 -138 578 c 0,3,4
 -174 578 -174 578 -203 563.5 c 128,-1,5
 -232 549 -232 549 -244 525 c 1,6,7
 -226 529 -226 529 -190 529 c 0,8,9
 -116 529 -116 529 -48 509 c 1,0,1
14 598 m 0,10,11
 16 610 16 610 9.5 618.5 c 128,-1,12
 3 627 3 627 -7 627 c 0,13,14
 -18 627 -18 627 -29 618.5 c 128,-1,15
 -40 610 -40 610 -42 598 c 0,16,17
 -45 586 -45 586 -37.5 578 c 128,-1,18
 -30 570 -30 570 -19 570 c 256,19,20
 -8 570 -8 570 1.5 578 c 128,-1,21
 11 586 11 586 14 598 c 0,10,11
45 598 m 0,22,23
 40 578 40 578 25.5 562 c 128,-1,24
 11 546 11 546 -8 541 c 1,25,26
 7 502 7 502 2 450 c 1,27,28
 -112 490 -112 490 -215 490 c 0,29,30
 -262 490 -262 490 -312 484 c 1,31,32
 -271 618 -271 618 -137 618 c 0,33,34
 -98 618 -98 618 -70 606 c 1,35,36
 -62 628 -62 628 -43 643 c 128,-1,37
 -24 658 -24 658 -1 658 c 0,38,39
 23 658 23 658 36.5 640.5 c 128,-1,40
 50 623 50 623 45 598 c 0,22,23
EndSplineSet
Substitution2: "<23,16000>  in Thai lookup 65 nested-substitutions 2 subtable" uni0E36.alt1
Substitution2: "Single Substitution lookup 58 subtable" uni0E36.alt1
EndChar

StartChar: uni0E37
Encoding: 3639 3639 268
Width: 0
Flags: W
LayerCount: 2
Fore
SplineSet
2 450 m 1,0,1
 -112 490 -112 490 -215 490 c 0,2,3
 -262 490 -262 490 -312 484 c 1,4,5
 -271 618 -271 618 -137 618 c 0,6,7
 -122 618 -122 618 -110 616 c 1,8,-1
 -103 648 l 1,9,-1
 -58 648 l 1,10,-1
 -67 606 l 1,11,12
 -47 597 -47 597 -31 579 c 1,13,-1
 -17 648 l 1,14,-1
 42 648 l 1,15,-1
 3 464 l 1,16,-1
 2 450 l 1,0,1
-48 509 m 1,17,18
 -49 534 -49 534 -74.5 556 c 128,-1,19
 -100 578 -100 578 -138 578 c 0,20,21
 -174 578 -174 578 -203 563.5 c 128,-1,22
 -232 549 -232 549 -244 525 c 1,23,24
 -226 529 -226 529 -190 529 c 0,25,26
 -116 529 -116 529 -48 509 c 1,17,18
EndSplineSet
Substitution2: "<23,16000>  in Thai lookup 65 nested-substitutions 2 subtable" uni0E37.alt1
Substitution2: "Single Substitution lookup 58 subtable" uni0E37.alt1
EndChar

StartChar: uni0E38
Encoding: 3640 3640 269
Width: 0
Flags: W
LayerCount: 2
Fore
SplineSet
-150 -97 m 256,0,1
 -148 -86 -148 -86 -154 -78 c 128,-1,2
 -160 -70 -160 -70 -171 -70 c 256,3,4
 -182 -70 -182 -70 -192.5 -78 c 128,-1,5
 -203 -86 -203 -86 -205 -97 c 256,6,7
 -207 -108 -207 -108 -200.5 -116.5 c 128,-1,8
 -194 -125 -194 -125 -183 -125 c 256,9,10
 -172 -125 -172 -125 -162 -116.5 c 128,-1,11
 -152 -108 -152 -108 -150 -97 c 256,0,1
-136 -197 m 2,12,13
 -148 -254 -148 -254 -183 -271 c 1,14,-1
 -227 -246 l 1,15,16
 -202 -229 -202 -229 -191 -193 c 1,17,-1
 -183 -158 l 1,18,-1
 -192 -159 l 1,19,20
 -217 -159 -217 -159 -231 -141.5 c 128,-1,21
 -245 -124 -245 -124 -240 -100 c 0,22,23
 -234 -75 -234 -75 -213 -57 c 128,-1,24
 -192 -39 -192 -39 -166 -39 c 0,25,26
 -141 -39 -141 -39 -125.5 -55 c 128,-1,27
 -110 -71 -110 -71 -116 -99 c 2,28,-1
 -136 -197 l 2,12,13
EndSplineSet
Substitution2: "<23,16000>  in Thai lookup 65 nested-substitutions 6 subtable" uni0E38.alt1
Substitution2: "Single Substitution lookup 59 subtable" a
Substitution2: "Single Substitution lookup 58 subtable" uni0E38.alt1
EndChar

StartChar: uni0E39
Encoding: 3641 3641 270
Width: 0
Flags: W
LayerCount: 2
Fore
SplineSet
-133 -182 m 2,0,1
 -140 -215 -140 -215 -172 -232 c 0,2,3
 -199 -247 -199 -247 -238 -247 c 0,4,5
 -272 -247 -272 -247 -294 -233 c 0,6,7
 -319 -217 -319 -217 -313 -189 c 2,8,-1
 -306 -159 l 1,9,-1
 -312 -159 l 2,10,11
 -337 -159 -337 -159 -351 -141.5 c 128,-1,12
 -365 -124 -365 -124 -360 -100 c 0,13,14
 -354 -75 -354 -75 -333 -57 c 128,-1,15
 -312 -39 -312 -39 -286 -39 c 0,16,17
 -261 -39 -261 -39 -245.5 -55 c 128,-1,18
 -230 -71 -230 -71 -236 -99 c 2,19,-1
 -255 -189 l 2,20,21
 -258 -204 -258 -204 -228 -204 c 0,22,23
 -196 -204 -196 -204 -193 -189 c 2,24,-1
 -176 -109 l 2,25,26
 -164 -52 -164 -52 -129 -35 c 1,27,-1
 -85 -60 l 1,28,29
 -110 -77 -110 -77 -119 -113 c 1,30,-1
 -133 -182 l 2,0,1
-270 -97 m 256,31,32
 -268 -86 -268 -86 -274 -78 c 128,-1,33
 -280 -70 -280 -70 -291 -70 c 256,34,35
 -302 -70 -302 -70 -312.5 -78 c 128,-1,36
 -323 -86 -323 -86 -325 -97 c 256,37,38
 -327 -108 -327 -108 -320.5 -116.5 c 128,-1,39
 -314 -125 -314 -125 -303 -125 c 256,40,41
 -292 -125 -292 -125 -282 -116.5 c 128,-1,42
 -272 -108 -272 -108 -270 -97 c 256,31,32
EndSplineSet
Substitution2: "<23,16000>  in Thai lookup 65 nested-substitutions 6 subtable" uni0E39.alt1
Substitution2: "Single Substitution lookup 59 subtable" b
Substitution2: "Single Substitution lookup 58 subtable" uni0E39.alt1
EndChar

StartChar: uni0E3A
Encoding: 3642 3642 271
Width: 0
Flags: W
LayerCount: 2
Fore
SplineSet
-97 -76 m 256,0,1
 -100 -90 -100 -90 -112.5 -100.5 c 128,-1,2
 -125 -111 -125 -111 -139 -111 c 256,3,4
 -153 -111 -153 -111 -161.5 -100.5 c 128,-1,5
 -170 -90 -170 -90 -167 -76 c 256,6,7
 -164 -62 -164 -62 -151 -51.5 c 128,-1,8
 -138 -41 -138 -41 -124 -41 c 256,9,10
 -110 -41 -110 -41 -102 -51.5 c 128,-1,11
 -94 -62 -94 -62 -97 -76 c 256,0,1
EndSplineSet
Substitution2: "<23,16000>  in Thai lookup 65 nested-substitutions 6 subtable" uni0E3A.alt1
Substitution2: "Single Substitution lookup 59 subtable" c
Substitution2: "Single Substitution lookup 58 subtable" uni0E3A.alt1
EndChar

StartChar: uni0E3F
Encoding: 3647 3647 272
Width: 389
Flags: W
LayerCount: 2
Fore
SplineSet
323 151 m 0,0,1
 300 44 300 44 173 25 c 1,2,-1
 156 -56 l 1,3,-1
 101 -56 l 1,4,-1
 117 21 l 1,5,6
 82 21 82 21 26 31 c 1,7,-1
 113 442 l 1,8,9
 174 455 174 455 209 456 c 1,10,-1
 223 522 l 1,11,-1
 278 522 l 1,12,-1
 264 453 l 1,13,14
 367 436 367 436 347 342 c 0,15,16
 336 287 336 287 281 252 c 1,17,18
 336 215 336 215 323 151 c 0,0,1
265 150 m 0,19,20
 281 223 281 223 171 223 c 2,21,-1
 126 223 l 1,22,-1
 95 77 l 1,23,24
 111 74 111 74 132 74 c 0,25,26
 179 74 179 74 215 91 c 0,27,28
 257 111 257 111 265 150 c 0,19,20
288 341 m 0,29,30
 301 403 301 403 203 403 c 0,31,32
 197 403 197 403 163 398 c 1,33,-1
 138 278 l 1,34,-1
 193 278 l 2,35,36
 231 278 231 278 256.5 296 c 128,-1,37
 282 314 282 314 288 341 c 0,29,30
EndSplineSet
EndChar

StartChar: uni0E40
Encoding: 3648 3648 273
Width: 208
Flags: W
LayerCount: 2
Fore
SplineSet
174 68 m 256,0,1
 167 36 167 36 140 14 c 128,-1,2
 113 -8 113 -8 82 -8 c 0,3,4
 48 -8 48 -8 30 15 c 128,-1,5
 12 38 12 38 19 73 c 2,6,-1
 80 360 l 2,7,8
 92 416 92 416 127 433 c 1,9,-1
 182 410 l 1,10,11
 149 395 149 395 137 337 c 2,12,-1
 96 142 l 1,13,14
 101 144 101 144 114 144 c 0,15,16
 145 144 145 144 163 122 c 128,-1,17
 181 100 181 100 174 68 c 256,0,1
132 68 m 256,18,19
 135 82 135 82 127 92 c 128,-1,20
 119 102 119 102 105 102 c 256,21,22
 91 102 91 102 79 92 c 128,-1,23
 67 82 67 82 64 68 c 256,24,25
 61 54 61 54 69 44 c 128,-1,26
 77 34 77 34 91 34 c 256,27,28
 105 34 105 34 117 44 c 128,-1,29
 129 54 129 54 132 68 c 256,18,19
EndSplineSet
EndChar

StartChar: uni0E41
Encoding: 3649 3649 274
Width: 395
Flags: W
LayerCount: 2
Fore
SplineSet
174 68 m 256,0,1
 167 36 167 36 140 14 c 128,-1,2
 113 -8 113 -8 82 -8 c 0,3,4
 48 -8 48 -8 30 15 c 128,-1,5
 12 38 12 38 19 73 c 2,6,-1
 80 360 l 2,7,8
 92 416 92 416 127 433 c 1,9,-1
 182 410 l 1,10,11
 149 395 149 395 137 337 c 2,12,-1
 96 142 l 1,13,14
 101 144 101 144 114 144 c 0,15,16
 145 144 145 144 163 122 c 128,-1,17
 181 100 181 100 174 68 c 256,0,1
361 68 m 256,18,19
 354 36 354 36 327 14 c 128,-1,20
 300 -8 300 -8 269 -8 c 0,21,22
 235 -8 235 -8 217 15 c 128,-1,23
 199 38 199 38 206 73 c 2,24,-1
 267 360 l 2,25,26
 279 416 279 416 314 433 c 1,27,-1
 369 410 l 1,28,29
 336 395 336 395 324 337 c 2,30,-1
 283 142 l 1,31,32
 288 144 288 144 301 144 c 0,33,34
 332 144 332 144 350 122 c 128,-1,35
 368 100 368 100 361 68 c 256,18,19
132 68 m 256,36,37
 135 82 135 82 127 92 c 128,-1,38
 119 102 119 102 105 102 c 256,39,40
 91 102 91 102 79 92 c 128,-1,41
 67 82 67 82 64 68 c 256,42,43
 61 54 61 54 69 44 c 128,-1,44
 77 34 77 34 91 34 c 256,45,46
 105 34 105 34 117 44 c 128,-1,47
 129 54 129 54 132 68 c 256,36,37
319 68 m 256,48,49
 322 82 322 82 314 92 c 128,-1,50
 306 102 306 102 292 102 c 256,51,52
 278 102 278 102 266 92 c 128,-1,53
 254 82 254 82 251 68 c 256,54,55
 248 54 248 54 256 44 c 128,-1,56
 264 34 264 34 278 34 c 256,57,58
 292 34 292 34 304 44 c 128,-1,59
 316 54 316 54 319 68 c 256,48,49
EndSplineSet
EndChar

StartChar: uni0E42
Encoding: 3650 3650 275
Width: 252
Flags: W
LayerCount: 2
Fore
SplineSet
218 68 m 256,0,1
 211 36 211 36 184 14 c 128,-1,2
 157 -8 157 -8 126 -8 c 0,3,4
 92 -8 92 -8 74 15 c 128,-1,5
 56 38 56 38 63 73 c 2,6,-1
 147 470 l 1,7,8
 150 504 150 504 109 525 c 0,9,10
 76 542 76 542 38 542 c 1,11,12
 67 656 67 656 164 656 c 0,13,14
 190 656 190 656 219 639.5 c 128,-1,15
 248 623 248 623 261 623 c 0,16,17
 286 623 286 623 305 662 c 1,18,-1
 349 650 l 1,19,20
 313 573 313 573 258 573 c 0,21,22
 239 573 239 573 207.5 589.5 c 128,-1,23
 176 606 176 606 153 606 c 0,24,25
 118 606 118 606 102 581 c 1,26,27
 226 547 226 547 208 465 c 2,28,-1
 140 142 l 1,29,30
 145 144 145 144 158 144 c 0,31,32
 189 144 189 144 207 122 c 128,-1,33
 225 100 225 100 218 68 c 256,0,1
176 68 m 256,34,35
 179 82 179 82 171 92 c 128,-1,36
 163 102 163 102 149 102 c 256,37,38
 135 102 135 102 123 92 c 128,-1,39
 111 82 111 82 108 68 c 256,40,41
 105 54 105 54 113 44 c 128,-1,42
 121 34 121 34 135 34 c 256,43,44
 149 34 149 34 161 44 c 128,-1,45
 173 54 173 54 176 68 c 256,34,35
EndSplineSet
EndChar

StartChar: uni0E43
Encoding: 3651 3651 276
Width: 269
Flags: W
LayerCount: 2
Fore
SplineSet
235 68 m 256,0,1
 228 36 228 36 201 14 c 128,-1,2
 174 -8 174 -8 143 -8 c 0,3,4
 109 -8 109 -8 91 15 c 128,-1,5
 73 38 73 38 80 73 c 2,6,-1
 160 450 l 2,7,8
 165 473 165 473 190.5 510.5 c 128,-1,9
 216 548 216 548 220 567 c 0,10,11
 225 589 225 589 212 602 c 128,-1,12
 199 615 199 615 177 615 c 0,13,14
 143 615 143 615 125 603 c 1,15,16
 150 603 150 603 163 584 c 1,17,18
 173 567 173 567 168 544 c 0,19,20
 162 517 162 517 139 497.5 c 128,-1,21
 116 478 116 478 88 478 c 0,22,23
 59 478 59 478 45.5 499 c 128,-1,24
 32 520 32 520 38 548 c 0,25,26
 49 602 49 602 92 632 c 0,27,28
 131 659 131 659 185 659 c 0,29,30
 229 659 229 659 257 636 c 0,31,32
 288 610 288 610 279 569 c 1,33,34
 275 546 275 546 250 504.5 c 128,-1,35
 225 463 225 463 220 442 c 2,36,-1
 157 142 l 1,37,38
 162 144 162 144 175 144 c 0,39,40
 206 144 206 144 224 122 c 128,-1,41
 242 100 242 100 235 68 c 256,0,1
193 68 m 256,42,43
 196 82 196 82 188 92 c 128,-1,44
 180 102 180 102 166 102 c 256,45,46
 152 102 152 102 140 92 c 128,-1,47
 128 82 128 82 125 68 c 256,48,49
 122 54 122 54 130 44 c 128,-1,50
 138 34 138 34 152 34 c 256,51,52
 166 34 166 34 178 44 c 128,-1,53
 190 54 190 54 193 68 c 256,42,43
133 543 m 256,54,55
 136 556 136 556 129 565 c 128,-1,56
 122 574 122 574 109 574 c 256,57,58
 96 574 96 574 85 565 c 128,-1,59
 74 556 74 556 71 543 c 256,60,61
 68 530 68 530 75 521 c 128,-1,62
 82 512 82 512 95 512 c 256,63,64
 108 512 108 512 119 521 c 128,-1,65
 130 530 130 530 133 543 c 256,54,55
EndSplineSet
EndChar

StartChar: uni0E44
Encoding: 3652 3652 277
Width: 252
Flags: W
LayerCount: 2
Fore
SplineSet
218 68 m 256,0,1
 211 36 211 36 184 14 c 128,-1,2
 157 -8 157 -8 126 -8 c 0,3,4
 92 -8 92 -8 74 15 c 128,-1,5
 56 38 56 38 63 73 c 2,6,-1
 168 567 l 1,7,-1
 89 479 l 1,8,-1
 52 491 l 1,9,10
 68 585 68 585 61 666 c 1,11,-1
 115 666 l 1,12,13
 110 587 110 587 103 547 c 1,14,-1
 197 658 l 1,15,16
 217 655 217 655 229.5 639 c 128,-1,17
 242 623 242 623 237 601 c 2,18,-1
 140 142 l 1,19,20
 145 144 145 144 158 144 c 0,21,22
 189 144 189 144 207 122 c 128,-1,23
 225 100 225 100 218 68 c 256,0,1
176 68 m 256,24,25
 179 82 179 82 171 92 c 128,-1,26
 163 102 163 102 149 102 c 256,27,28
 135 102 135 102 123 92 c 128,-1,29
 111 82 111 82 108 68 c 256,30,31
 105 54 105 54 113 44 c 128,-1,32
 121 34 121 34 135 34 c 256,33,34
 149 34 149 34 161 44 c 128,-1,35
 173 54 173 54 176 68 c 256,24,25
EndSplineSet
EndChar

StartChar: uni0E45
Encoding: 3653 3653 278
Width: 209
Flags: W
LayerCount: 2
Fore
SplineSet
91 -107 m 2,0,1
 79 -164 79 -164 44 -181 c 1,2,-1
 -5 -154 l 1,3,4
 24 -137 24 -137 34 -84 c 1,5,-1
 113 291 l 2,6,7
 119 319 119 319 104 336.5 c 128,-1,8
 89 354 89 354 56 354 c 256,9,10
 23 354 23 354 -2.5 332 c 128,-1,11
 -28 310 -28 310 -36 276 c 1,12,-1
 -96 276 l 1,13,14
 -80 336 -80 336 -36.5 371.5 c 128,-1,15
 7 407 7 407 67 407 c 0,16,17
 123 407 123 407 155.5 378.5 c 128,-1,18
 188 350 188 350 176 292 c 2,19,-1
 91 -107 l 2,0,1
EndSplineSet
EndChar

StartChar: uni0E46
Encoding: 3654 3654 279
Width: 437
Flags: W
LayerCount: 2
Fore
SplineSet
316 -98 m 2,0,1
 304 -155 304 -155 269 -172 c 1,2,-1
 220 -145 l 1,3,4
 249 -128 249 -128 259 -75 c 1,5,-1
 336 289 l 2,6,7
 345 330 345 330 311 355 c 1,8,-1
 257 319 l 1,9,-1
 206 356 l 1,10,11
 187 345 187 345 176 325 c 1,12,-1
 183 325 l 2,13,14
 215 325 215 325 232.5 302.5 c 128,-1,15
 250 280 250 280 243 248 c 256,16,17
 236 216 236 216 209 193.5 c 128,-1,18
 182 171 182 171 150 171 c 0,19,20
 110 171 110 171 93.5 202 c 128,-1,21
 77 233 77 233 86 274 c 0,22,23
 96 324 96 324 136 362.5 c 128,-1,24
 176 401 176 401 227 413 c 1,25,-1
 267 375 l 1,26,-1
 318 413 l 1,27,28
 364 401 364 401 386 368.5 c 128,-1,29
 408 336 408 336 398 290 c 2,30,-1
 316 -98 l 2,0,1
201 248 m 256,31,32
 204 263 204 263 195.5 274 c 128,-1,33
 187 285 187 285 172 285 c 256,34,35
 157 285 157 285 143.5 274 c 128,-1,36
 130 263 130 263 127 248 c 256,37,38
 124 233 124 233 132.5 222 c 128,-1,39
 141 211 141 211 156 211 c 256,40,41
 171 211 171 211 184.5 222 c 128,-1,42
 198 233 198 233 201 248 c 256,31,32
EndSplineSet
EndChar

StartChar: uni0E47
Encoding: 3655 3655 280
Width: 0
Flags: W
LayerCount: 2
Fore
SplineSet
3 521 m 1,0,1
 0 500 0 500 -18.5 484.5 c 128,-1,2
 -37 469 -37 469 -59 469 c 0,3,4
 -108 469 -108 469 -162 511 c 1,5,6
 -176 507 -176 507 -194.5 491.5 c 128,-1,7
 -213 476 -213 476 -218 464 c 1,8,9
 -263 499 -263 499 -253 549 c 0,10,11
 -245 588 -245 588 -209 610 c 0,12,13
 -178 630 -178 630 -135 630 c 2,14,-1
 -67 630 l 2,15,16
 -18 630 -18 630 -8 674 c 2,17,-1
 -3 697 l 1,18,-1
 44 697 l 1,19,-1
 39 675 l 2,20,21
 30 634 30 634 -1 612 c 128,-1,22
 -32 590 -32 590 -74 590 c 2,23,-1
 -147 590 l 2,24,25
 -163 590 -163 590 -178.5 579.5 c 128,-1,26
 -194 569 -194 569 -197 552 c 1,27,28
 -201 536 -201 536 -197 526 c 1,29,30
 -177 549 -177 549 -146 551 c 1,31,32
 -127 536 -127 536 -97 525 c 1,33,34
 -93 545 -93 545 -74.5 559 c 128,-1,35
 -56 573 -56 573 -37 573 c 0,36,37
 -15 573 -15 573 -3.5 557.5 c 128,-1,38
 8 542 8 542 3 521 c 1,0,1
-26 521 m 256,39,40
 -24 530 -24 530 -29 536.5 c 128,-1,41
 -34 543 -34 543 -43 543 c 256,42,43
 -52 543 -52 543 -60 536.5 c 128,-1,44
 -68 530 -68 530 -70 521 c 256,45,46
 -72 512 -72 512 -66.5 505.5 c 128,-1,47
 -61 499 -61 499 -52 499 c 256,48,49
 -43 499 -43 499 -35.5 505.5 c 128,-1,50
 -28 512 -28 512 -26 521 c 256,39,40
EndSplineSet
Substitution2: "<23,16000>  in Thai lookup 65 nested-substitutions 2 subtable" uni0E47.alt1
Substitution2: "Single Substitution lookup 58 subtable" uni0E47.alt1
EndChar

StartChar: uni0E48
Encoding: 3656 3656 281
Width: 0
Flags: W
LayerCount: 2
Fore
SplineSet
48 677 m 1,0,-1
 -11 677 l 1,1,-1
 13 791 l 1,2,-1
 73 791 l 1,3,-1
 48 677 l 1,0,-1
EndSplineSet
Substitution2: "<23,16000>  in Thai lookup 65 nested-substitutions 5 subtable" uni0E48.alt3
Substitution2: "<23,16000>  in Thai lookup 65 nested-substitutions 3 subtable" uni0E48.alt1
Substitution2: "<23,16000>  in Thai lookup 65 nested-substitutions 2 subtable" uni0E48.alt3
Substitution2: "<23,16000>  in Thai lookup 65 nested-substitutions 0 subtable" uni0E48.alt2
Substitution2: "Single Substitution lookup 58 subtable" uni0E48.alt2
EndChar

StartChar: uni0E49
Encoding: 3657 3657 282
Width: 0
Flags: W
LayerCount: 2
Fore
SplineSet
155 835 m 1,0,1
 117 740 117 740 60.5 703.5 c 128,-1,2
 4 667 4 667 -88 667 c 2,3,-1
 -116 667 l 1,4,-1
 -109 700 l 1,5,6
 -68 703 -68 703 -54 729 c 1,7,8
 -102 742 -102 742 -92 788 c 0,9,10
 -87 812 -87 812 -66.5 828 c 128,-1,11
 -46 844 -46 844 -22 844 c 0,12,13
 4 844 4 844 16 827.5 c 128,-1,14
 28 811 28 811 22 785 c 0,15,16
 14 746 14 746 -38 702 c 1,17,18
 12 712 12 712 50.5 748.5 c 128,-1,19
 89 785 89 785 103 835 c 1,20,-1
 155 835 l 1,0,1
-9 786 m 0,21,22
 -7 797 -7 797 -13 804.5 c 128,-1,23
 -19 812 -19 812 -30 812 c 256,24,25
 -41 812 -41 812 -50 804.5 c 128,-1,26
 -59 797 -59 797 -61 786 c 0,27,28
 -64 775 -64 775 -58 767.5 c 128,-1,29
 -52 760 -52 760 -41 760 c 256,30,31
 -30 760 -30 760 -21 767.5 c 128,-1,32
 -12 775 -12 775 -9 786 c 0,21,22
EndSplineSet
Substitution2: "<23,16000>  in Thai lookup 65 nested-substitutions 5 subtable" uni0E49.alt3
Substitution2: "<23,16000>  in Thai lookup 65 nested-substitutions 3 subtable" uni0E49.alt1
Substitution2: "<23,16000>  in Thai lookup 65 nested-substitutions 2 subtable" uni0E49.alt3
Substitution2: "<23,16000>  in Thai lookup 65 nested-substitutions 0 subtable" uni0E49.alt2
Substitution2: "Single Substitution lookup 58 subtable" uni0E49.alt2
EndChar

StartChar: uni0E4A
Encoding: 3658 3658 283
Width: 0
Flags: W
LayerCount: 2
Fore
SplineSet
192 829 m 1,0,1
 154 672 154 672 7 672 c 1,2,-1
 14 701 l 1,3,4
 57 720 57 720 65 761 c 0,5,6
 70 790 70 790 44 798 c 1,7,-1
 6 766 l 1,8,-1
 -18 800 l 1,9,10
 -36 796 -36 796 -53 778 c 1,11,12
 -29 778 -29 778 -16 762 c 128,-1,13
 -3 746 -3 746 -8 722 c 0,14,15
 -13 700 -13 700 -32.5 684 c 128,-1,16
 -52 668 -52 668 -75 668 c 0,17,18
 -99 668 -99 668 -111.5 683.5 c 128,-1,19
 -124 699 -124 699 -118 726 c 0,20,21
 -114 744 -114 744 -104.5 762 c 128,-1,22
 -95 780 -95 780 -80 796 c 128,-1,23
 -65 812 -65 812 -45 822.5 c 128,-1,24
 -25 833 -25 833 -1 836 c 1,25,-1
 17 810 l 1,26,-1
 45 836 l 1,27,28
 75 835 75 835 91 815 c 128,-1,29
 107 795 107 795 101 764 c 0,30,31
 95 736 95 736 78 714 c 1,32,33
 131 743 131 743 150 829 c 1,34,-1
 192 829 l 1,0,1
-39 722 m 256,35,36
 -37 733 -37 733 -42.5 740.5 c 128,-1,37
 -48 748 -48 748 -59 748 c 256,38,39
 -70 748 -70 748 -79 740.5 c 128,-1,40
 -88 733 -88 733 -90 722 c 256,41,42
 -92 711 -92 711 -86 704 c 128,-1,43
 -80 697 -80 697 -69 697 c 256,44,45
 -58 697 -58 697 -49.5 704 c 128,-1,46
 -41 711 -41 711 -39 722 c 256,35,36
EndSplineSet
Substitution2: "<23,16000>  in Thai lookup 65 nested-substitutions 5 subtable" uni0E4A.alt3
Substitution2: "<23,16000>  in Thai lookup 65 nested-substitutions 3 subtable" uni0E4A.alt1
Substitution2: "<23,16000>  in Thai lookup 65 nested-substitutions 2 subtable" uni0E4A.alt3
Substitution2: "<23,16000>  in Thai lookup 65 nested-substitutions 0 subtable" uni0E4A.alt2
Substitution2: "Single Substitution lookup 58 subtable" uni0E4A.alt2
EndChar

StartChar: uni0E4B
Encoding: 3659 3659 284
Width: 0
Flags: W
LayerCount: 2
Fore
SplineSet
108 721 m 1,0,-1
 56 721 l 1,1,-1
 46 677 l 1,2,-1
 -8 677 l 1,3,-1
 1 721 l 1,4,-1
 -46 721 l 1,5,-1
 -38 762 l 1,6,-1
 9 762 l 1,7,-1
 18 804 l 1,8,-1
 73 804 l 1,9,-1
 64 762 l 1,10,-1
 116 762 l 1,11,-1
 108 721 l 1,0,-1
EndSplineSet
Substitution2: "<23,16000>  in Thai lookup 65 nested-substitutions 5 subtable" uni0E4B.alt3
Substitution2: "<23,16000>  in Thai lookup 65 nested-substitutions 3 subtable" uni0E4B.alt1
Substitution2: "<23,16000>  in Thai lookup 65 nested-substitutions 2 subtable" uni0E4B.alt3
Substitution2: "<23,16000>  in Thai lookup 65 nested-substitutions 0 subtable" uni0E4B.alt2
Substitution2: "Single Substitution lookup 58 subtable" uni0E4B.alt2
EndChar

StartChar: uni0E4C
Encoding: 3660 3660 285
Width: 0
Flags: W
LayerCount: 2
Fore
SplineSet
123 835 m 1,0,1
 112 798 112 798 86 779 c 1,2,3
 66 763 66 763 23 752 c 1,4,5
 53 736 53 736 45 699 c 0,6,7
 40 674 40 674 19 656.5 c 128,-1,8
 -2 639 -2 639 -27 639 c 256,9,10
 -52 639 -52 639 -65.5 657 c 128,-1,11
 -79 675 -79 675 -74 700 c 0,12,13
 -60 763 -60 763 11 785 c 0,14,15
 44 795 44 795 55 801 c 0,16,17
 77 813 77 813 82 835 c 1,18,-1
 123 835 l 1,0,1
11 699 m 256,19,20
 13 710 13 710 8 717.5 c 128,-1,21
 3 725 3 725 -7 725 c 0,22,23
 -18 725 -18 725 -27.5 717.5 c 128,-1,24
 -37 710 -37 710 -39 699 c 256,25,26
 -41 688 -41 688 -35 681 c 128,-1,27
 -29 674 -29 674 -18 674 c 256,28,29
 -7 674 -7 674 1 681 c 128,-1,30
 9 688 9 688 11 699 c 256,19,20
EndSplineSet
Substitution2: "<23,16000>  in Thai lookup 65 nested-substitutions 5 subtable" uni0E4C.alt3
Substitution2: "<23,16000>  in Thai lookup 65 nested-substitutions 3 subtable" uni0E4C.alt1
Substitution2: "<23,16000>  in Thai lookup 65 nested-substitutions 2 subtable" uni0E4C.alt3
Substitution2: "<23,16000>  in Thai lookup 65 nested-substitutions 0 subtable" uni0E4C.alt2
Substitution2: "Single Substitution lookup 58 subtable" uni0E4C.alt2
EndChar

StartChar: uni0E4D
Encoding: 3661 3661 286
Width: 0
Flags: W
LayerCount: 2
Fore
SplineSet
61 549 m 0,0,1
 54 514 54 514 24.5 489.5 c 128,-1,2
 -5 465 -5 465 -40 465 c 0,3,4
 -76 465 -76 465 -95 489.5 c 128,-1,5
 -114 514 -114 514 -107 549 c 0,6,7
 -99 584 -99 584 -69 609 c 128,-1,8
 -39 634 -39 634 -4 634 c 0,9,10
 30 634 30 634 49.5 609.5 c 128,-1,11
 69 585 69 585 61 549 c 0,0,1
17 549 m 0,12,13
 21 566 21 566 12 578 c 128,-1,14
 3 590 3 590 -13 590 c 0,15,16
 -30 590 -30 590 -44.5 578 c 128,-1,17
 -59 566 -59 566 -63 549 c 0,18,19
 -66 532 -66 532 -56.5 520.5 c 128,-1,20
 -47 509 -47 509 -30 509 c 256,21,22
 -13 509 -13 509 0.5 520.5 c 128,-1,23
 14 532 14 532 17 549 c 0,12,13
EndSplineSet
Substitution2: "<23,16000>  in Thai lookup 65 nested-substitutions 2 subtable" uni0E4D.alt1
Substitution2: "Single Substitution lookup 58 subtable" uni0E4D.alt1
EndChar

StartChar: uni0E4E
Encoding: 3662 3662 287
Width: 0
Flags: W
LayerCount: 2
Fore
SplineSet
-47 464 m 1,0,1
 -69 455 -69 455 -99 455 c 0,2,3
 -126 455 -126 455 -142.5 471.5 c 128,-1,4
 -159 488 -159 488 -153 514 c 0,5,6
 -148 538 -148 538 -129 555.5 c 128,-1,7
 -110 573 -110 573 -86 577 c 1,8,9
 -93 592 -93 592 -89 608 c 0,10,11
 -82 641 -82 641 -53 658 c 1,12,13
 -27 672 -27 672 5 672 c 0,14,15
 33 672 33 672 57 662 c 1,16,-1
 34 625 l 1,17,18
 16 632 16 632 -3 632 c 0,19,20
 -40 632 -40 632 -45 608 c 0,21,22
 -51 581 -51 581 0 576 c 1,23,-1
 -24 538 l 1,24,25
 -42 545 -42 545 -55 545 c 0,26,27
 -105 545 -105 545 -111 513 c 1,28,29
 -116 493 -116 493 -78 493 c 0,30,31
 -63 493 -63 493 -39 502 c 1,32,-1
 -47 464 l 1,0,1
EndSplineSet
Substitution2: "<23,16000>  in Thai lookup 65 nested-substitutions 2 subtable" uni0E4E.alt1
Substitution2: "Single Substitution lookup 58 subtable" uni0E4E.alt1
EndChar

StartChar: uni0E4F
Encoding: 3663 3663 288
Width: 450
Flags: W
LayerCount: 2
Fore
SplineSet
279 163 m 0,0,1
 285 189 285 189 270.5 208 c 128,-1,2
 256 227 256 227 229 227 c 256,3,4
 202 227 202 227 179.5 208 c 128,-1,5
 157 189 157 189 151 163 c 0,6,7
 145 136 145 136 160 117.5 c 128,-1,8
 175 99 175 99 202 99 c 256,9,10
 229 99 229 99 251 117.5 c 128,-1,11
 273 136 273 136 279 163 c 0,0,1
314 163 m 256,12,13
 305 122 305 122 270 92.5 c 128,-1,14
 235 63 235 63 194 63 c 256,15,16
 153 63 153 63 130 92.5 c 128,-1,17
 107 122 107 122 116 163 c 256,18,19
 125 204 125 204 160 233 c 128,-1,20
 195 262 195 262 236 262 c 256,21,22
 277 262 277 262 300 233 c 128,-1,23
 323 204 323 204 314 163 c 256,12,13
349 163 m 0,24,25
 361 219 361 219 330.5 258 c 128,-1,26
 300 297 300 297 244 297 c 0,27,28
 189 297 189 297 141 258 c 128,-1,29
 93 219 93 219 81 163 c 256,30,31
 69 107 69 107 100 67.5 c 128,-1,32
 131 28 131 28 186 28 c 256,33,34
 241 28 241 28 289 68 c 128,-1,35
 337 108 337 108 349 163 c 0,24,25
384 163 m 0,36,37
 369 93 369 93 309 43.5 c 128,-1,38
 249 -6 249 -6 179 -6 c 256,39,40
 109 -6 109 -6 70 43.5 c 128,-1,41
 31 93 31 93 46 163 c 256,42,43
 61 233 61 233 121 282.5 c 128,-1,44
 181 332 181 332 251 332 c 0,45,46
 319 332 319 332 359 281.5 c 128,-1,47
 399 231 399 231 384 163 c 0,36,37
EndSplineSet
EndChar

StartChar: uni0E50
Encoding: 3664 3664 289
Width: 456
Flags: W
LayerCount: 2
Fore
SplineSet
325 146 m 0,0,1
 334 192 334 192 307.5 219 c 128,-1,2
 281 246 281 246 236 246 c 256,3,4
 191 246 191 246 152.5 219 c 128,-1,5
 114 192 114 192 105 146 c 0,6,7
 95 100 95 100 121.5 73 c 128,-1,8
 148 46 148 46 193 46 c 256,9,10
 238 46 238 46 276.5 73 c 128,-1,11
 315 100 315 100 325 146 c 0,0,1
391 146 m 0,12,13
 376 77 376 77 309 32 c 0,14,15
 249 -9 249 -9 182 -9 c 0,16,17
 114 -9 114 -9 70 32 c 0,18,19
 23 77 23 77 38 146 c 0,20,21
 52 215 52 215 119 260 c 0,22,23
 179 301 179 301 247 301 c 0,24,25
 314 301 314 301 358 260 c 0,26,27
 405 215 405 215 391 146 c 0,12,13
EndSplineSet
EndChar

StartChar: uni0E51
Encoding: 3665 3665 290
Width: 456
Flags: W
LayerCount: 2
Fore
SplineSet
389 119 m 0,0,1
 372 39 372 39 306 -20 c 1,2,-1
 232 -20 l 1,3,4
 314 45 314 45 330 119 c 0,5,6
 342 176 342 176 316 210.5 c 128,-1,7
 290 245 290 245 233 245 c 0,8,9
 184 245 184 245 143 214.5 c 128,-1,10
 102 184 102 184 92 139 c 0,11,12
 84 99 84 99 100 71.5 c 128,-1,13
 116 44 116 44 153 44 c 0,14,15
 168 44 168 44 184 49 c 1,16,17
 149 49 149 49 133 73 c 0,18,19
 118 94 118 94 124 122 c 0,20,21
 131 153 131 153 158.5 174.5 c 128,-1,22
 186 196 186 196 216 196 c 0,23,24
 253 196 253 196 270 171 c 128,-1,25
 287 146 287 146 279 109 c 0,26,27
 268 58 268 58 226.5 25.5 c 128,-1,28
 185 -7 185 -7 132 -7 c 0,29,30
 74 -7 74 -7 46.5 35.5 c 128,-1,31
 19 78 19 78 32 137 c 0,32,33
 47 208 47 208 110.5 254 c 128,-1,34
 174 300 174 300 246 300 c 0,35,36
 326 300 326 300 365.5 247 c 128,-1,37
 405 194 405 194 389 119 c 0,0,1
235 122 m 256,38,39
 238 136 238 136 230.5 146 c 128,-1,40
 223 156 223 156 209 156 c 256,41,42
 195 156 195 156 182.5 146 c 128,-1,43
 170 136 170 136 167 122 c 256,44,45
 164 108 164 108 172 98 c 128,-1,46
 180 88 180 88 194 88 c 256,47,48
 208 88 208 88 220 98 c 128,-1,49
 232 108 232 108 235 122 c 256,38,39
EndSplineSet
EndChar

StartChar: uni0E52
Encoding: 3666 3666 291
Width: 456
Flags: W
LayerCount: 2
Fore
SplineSet
391 70 m 1,0,1
 377 0 377 0 310 0 c 2,2,-1
 51 0 l 2,3,4
 -5 0 -5 0 8 65 c 2,5,-1
 68 348 l 2,6,7
 71 361 71 361 62 365 c 0,8,9
 61 365 61 365 45 367 c 1,10,-1
 55 418 l 1,11,12
 99 418 99 418 117 405 c 0,13,14
 138 389 138 389 129 347 c 2,15,-1
 73 84 l 2,16,17
 67 52 67 52 95 52 c 2,18,-1
 301 52 l 2,19,20
 327 52 327 52 332 76 c 2,21,-1
 360 211 l 2,22,23
 368 247 368 247 346 247 c 0,24,25
 314 247 314 247 302 189 c 1,26,-1
 262 189 l 1,27,28
 263 249 263 249 227 249 c 0,29,30
 212 249 212 249 200 236 c 128,-1,31
 188 223 188 223 183 207 c 1,32,-1
 191 207 l 2,33,34
 220 207 220 207 235.5 187.5 c 128,-1,35
 251 168 251 168 245 140 c 0,36,37
 239 111 239 111 215.5 91.5 c 128,-1,38
 192 72 192 72 163 72 c 0,39,40
 85 72 85 72 104 162 c 0,41,42
 116 221 116 221 150 259 c 0,43,44
 187 302 187 302 239 302 c 0,45,46
 288 302 288 302 294 263 c 1,47,48
 320 302 320 302 362 302 c 0,49,50
 399 302 399 302 414 275 c 128,-1,51
 429 248 429 248 422 213 c 2,52,-1
 391 70 l 1,0,1
207 139 m 256,53,54
 210 152 210 152 203 160.5 c 128,-1,55
 196 169 196 169 183 169 c 256,56,57
 170 169 170 169 160.5 160.5 c 128,-1,58
 151 152 151 152 148 139 c 256,59,60
 145 126 145 126 151.5 118 c 128,-1,61
 158 110 158 110 171 110 c 256,62,63
 184 110 184 110 194 118 c 128,-1,64
 204 126 204 126 207 139 c 256,53,54
EndSplineSet
EndChar

StartChar: uni0E53
Encoding: 3667 3667 292
Width: 456
Flags: W
LayerCount: 2
Fore
SplineSet
372 0 m 1,0,-1
 314 0 l 1,1,-1
 354 190 l 2,2,3
 366 247 366 247 326 247 c 0,4,5
 306 247 306 247 288 228 c 128,-1,6
 270 209 270 209 265 187 c 2,7,-1
 226 0 l 1,8,-1
 167 0 l 1,9,-1
 206 187 l 2,10,11
 219 246 219 246 155 246 c 0,12,13
 119 246 119 246 93 203 c 0,14,15
 74 172 74 172 65 131 c 1,16,17
 83 140 83 140 102 140 c 0,18,19
 133 140 133 140 151 119.5 c 128,-1,20
 169 99 169 99 162 67 c 0,21,22
 155 37 155 37 131 17 c 0,23,24
 105 -6 105 -6 70 -7 c 0,25,26
 22 -8 22 -8 8 39 c 1,27,28
 -1 76 -1 76 9 129 c 0,29,30
 23 197 23 197 63 245 c 1,31,32
 108 301 108 301 169 301 c 0,33,34
 228 301 228 301 249 256 c 1,35,36
 287 302 287 302 339 301 c 0,37,38
 385 301 385 301 403.5 269.5 c 128,-1,39
 422 238 422 238 412 191 c 2,40,-1
 372 0 l 1,0,-1
119 64 m 256,41,42
 122 78 122 78 114.5 87.5 c 128,-1,43
 107 97 107 97 93 97 c 256,44,45
 79 97 79 97 68 87.5 c 128,-1,46
 57 78 57 78 54 64 c 256,47,48
 51 50 51 50 58 41 c 128,-1,49
 65 32 65 32 79 32 c 256,50,51
 93 32 93 32 104.5 41 c 128,-1,52
 116 50 116 50 119 64 c 256,41,42
EndSplineSet
EndChar

StartChar: uni0E54
Encoding: 3668 3668 293
Width: 456
Flags: W
LayerCount: 2
Fore
SplineSet
356 -9 m 1,0,1
 305 18 305 18 268 18 c 0,2,3
 243 18 243 18 193.5 5.5 c 128,-1,4
 144 -7 144 -7 120 -7 c 0,5,6
 54 -7 54 -7 22 36 c 0,7,8
 -8 76 -8 76 4 138 c 1,9,10
 39 303 39 303 253 303 c 0,11,12
 338 303 338 303 377 316 c 0,13,14
 440 337 440 337 470 418 c 1,15,-1
 527 418 l 1,16,17
 482 309 482 309 413 273 c 0,18,19
 364 248 364 248 255 248 c 0,20,21
 178 248 178 248 141 234 c 0,22,23
 81 210 81 210 67 142 c 0,24,25
 58 103 58 103 78.5 73.5 c 128,-1,26
 99 44 99 44 129 44 c 0,27,28
 135 44 135 44 207 55 c 1,29,30
 120 79 120 79 136 151 c 0,31,32
 143 184 143 184 169.5 205 c 128,-1,33
 196 226 196 226 226 226 c 0,34,35
 258 226 258 226 273 203.5 c 128,-1,36
 288 181 288 181 282 152 c 0,37,38
 274 117 274 117 239 93 c 1,39,40
 254 85 254 85 280 80 c 1,41,42
 307 76 307 76 333 69.5 c 128,-1,43
 359 63 359 63 395 38 c 1,44,-1
 356 -9 l 1,0,1
238 153 m 256,45,46
 241 166 241 166 234 174.5 c 128,-1,47
 227 183 227 183 214 183 c 256,48,49
 201 183 201 183 191 174.5 c 128,-1,50
 181 166 181 166 178 153 c 256,51,52
 175 140 175 140 182 131.5 c 128,-1,53
 189 123 189 123 202 123 c 256,54,55
 215 123 215 123 225 131.5 c 128,-1,56
 235 140 235 140 238 153 c 256,45,46
EndSplineSet
EndChar

StartChar: uni0E55
Encoding: 3669 3669 294
Width: 456
Flags: W
LayerCount: 2
Fore
SplineSet
356 -9 m 1,0,1
 305 18 305 18 268 18 c 0,2,3
 243 18 243 18 193.5 5.5 c 128,-1,4
 144 -7 144 -7 120 -7 c 0,5,6
 54 -7 54 -7 22 36 c 0,7,8
 -8 76 -8 76 4 138 c 1,9,10
 36 289 36 289 217 302 c 1,11,12
 202 321 202 321 208 350 c 256,13,14
 214 379 214 379 238 398.5 c 128,-1,15
 262 418 262 418 290 418 c 0,16,17
 319 418 319 418 334.5 398.5 c 128,-1,18
 350 379 350 379 344 350 c 0,19,20
 338 324 338 324 317 304 c 1,21,22
 351 307 351 307 377 316 c 0,23,24
 440 338 440 338 470 418 c 1,25,-1
 527 418 l 1,26,27
 482 309 482 309 413 273 c 0,28,29
 364 248 364 248 255 248 c 0,30,31
 178 248 178 248 141 234 c 0,32,33
 81 210 81 210 67 142 c 0,34,35
 58 103 58 103 78.5 73.5 c 128,-1,36
 99 44 99 44 129 44 c 0,37,38
 135 44 135 44 207 55 c 1,39,40
 120 79 120 79 136 151 c 0,41,42
 143 184 143 184 169.5 205 c 128,-1,43
 196 226 196 226 226 226 c 0,44,45
 258 226 258 226 273 203.5 c 128,-1,46
 288 181 288 181 282 152 c 0,47,48
 274 117 274 117 239 93 c 1,49,50
 254 85 254 85 280 80 c 0,51,52
 310 75 310 75 334.5 69 c 128,-1,53
 359 63 359 63 395 38 c 1,54,-1
 356 -9 l 1,0,1
238 153 m 256,55,56
 241 166 241 166 234 174.5 c 128,-1,57
 227 183 227 183 214 183 c 256,58,59
 201 183 201 183 191 174.5 c 128,-1,60
 181 166 181 166 178 153 c 256,61,62
 175 140 175 140 182 131.5 c 128,-1,63
 189 123 189 123 202 123 c 256,64,65
 215 123 215 123 225 131.5 c 128,-1,66
 235 140 235 140 238 153 c 256,55,56
306 349 m 0,67,68
 308 362 308 362 301.5 370.5 c 128,-1,69
 295 379 295 379 282 379 c 256,70,71
 269 379 269 379 258.5 370.5 c 128,-1,72
 248 362 248 362 246 349 c 0,73,74
 243 336 243 336 249.5 327.5 c 128,-1,75
 256 319 256 319 269 319 c 256,76,77
 282 319 282 319 292.5 327.5 c 128,-1,78
 303 336 303 336 306 349 c 0,67,68
EndSplineSet
EndChar

StartChar: uni0E56
Encoding: 3670 3670 295
Width: 456
Flags: W
LayerCount: 2
Fore
SplineSet
415 153 m 0,0,1
 398 73 398 73 327 29 c 0,2,3
 266 -9 266 -9 189 -9 c 0,4,5
 124 -9 124 -9 93 5 c 0,6,7
 31 32 31 32 44 90 c 0,8,9
 51 123 51 123 76 145 c 128,-1,10
 101 167 101 167 134 167 c 256,11,12
 167 167 167 167 184.5 145 c 128,-1,13
 202 123 202 123 195 92 c 0,14,15
 189 64 189 64 173 48 c 1,16,17
 179 47 179 47 195 47 c 0,18,19
 251 47 251 47 294 71 c 0,20,21
 343 98 343 98 355 151 c 0,22,23
 365 198 365 198 332 223 c 0,24,25
 304 245 304 245 256 245 c 0,26,27
 147 245 147 245 87 182 c 1,28,-1
 66 182 l 1,29,30
 81 264 81 264 81 305 c 0,31,32
 81 371 81 371 55 418 c 1,33,-1
 123 418 l 1,34,35
 146 353 146 353 134 274 c 1,36,37
 182 301 182 301 265 301 c 0,38,39
 341 301 341 301 383 266 c 0,40,41
 431 226 431 226 415 153 c 0,0,1
153 92 m 256,42,43
 156 106 156 106 148.5 115.5 c 128,-1,44
 141 125 141 125 127 125 c 256,45,46
 113 125 113 125 102 115.5 c 128,-1,47
 91 106 91 106 88 92 c 256,48,49
 85 78 85 78 92 69 c 128,-1,50
 99 60 99 60 113 60 c 256,51,52
 127 60 127 60 138.5 69 c 128,-1,53
 150 78 150 78 153 92 c 256,42,43
EndSplineSet
EndChar

StartChar: uni0E57
Encoding: 3671 3671 296
Width: 456
Flags: W
LayerCount: 2
Fore
SplineSet
442 231 m 0,0,1
 416 112 416 112 369 59 c 0,2,3
 313 -3 313 -3 209 -3 c 1,4,5
 273 108 273 108 290 188 c 0,6,7
 294 207 294 207 291 225 c 0,8,9
 286 249 286 249 270 249 c 0,10,11
 252 249 252 249 237 226 c 0,12,13
 224 207 224 207 220 187 c 2,14,-1
 212 147 l 1,15,-1
 152 147 l 1,16,-1
 160 185 l 2,17,18
 173 249 173 249 128 249 c 0,19,20
 104 249 104 249 84 215 c 0,21,22
 68 188 68 188 61 151 c 1,23,-1
 58 140 l 1,24,25
 78 148 78 148 92 148 c 0,26,27
 123 148 123 148 141 125.5 c 128,-1,28
 159 103 159 103 152 70 c 0,29,30
 146 38 146 38 119.5 17 c 128,-1,31
 93 -4 93 -4 60 -4 c 0,32,33
 11 -4 11 -4 -2 46 c 0,34,35
 -12 84 -12 84 0 141 c 0,36,37
 12 202 12 202 43 245 c 0,38,39
 82 301 82 301 137 301 c 0,40,41
 191 301 191 301 205 262 c 1,42,43
 236 301 236 301 277 301 c 0,44,45
 326 301 326 301 343 262 c 0,46,47
 357 230 357 230 347 179 c 1,48,49
 335 127 335 127 309 71 c 1,50,51
 357 99 357 99 382 219 c 0,52,53
 415 375 415 375 444 418 c 1,54,-1
 505 418 l 1,55,56
 472 381 472 381 458 311 c 128,-1,57
 444 241 444 241 442 231 c 0,0,1
109 72 m 256,58,59
 112 86 112 86 103.5 96.5 c 128,-1,60
 95 107 95 107 81 107 c 256,61,62
 67 107 67 107 55 96.5 c 128,-1,63
 43 86 43 86 40 72 c 256,64,65
 37 58 37 58 45 48 c 128,-1,66
 53 38 53 38 67 38 c 256,67,68
 81 38 81 38 93.5 48 c 128,-1,69
 106 58 106 58 109 72 c 256,58,59
EndSplineSet
EndChar

StartChar: uni0E58
Encoding: 3672 3672 297
Width: 456
Flags: W
LayerCount: 2
Fore
SplineSet
398 78 m 0,0,1
 391 44 391 44 360.5 18 c 128,-1,2
 330 -8 330 -8 295 -8 c 0,3,4
 223 -8 223 -8 157 68 c 1,5,6
 133 60 133 60 102 32.5 c 128,-1,7
 71 5 71 5 62 -16 c 1,8,9
 -11 43 -11 43 10 150 c 1,10,11
 30 242 30 242 91 275 c 0,12,13
 139 301 139 301 245 301 c 0,14,15
 322 301 322 301 355 315 c 0,16,17
 400 335 400 335 412 394 c 1,18,-1
 414 403 l 1,19,-1
 472 403 l 1,20,21
 471 395 471 395 468 381 c 0,22,23
 450 293 450 293 372 265 c 0,24,25
 325 248 325 248 212 248 c 0,26,27
 88 248 88 248 67 148 c 0,28,29
 54 88 54 88 78 70 c 1,30,31
 94 93 94 93 128 110.5 c 128,-1,32
 162 128 162 128 187 128 c 1,33,34
 203 98 203 98 232 84 c 1,35,36
 240 117 240 117 270 140 c 128,-1,37
 300 163 300 163 331 163 c 0,38,39
 367 163 367 163 386.5 138 c 128,-1,40
 406 113 406 113 398 78 c 0,0,1
349 78 m 0,41,42
 352 92 352 92 344 103 c 128,-1,43
 336 114 336 114 321 114 c 256,44,45
 306 114 306 114 293 103 c 128,-1,46
 280 92 280 92 277 78 c 0,47,48
 274 63 274 63 282 52.5 c 128,-1,49
 290 42 290 42 305 42 c 256,50,51
 320 42 320 42 333 52.5 c 128,-1,52
 346 63 346 63 349 78 c 0,41,42
EndSplineSet
EndChar

StartChar: uni0E59
Encoding: 3673 3673 298
Width: 456
Flags: W
LayerCount: 2
Fore
SplineSet
351 -10 m 1,0,1
 290 47 290 47 253 174 c 0,2,3
 250 187 250 187 247 200.5 c 128,-1,4
 244 214 244 214 234 223 c 0,5,6
 208 246 208 246 172 246 c 256,7,8
 136 246 136 246 107 215 c 128,-1,9
 78 184 78 184 70 148 c 0,10,11
 63 113 63 113 73 84 c 1,12,13
 100 137 100 137 155 137 c 0,14,15
 184 137 184 137 200.5 116 c 128,-1,16
 217 95 217 95 210 65 c 0,17,18
 204 36 204 36 178.5 14.5 c 128,-1,19
 153 -7 153 -7 124 -7 c 0,20,21
 60 -7 60 -7 28 40 c 0,22,23
 -2 84 -2 84 11 147 c 0,24,25
 25 212 25 212 76.5 256.5 c 128,-1,26
 128 301 128 301 189 301 c 0,27,28
 245 301 245 301 274 268 c 1,29,30
 292 300 292 300 323 300 c 0,31,32
 337 300 337 300 357.5 285.5 c 128,-1,33
 378 271 378 271 392 271 c 0,34,35
 411 271 411 271 423 328 c 0,36,37
 434 378 434 378 430 415 c 1,38,-1
 479 415 l 1,39,40
 479 365 479 365 469 318 c 0,41,42
 448 217 448 217 390 217 c 0,43,44
 377 217 377 217 356.5 232 c 128,-1,45
 336 247 336 247 327 247 c 0,46,47
 309 247 309 247 305 228 c 0,48,49
 298 193 298 193 335 118 c 128,-1,50
 372 43 372 43 400 28 c 1,51,-1
 351 -10 l 1,0,1
171 64 m 256,52,53
 174 78 174 78 166.5 87.5 c 128,-1,54
 159 97 159 97 145 97 c 256,55,56
 131 97 131 97 120 87.5 c 128,-1,57
 109 78 109 78 106 64 c 256,58,59
 103 50 103 50 110 41 c 128,-1,60
 117 32 117 32 131 32 c 256,61,62
 145 32 145 32 156.5 41 c 128,-1,63
 168 50 168 50 171 64 c 256,52,53
EndSplineSet
EndChar

